<svg width="97" height="40" viewBox="0 0 97 40" fill="none" xmlns="http://www.w3.org/2000/svg">
<path d="M90.18 16.8159C89.3267 16.8159 88.6013 16.6559 88.004 16.3359C87.4173 16.0159 86.9693 15.5732 86.66 15.0079C86.3507 14.4426 86.196 13.7919 86.196 13.0559C86.196 12.3519 86.3773 11.7172 86.74 11.1519C87.1027 10.5866 87.588 10.1386 88.196 9.8079C88.804 9.46657 89.4813 9.2959 90.228 9.2959C91.2307 9.2959 92.052 9.58923 92.692 10.1759C93.3427 10.7519 93.764 11.5892 93.956 12.6879L88.516 14.4159L88.02 13.1999L91.956 11.8719L91.492 12.0799C91.4067 11.8026 91.252 11.5626 91.028 11.3599C90.8147 11.1466 90.4893 11.0399 90.052 11.0399C89.7213 11.0399 89.428 11.1199 89.172 11.2799C88.9267 11.4292 88.7347 11.6479 88.596 11.9359C88.468 12.2132 88.404 12.5439 88.404 12.9279C88.404 13.3652 88.484 13.7332 88.644 14.0319C88.804 14.3199 89.0227 14.5386 89.3 14.6879C89.5773 14.8372 89.8867 14.9119 90.228 14.9119C90.4733 14.9119 90.708 14.8692 90.932 14.7839C91.1667 14.6986 91.396 14.5866 91.62 14.4479L92.612 16.1119C92.2387 16.3252 91.8333 16.4959 91.396 16.6239C90.9693 16.7519 90.564 16.8159 90.18 16.8159Z" fill="white"/>
<path d="M82.0208 16.768C81.4448 16.768 80.9061 16.6667 80.4047 16.464C79.9141 16.2613 79.4981 15.9787 79.1567 15.616L80.0847 14.384C80.4261 14.6933 80.7407 14.9173 81.0287 15.056C81.3274 15.184 81.5941 15.248 81.8288 15.248C82.0101 15.248 82.1701 15.232 82.3087 15.2C82.4581 15.1573 82.5754 15.0987 82.6608 15.024C82.7461 14.9387 82.7887 14.832 82.7887 14.704C82.7887 14.5227 82.7141 14.3787 82.5648 14.272C82.4261 14.1653 82.2448 14.08 82.0208 14.016C81.7968 13.9413 81.5568 13.8667 81.3008 13.792C80.6608 13.5893 80.1967 13.296 79.9087 12.912C79.6314 12.5173 79.4928 12.0907 79.4928 11.632C79.4928 11.28 79.5834 10.928 79.7647 10.576C79.9567 10.2133 80.2554 9.91468 80.6608 9.68001C81.0768 9.43468 81.6101 9.31201 82.2607 9.31201C82.8474 9.31201 83.3434 9.37068 83.7487 9.48801C84.1541 9.60534 84.5381 9.79734 84.9007 10.064L84.0527 11.376C83.8501 11.216 83.6207 11.0827 83.3647 10.976C83.1194 10.8587 82.8901 10.7947 82.6768 10.784C82.4848 10.7733 82.3194 10.7947 82.1807 10.848C82.0527 10.9013 81.9514 10.9707 81.8767 11.056C81.8021 11.1413 81.7647 11.232 81.7647 11.328C81.7541 11.5307 81.8287 11.6907 81.9887 11.808C82.1594 11.9253 82.3727 12.016 82.6287 12.08C82.8847 12.144 83.1354 12.2187 83.3807 12.304C83.7221 12.4107 84.0154 12.5547 84.2607 12.736C84.5061 12.9173 84.6927 13.136 84.8207 13.392C84.9594 13.6373 85.0287 13.936 85.0287 14.288C85.0287 14.7147 84.9167 15.12 84.6927 15.504C84.4794 15.8773 84.1488 16.1813 83.7008 16.416C83.2634 16.6507 82.7034 16.768 82.0208 16.768Z" fill="white"/>
<path d="M75.3669 9.63211H77.6069V16.6241H75.3669V9.63211ZM75.3189 7.15211C75.3189 6.82145 75.4469 6.54945 75.7029 6.33611C75.9695 6.12278 76.2522 6.01611 76.5509 6.01611C76.8495 6.01611 77.1215 6.12278 77.3669 6.33611C77.6229 6.54945 77.7509 6.82145 77.7509 7.15211C77.7509 7.48278 77.6229 7.75478 77.3669 7.96811C77.1215 8.17078 76.8495 8.27211 76.5509 8.27211C76.2522 8.27211 75.9695 8.17078 75.7029 7.96811C75.4469 7.75478 75.3189 7.48278 75.3189 7.15211Z" fill="white"/>
<path d="M65.8473 13.0399C65.8473 12.3252 66.0126 11.6852 66.3433 11.1199C66.6846 10.5546 67.1593 10.1119 67.7673 9.7919C68.3753 9.46123 69.0739 9.2959 69.8633 9.2959C70.6633 9.2959 71.3566 9.46123 71.9433 9.7919C72.5299 10.1119 72.9779 10.5546 73.2873 11.1199C73.6073 11.6852 73.7673 12.3252 73.7673 13.0399C73.7673 13.7546 73.6073 14.3999 73.2873 14.9759C72.9779 15.5412 72.5299 15.9892 71.9433 16.3199C71.3566 16.6506 70.6526 16.8159 69.8313 16.8159C69.0633 16.8159 68.3753 16.6666 67.7673 16.3679C67.1699 16.0692 66.7006 15.6372 66.3593 15.0719C66.0179 14.5066 65.8473 13.8292 65.8473 13.0399ZM68.1032 13.0559C68.1032 13.4186 68.1779 13.7492 68.3272 14.0479C68.4766 14.3359 68.6792 14.5652 68.9352 14.7359C69.1912 14.9066 69.4792 14.9919 69.7992 14.9919C70.1512 14.9919 70.4553 14.9066 70.7113 14.7359C70.9673 14.5652 71.1646 14.3359 71.3033 14.0479C71.4419 13.7492 71.5113 13.4186 71.5113 13.0559C71.5113 12.6826 71.4419 12.3519 71.3033 12.0639C71.1646 11.7759 70.9673 11.5466 70.7113 11.3759C70.4553 11.2052 70.1512 11.1199 69.7992 11.1199C69.4792 11.1199 69.1912 11.2052 68.9352 11.3759C68.6792 11.5466 68.4766 11.7759 68.3272 12.0639C68.1779 12.3519 68.1032 12.6826 68.1032 13.0559Z" fill="white"/>
<path d="M63.8276 17.1038L54.8996 9.03979L55.5876 9.42379L55.6356 16.6238H53.2836V4.38379H53.3796L62.1156 12.4158L61.6036 12.1918L61.5556 4.84779H63.8916V17.1038H63.8276Z" fill="white"/>
<path d="M42.6387 16.8159C41.7854 16.8159 41.0601 16.6559 40.4627 16.3359C39.8761 16.0159 39.4281 15.5732 39.1187 15.0079C38.8094 14.4426 38.6548 13.7919 38.6548 13.0559C38.6548 12.3519 38.8361 11.7172 39.1987 11.1519C39.5614 10.5866 40.0468 10.1386 40.6548 9.8079C41.2628 9.46657 41.9401 9.2959 42.6867 9.2959C43.6894 9.2959 44.5107 9.58923 45.1507 10.1759C45.8014 10.7519 46.2227 11.5892 46.4147 12.6879L40.9748 14.4159L40.4787 13.1999L44.4147 11.8719L43.9507 12.0799C43.8654 11.8026 43.7107 11.5626 43.4867 11.3599C43.2734 11.1466 42.9481 11.0399 42.5107 11.0399C42.1801 11.0399 41.8867 11.1199 41.6307 11.2799C41.3854 11.4292 41.1934 11.6479 41.0547 11.9359C40.9267 12.2132 40.8628 12.5439 40.8628 12.9279C40.8628 13.3652 40.9427 13.7332 41.1027 14.0319C41.2627 14.3199 41.4814 14.5386 41.7588 14.6879C42.0361 14.8372 42.3454 14.9119 42.6867 14.9119C42.9321 14.9119 43.1668 14.8692 43.3908 14.7839C43.6254 14.6986 43.8548 14.5866 44.0788 14.4479L45.0707 16.1119C44.6974 16.3252 44.2921 16.4959 43.8547 16.6239C43.4281 16.7519 43.0227 16.8159 42.6387 16.8159Z" fill="white"/>
<path d="M33.7229 6.56006H35.9629V9.60006H37.6589V11.3441H35.9629V16.6241H33.7229V11.3441H32.6349V9.60006H33.7229V6.56006Z" fill="white"/>
<path d="M28.685 9.63211H30.925V16.6241H28.685V9.63211ZM28.637 7.15211C28.637 6.82145 28.765 6.54945 29.021 6.33611C29.2877 6.12278 29.5703 6.01611 29.869 6.01611C30.1677 6.01611 30.4397 6.12278 30.685 6.33611C30.941 6.54945 31.069 6.82145 31.069 7.15211C31.069 7.48278 30.941 7.75478 30.685 7.96811C30.4397 8.17078 30.1677 8.27211 29.869 8.27211C29.5703 8.27211 29.2877 8.17078 29.021 7.96811C28.765 7.75478 28.637 7.48278 28.637 7.15211Z" fill="white"/>
<path d="M19.35 16.624V4H21.542V11.04L21.526 10.768C21.7713 10.3307 22.118 9.97867 22.566 9.712C23.014 9.43467 23.5633 9.296 24.214 9.296C24.8753 9.296 25.4247 9.49333 25.862 9.888C26.31 10.272 26.5393 10.7733 26.55 11.392V16.624H24.31V12.224C24.2993 11.9147 24.214 11.6693 24.054 11.488C23.9047 11.296 23.6487 11.2 23.286 11.2C22.9447 11.2 22.646 11.312 22.39 11.536C22.134 11.76 21.9367 12.064 21.798 12.448C21.6593 12.832 21.59 13.2747 21.59 13.776V16.624H19.35Z" fill="white"/>
<path d="M2.5 4.92822H5.22L7.732 12.3202L7.364 12.1602L9.556 6.70422L10.628 9.88822L7.236 17.1682L2.5 4.92822ZM8.404 4.92822H10.708L13.604 12.0802L13.188 12.0162L15.348 4.92822H17.844L13.3 17.1362L8.404 4.92822Z" fill="white"/>
<path d="M69.1354 34.9839C68.282 34.9839 67.5567 34.8239 66.9594 34.5039C66.3727 34.1839 65.9247 33.7412 65.6154 33.1759C65.306 32.6105 65.1514 31.9599 65.1514 31.2239C65.1514 30.5199 65.3327 29.8852 65.6954 29.3199C66.058 28.7545 66.5434 28.3065 67.1514 27.9759C67.7594 27.6345 68.4367 27.4639 69.1834 27.4639C70.186 27.4639 71.0074 27.7572 71.6474 28.3439C72.298 28.9199 72.7194 29.7572 72.9114 30.8559L67.4714 32.5839L66.9754 31.3679L70.9114 30.0399L70.4474 30.2479C70.362 29.9705 70.2074 29.7305 69.9834 29.5279C69.77 29.3145 69.4447 29.2079 69.0074 29.2079C68.6767 29.2079 68.3834 29.2879 68.1274 29.4479C67.882 29.5972 67.69 29.8159 67.5514 30.1039C67.4234 30.3812 67.3594 30.7119 67.3594 31.0959C67.3594 31.5332 67.4394 31.9012 67.5994 32.1999C67.7594 32.4879 67.978 32.7065 68.2554 32.8559C68.5327 33.0052 68.842 33.0799 69.1834 33.0799C69.4287 33.0799 69.6634 33.0372 69.8874 32.9519C70.122 32.8665 70.3514 32.7545 70.5754 32.6159L71.5674 34.2799C71.194 34.4932 70.7887 34.6639 70.3514 34.7919C69.9247 34.9199 69.5194 34.9839 69.1354 34.9839Z" fill="white"/>
<path d="M60.7628 30.0238L62.0908 27.7998H64.3148L61.5468 31.6398L60.7628 30.0238ZM64.6988 34.7918H61.9948L56.6028 27.7998H59.3548L64.6988 34.7918ZM60.4748 32.5518L58.9068 34.7918H56.6828L59.4508 31.0478L60.4748 32.5518Z" fill="white"/>
<path d="M50.672 35.1278C50.0427 35.1278 49.5147 34.9358 49.088 34.5518C48.6613 34.1571 48.4373 33.6505 48.416 33.0318V27.7998H50.656V32.1998C50.6773 32.5091 50.7573 32.7598 50.896 32.9518C51.0347 33.1331 51.2693 33.2238 51.6 33.2238C51.9307 33.2238 52.2133 33.1118 52.448 32.8878C52.6933 32.6638 52.88 32.3598 53.008 31.9758C53.1467 31.5811 53.216 31.1385 53.216 30.6478V27.7998H55.456V34.7918H53.424L53.248 33.5118L53.28 33.6558C53.12 33.9438 52.9173 34.1998 52.672 34.4238C52.4267 34.6478 52.1333 34.8185 51.792 34.9358C51.4613 35.0638 51.088 35.1278 50.672 35.1278Z" fill="white"/>
<path d="M44.0341 22.168H46.2741V34.792H44.0341V22.168Z" fill="white"/>
<path d="M38.7954 34.9839C37.942 34.9839 37.2167 34.8239 36.6194 34.5039C36.0327 34.1839 35.5847 33.7412 35.2754 33.1759C34.966 32.6105 34.8114 31.9599 34.8114 31.2239C34.8114 30.5199 34.9927 29.8852 35.3554 29.3199C35.718 28.7545 36.2034 28.3065 36.8114 27.9759C37.4194 27.6345 38.0967 27.4639 38.8434 27.4639C39.846 27.4639 40.6674 27.7572 41.3074 28.3439C41.958 28.9199 42.3794 29.7572 42.5714 30.8559L37.1314 32.5839L36.6354 31.3679L40.5714 30.0399L40.1074 30.2479C40.022 29.9705 39.8674 29.7305 39.6434 29.5279C39.43 29.3145 39.1047 29.2079 38.6674 29.2079C38.3367 29.2079 38.0434 29.2879 37.7874 29.4479C37.542 29.5972 37.35 29.8159 37.2114 30.1039C37.0834 30.3812 37.0194 30.7119 37.0194 31.0959C37.0194 31.5332 37.0994 31.9012 37.2594 32.1999C37.4194 32.4879 37.638 32.7065 37.9154 32.8559C38.1927 33.0052 38.502 33.0799 38.8434 33.0799C39.0887 33.0799 39.3234 33.0372 39.5474 32.9519C39.782 32.8665 40.0114 32.7545 40.2354 32.6159L41.2274 34.2799C40.854 34.4932 40.4487 34.6639 40.0114 34.7919C39.5847 34.9199 39.1794 34.9839 38.7954 34.9839Z" fill="white"/>
<path d="M23.5446 34.7921V23.0161H27.0646C28.2486 23.0161 29.2566 23.1921 30.0886 23.5441C30.9206 23.8961 31.5873 24.3654 32.0886 24.9521C32.6006 25.5388 32.974 26.1948 33.2086 26.9201C33.4433 27.6454 33.5606 28.3761 33.5606 29.1121C33.5606 29.9868 33.4006 30.7761 33.0806 31.4801C32.7713 32.1734 32.3446 32.7708 31.8006 33.2721C31.2566 33.7628 30.6273 34.1414 29.9126 34.4081C29.198 34.6641 28.4406 34.7921 27.6406 34.7921H23.5446ZM25.8646 32.5521H27.2406C27.8273 32.5521 28.3606 32.4774 28.8406 32.3281C29.3206 32.1681 29.7313 31.9388 30.0726 31.6401C30.4246 31.3414 30.6913 30.9681 30.8726 30.5201C31.0646 30.0614 31.1606 29.5388 31.1606 28.9521C31.1606 28.1841 31.0326 27.5601 30.7766 27.0801C30.5313 26.5894 30.222 26.2108 29.8486 25.9441C29.486 25.6774 29.1126 25.4961 28.7286 25.4001C28.3446 25.2934 28.0193 25.2401 27.7526 25.2401H25.8646V32.5521Z" fill="white"/>
</svg>
