<svg width="203" height="180" viewBox="0 0 203 180" fill="none" xmlns="http://www.w3.org/2000/svg">
<path d="M138.635 115.876C132.182 104.448 150.13 96.0879 155.399 90.1969C161.644 83.2184 168.253 69.5444 176.973 72.1374C190.443 76.1444 184.242 100.995 171.292 112.674C156.591 125.933 142.861 123.356 138.635 115.876Z" fill="#30305C"/>
<path d="M153.828 91.7343C151.945 98.1351 150.933 105.36 154.076 109.292C157.89 114.064 164.723 114.494 169.709 114.04C155.615 125.738 142.709 123.089 138.635 115.876C132.722 105.408 147.291 97.5137 153.828 91.7343Z" fill="#31315B"/>
<path d="M150.785 123.531C149.578 123.531 148.526 123.428 147.654 123.288C143.08 122.548 139.322 120.11 137.343 116.601C131.878 106.922 141.621 99.4136 148.734 93.9289C150.961 92.2122 153.064 90.591 154.291 89.2169C155.771 87.5639 157.278 85.5126 158.873 83.3418C163.999 76.3713 169.804 68.4688 177.393 70.7273C181.635 71.9899 184.445 75.1525 185.521 79.8805C187.804 89.9259 181.867 105.129 172.283 113.773C163.399 121.787 155.755 123.531 150.785 123.531ZM174.81 73.2964C169.928 73.2964 165.534 79.279 161.268 85.0824C159.629 87.3129 158.082 89.42 156.506 91.1805C155.095 92.7579 152.888 94.4586 150.549 96.263C142.145 102.744 136.028 108.248 139.926 115.151C141.461 117.871 144.452 119.775 148.13 120.373C154.819 121.456 162.899 118.254 170.292 111.582C179.016 103.711 184.665 89.4917 182.63 80.5297C181.795 76.8533 179.748 74.5072 176.545 73.5553C175.961 73.38 175.382 73.2964 174.81 73.2964Z" fill="#0C0C2E"/>
<path d="M176.198 87.1935C176.605 85.1383 175.266 83.1427 173.207 82.7364C171.144 82.3302 169.141 83.6605 168.733 85.7158C168.321 87.7711 169.661 89.7666 171.724 90.1729C173.783 90.5832 175.786 89.2488 176.198 87.1935Z" fill="#1D1D40"/>
<path d="M178.385 79.9962C178.589 78.9685 177.921 77.9727 176.889 77.7656C175.858 77.5625 174.858 78.2277 174.65 79.2553C174.446 80.2829 175.114 81.2787 176.146 81.4858C177.177 81.689 178.181 81.0238 178.385 79.9962Z" fill="#1D1D40"/>
<path d="M181.335 84.2182C181.539 83.1906 180.871 82.1948 179.84 81.9877C178.808 81.7845 177.809 82.4497 177.601 83.4774C177.393 84.505 178.065 85.5008 179.096 85.7079C180.128 85.911 181.127 85.2459 181.335 84.2182Z" fill="#1D1D40"/>
<path d="M173.115 79.2073C173.319 78.1797 172.651 77.1839 171.619 76.9768C170.588 76.7737 169.588 77.4388 169.38 78.4665C169.173 79.4941 169.844 80.4899 170.876 80.697C171.907 80.9002 172.911 80.235 173.115 79.2073Z" fill="#1D1D40"/>
<path d="M63.5052 104.153H100.108H103.163H139.766C139.766 104.153 152.057 124.762 150.777 140.71C149.862 152.134 147.407 167.951 132.889 174.069C120.963 179.096 111.331 175.017 101.64 175.017C92.0641 175.017 82.3165 179.096 70.39 174.069C55.8727 167.951 53.4178 152.134 52.5022 140.71C51.2148 124.762 63.5052 104.153 63.5052 104.153Z" fill="#1D1D40"/>
<path d="M68.3589 147.868C68.3589 147.868 79.3698 162.49 103.219 162.49C127.068 162.49 137.471 144.821 137.471 144.821L138.083 142.383L133.905 173.603C133.569 173.762 133.233 173.918 132.885 174.065C120.959 179.092 111.327 175.013 101.636 175.013C92.06 175.013 82.3125 179.092 70.386 174.065C69.6783 173.766 69.0106 173.44 68.3589 173.097V147.868Z" fill="#23234D"/>
<path d="M103.222 133.856C80.0171 133.856 57.3356 127.331 54.0811 126.63C57.1836 114.753 63.5047 104.15 63.5047 104.15H100.108H103.163H139.766C139.766 104.15 145.903 114.438 149.049 126.105C140.529 129.59 121.298 133.856 103.222 133.856Z" fill="#30305C"/>
<path d="M120.155 178.064C116.757 178.064 113.506 177.65 110.304 177.24C107.305 176.857 104.474 176.495 101.632 176.495C98.8369 176.495 96.0261 176.853 93.0475 177.236C86.2266 178.108 78.4982 179.096 69.8062 175.431C55.1169 169.242 52.0503 153.687 51.0188 140.83C49.7154 124.599 61.7179 104.257 62.2297 103.401C62.4975 102.955 62.9813 102.68 63.5051 102.68H103.163L139.338 101.78C139.878 101.776 140.382 102.046 140.654 102.509C141.181 103.405 153.556 124.607 152.252 140.834C151.221 153.691 148.15 169.246 133.461 175.435C128.687 177.443 124.309 178.064 120.155 178.064ZM64.3647 105.627C62.2577 109.375 52.878 126.941 53.9735 140.591C54.997 153.365 57.8197 167.17 70.9617 172.707C78.918 176.061 85.9108 175.168 92.6717 174.304C95.7463 173.91 98.6489 173.539 101.632 173.539C104.662 173.539 107.721 173.93 110.679 174.308C117.404 175.168 124.361 176.057 132.305 172.707C145.447 167.166 148.27 153.361 149.294 140.591C150.393 126.917 140.694 108.646 138.519 104.747L103.195 105.627H64.3647Z" fill="#0C0C2E"/>
<path d="M138.335 102.752C138.335 102.752 133.189 122.277 101.999 122.886C73.2606 123.448 63.4691 107.655 63.4691 107.655C62.8534 105.827 138.335 102.752 138.335 102.752Z" fill="#31315B"/>
<path d="M146.147 141.762C152.352 141.428 167.453 147.191 170.092 153.146C174.474 163.036 166.49 175.535 160.273 177.789C152.388 180.645 130.326 174.412 130.326 174.412C130.326 174.412 125.241 142.885 146.147 141.762Z" fill="#30305C"/>
<path d="M166.862 152.429C172.243 154.636 171.504 166.39 166.114 172.014C160.725 177.638 156.271 176.108 154.464 171.783C151.729 165.239 157.162 148.454 166.862 152.429Z" fill="#1D1D40"/>
<path d="M140.529 169.198C147.922 175.224 158.209 176.591 162.543 176.571C161.776 177.108 161.012 177.523 160.272 177.793C152.388 180.649 130.326 174.416 130.326 174.416C130.326 174.416 128.171 161.044 132.441 151.409C132.561 155.811 133.8 163.713 140.529 169.198Z" fill="#31315B"/>
<path d="M154.619 180C144.812 180 130.658 176.041 129.919 175.83C129.363 175.674 128.951 175.212 128.859 174.643C128.735 173.886 125.956 155.97 133.809 146.267C136.799 142.575 140.921 140.559 146.063 140.284C152.884 139.918 168.577 146.076 171.443 152.548C173.443 157.065 173.267 162.542 170.944 167.963C168.661 173.292 164.575 177.797 160.776 179.171C159.161 179.761 157.018 180 154.619 180ZM131.666 173.249C138.335 175.049 153.963 178.502 159.769 176.403C162.799 175.304 166.274 171.361 168.225 166.808C170.224 162.144 170.404 157.503 168.741 153.743C166.458 148.593 151.988 142.929 146.231 143.236C141.965 143.467 138.567 145.108 136.124 148.123C130.03 155.647 131.218 169.54 131.666 173.249Z" fill="#0C0C2E"/>
<path d="M54.6774 141.762C48.4723 141.427 33.3712 147.191 30.7324 153.146C26.3504 163.036 34.3348 175.535 40.5519 177.789C48.4363 180.645 70.4982 174.412 70.4982 174.412C70.4982 174.412 75.5838 142.885 54.6774 141.762Z" fill="#30305C"/>
<path d="M33.9628 152.429C28.5813 154.636 29.321 166.39 34.7105 172.014C40.1 177.638 44.554 176.108 46.3611 171.783C49.0959 165.239 43.6624 148.454 33.9628 152.429Z" fill="#1D1D40"/>
<path d="M60.2942 169.198C52.9016 175.224 42.6143 176.59 38.2803 176.57C39.0439 177.108 39.8116 177.522 40.5512 177.793C48.4356 180.649 70.4975 174.415 70.4975 174.415C70.4975 174.415 72.6525 161.044 68.3825 151.409C68.2625 155.81 67.0231 163.713 60.2942 169.198Z" fill="#31315B"/>
<path d="M46.205 180C43.8061 180 41.6671 179.761 40.0479 179.175C36.2496 177.797 32.1635 173.292 29.8805 167.967C27.5576 162.542 27.3817 157.069 29.3808 152.552C32.2475 146.084 47.9522 139.922 54.7611 140.288C59.9028 140.563 64.0249 142.579 67.0155 146.271C74.8719 155.974 72.0892 173.886 71.9652 174.647C71.8733 175.212 71.4614 175.674 70.9057 175.834C70.166 176.041 56.0125 180 46.205 180ZM54.1254 143.224C48.0802 143.224 34.3105 148.728 32.0915 153.743C30.4243 157.503 30.6082 162.144 32.6073 166.808C34.5544 171.361 38.0328 175.304 41.0634 176.403C46.8687 178.506 62.4976 175.053 69.1665 173.252C69.6103 169.54 70.7938 155.631 64.7085 148.123C62.2697 145.112 58.8712 143.471 54.6052 143.24C54.4453 143.228 54.2893 143.224 54.1254 143.224Z" fill="#0C0C2E"/>
<path d="M61.8097 101.278C75.4994 103.054 66.0637 121.838 72.9205 131.804C77.1026 137.886 89.8328 144.713 82.7201 153.715C74.024 164.721 49.3514 149.967 44.6535 133.206C39.32 114.179 53.2616 100.17 61.8097 101.278Z" fill="#30305C"/>
<path d="M47.4283 110.618C46.001 115.342 45.7371 120.906 47.4403 126.985C52.0222 143.335 75.6114 157.77 84.8352 148.254C84.8432 149.987 84.2314 151.799 82.7201 153.715C74.0241 164.721 49.3515 149.967 44.6536 133.206C42.1268 124.192 43.926 116.306 47.4283 110.618Z" fill="#31315B"/>
<path d="M82.8321 154.731C82.6642 154.731 82.4923 154.703 82.3244 154.639C82.1324 154.568 77.6145 152.883 76.2232 149.067C75.9433 148.298 76.3431 147.454 77.1107 147.175C77.8784 146.896 78.73 147.295 79.0099 148.059C79.9175 150.557 83.3079 151.851 83.3439 151.863C84.1115 152.142 84.5074 152.99 84.2275 153.759C84.0076 154.361 83.4398 154.731 82.8321 154.731Z" fill="#0C0C2E"/>
<path d="M78.2306 157.515C78.0626 157.515 77.8907 157.487 77.7228 157.424C77.5309 157.352 73.013 155.667 71.6216 151.851C71.3417 151.086 71.7415 150.238 72.5092 149.959C73.2768 149.68 74.1284 150.079 74.4083 150.844C75.3159 153.341 78.7063 154.635 78.7383 154.647C79.506 154.926 79.9018 155.775 79.6219 156.543C79.406 157.141 78.8383 157.515 78.2306 157.515Z" fill="#0C0C2E"/>
<path d="M74.1525 158.989C72.949 158.989 71.6856 158.862 70.3702 158.599C60.0709 156.547 46.7051 146.016 43.2267 133.605C40.448 123.695 42.503 113.514 48.7202 106.368C52.7103 101.78 57.8 99.2702 62.0021 99.8159C71.3178 101.023 71.3977 109.383 71.4697 116.756C71.5177 121.906 71.5697 127.228 74.1445 130.972C75.156 132.442 76.7673 134.019 78.4745 135.692C83.3243 140.44 89.9652 146.94 83.888 154.631C81.621 157.495 78.2426 158.989 74.1525 158.989ZM60.8266 102.692C57.764 102.692 53.9857 104.815 50.9551 108.3C45.3937 114.697 43.5705 123.858 46.0774 132.812C49.2639 144.18 61.5103 153.827 70.9499 155.707C74.2244 156.36 78.7264 156.384 81.5531 152.807C85.6792 147.581 82.1888 143.475 76.3914 137.799C74.5803 136.026 72.8651 134.349 71.6936 132.645C68.607 128.16 68.551 122.117 68.4991 116.784C68.4231 108.623 68.0473 103.58 61.6142 102.743C61.3623 102.708 61.0985 102.692 60.8266 102.692Z" fill="#0C0C2E"/>
<path d="M143.389 33.2262C151.233 27.7614 153.86 13.0039 141.786 4.61949C130.951 -2.90461 117.089 4.32075 114.234 13.7687L143.389 33.2262Z" fill="#30305C"/>
<path d="M144.24 34.4372L142.541 32.0155C146.215 29.4543 148.582 24.579 148.582 19.5882C148.578 14.1353 145.863 9.24801 140.941 5.8305C136.619 2.83122 131.422 2.15409 126.3 3.93056C121.183 5.70304 117.004 9.73395 115.657 14.195L112.818 13.3426C114.458 7.92163 119.247 3.24945 125.329 1.14238C131.37 -0.952735 137.515 -0.148149 142.637 3.40877C148.378 7.39586 151.541 13.1395 151.545 19.5882C151.549 25.6027 148.75 31.2945 144.24 34.4372Z" fill="#0C0C2E"/>
<path d="M137.931 28.1918C142.777 25.2881 144.924 16.6885 138.147 11.2596C132.066 6.38821 122.542 10.8812 120.495 16.7523L137.931 28.1918Z" fill="#1D1D40"/>
<path d="M50.8066 52.0744C41.4389 50.1107 33.2107 37.5639 41.0151 25.1326C48.0199 13.9759 63.6167 15.2067 69.9578 22.7786L50.8066 52.0744Z" fill="#30305C"/>
<path d="M50.5031 53.5203C45.1176 52.3931 40.2998 48.2506 37.9369 42.7141C35.4021 36.7833 36.0498 30.2629 39.7601 24.352C43.0706 19.0783 48.4081 15.9357 54.7892 15.5015C61.2062 15.0634 67.4594 17.4891 71.0977 21.8347L68.8227 23.7266C65.8281 20.1498 60.3986 18.0786 54.9891 18.445C49.5796 18.8155 45.0656 21.4682 42.2709 25.9173C39.0884 30.9839 38.5166 36.5403 40.6597 41.559C42.6228 46.1516 46.7249 49.7125 51.1109 50.6325L50.5031 53.5203Z" fill="#0C0C2E"/>
<path d="M53.8453 45.3071C48.2438 44.5264 42.8823 37.4604 46.9804 29.8208C50.6547 22.9619 61.1859 23.3761 65.38 27.9766L53.8453 45.3071Z" fill="#1D1D40"/>
<path d="M45.1933 82.5691C43.4901 66.4972 52.9377 20.6198 89.8168 13.1116C126.696 5.60343 153.456 44.1121 158.217 59.5626C162.979 75.0131 158.333 103.755 110.411 113.514C62.4893 123.269 46.9005 98.6409 45.1933 82.5691Z" fill="#30305C"/>
<path d="M45.1938 82.5691C44.6301 77.2317 45.2938 68.6083 47.7846 59.1962C46.7451 65.1828 46.5212 70.4405 46.905 74.0771C48.5083 89.2049 63.1856 112.387 108.297 103.202C153.408 94.0205 157.778 66.9632 153.296 52.4169C152.217 48.9197 149.942 44.1719 146.631 39.0735C152.628 46.7609 156.639 54.4324 158.218 59.5626C162.98 75.0131 158.334 103.755 110.412 113.514C62.4899 123.272 46.901 98.6409 45.1938 82.5691Z" fill="#23234D"/>
<path d="M113.714 69.2217C121.646 75.6664 137.351 78.4107 144.204 70.0422C151.057 61.6737 146.455 45.3589 138.523 38.9142C130.59 32.4695 118.604 34.0309 111.755 42.3994C104.906 50.7679 105.782 62.777 113.714 69.2217Z" fill="#1D1D40"/>
<path d="M89.9293 74.0651C85.1714 83.0948 71.8056 91.7581 62.206 86.7354C52.6104 81.7167 50.4154 64.9119 55.1732 55.8822C59.931 46.8525 71.5697 43.6062 81.1653 48.625C90.7649 53.6477 94.6871 65.0354 89.9293 74.0651Z" fill="#1D1D40"/>
<path d="M103.731 80.0836C105.054 83.6485 111.651 82.8479 111.651 82.8479C111.651 82.8479 115.157 94.3232 107.393 95.8209C99.4806 97.3464 97.3735 85.8392 97.3735 85.8392C97.3735 85.8392 102.719 85.8392 103.731 80.0836Z" fill="white" fill-opacity="0.2"/>
<path d="M100.216 91.746C100.216 91.746 101.468 88.5038 105.394 87.504C109.316 86.5043 112.071 89.0017 112.071 89.0017L111.655 83.262L107.481 82.8478L103.891 81.1031L101.72 84.3454L98.0454 86.0103L100.216 91.746Z" fill="white" fill-opacity="0.1"/>
<path d="M105.974 97.438C104.387 97.438 102.907 96.9799 101.568 96.0678C97.2459 93.1243 95.9705 86.3928 95.9185 86.106L95.5986 84.3654H97.3738C97.7856 84.3574 101.504 84.1782 102.272 79.8287L103.219 74.4435L105.122 79.5698C105.882 81.6211 110.324 81.5215 111.471 81.3781L112.707 81.2267L113.071 82.4137C113.159 82.7045 115.218 89.5992 112.579 93.9647C111.507 95.7372 109.86 96.8485 107.677 97.2667C107.097 97.3822 106.53 97.438 105.974 97.438ZM99.213 87.062C99.7687 88.938 100.996 92.1046 103.247 93.6341C104.391 94.4108 105.658 94.6538 107.113 94.375C108.457 94.1161 109.412 93.4867 110.04 92.4471C111.387 90.2206 110.984 86.5442 110.524 84.4092C108.917 84.453 106.242 84.3057 104.311 83.0311C103.071 85.4249 100.976 86.596 99.213 87.062Z" fill="#0C0C2E"/>
<path d="M101.992 71.95C94.9791 73.3759 94.7952 76.5704 96.0146 77.9406C96.9422 78.9881 101.476 77.3391 103.839 80.9478C104.895 76.4708 109.408 76.4469 109.852 75.1245C110.432 73.3879 109.005 70.524 101.992 71.95Z" fill="#0C0C2E"/>
<path d="M109.024 84.7439C104.482 84.7439 102.399 81.2905 101.911 79.2034C101.727 78.4107 102.223 77.6141 103.019 77.4309C103.815 77.2477 104.606 77.7376 104.798 78.5262C104.97 79.2153 106.053 82.5691 110.567 81.6171C112.531 81.2029 113.978 79.7212 114.01 78.0921C114.026 77.2755 114.694 76.6183 115.521 76.6422C116.341 76.6582 116.988 77.3313 116.972 78.1478C116.912 81.183 114.53 83.7959 111.179 84.5049C110.407 84.6682 109.688 84.7439 109.024 84.7439Z" fill="#0C0C2E"/>
<path d="M96.7818 87.301C94.0351 87.301 91.5922 85.891 90.5407 83.5609C90.2048 82.8161 90.5367 81.9438 91.2843 81.6092C92.032 81.2746 92.9076 81.6052 93.2434 82.35C93.9151 83.8357 95.8303 84.6323 97.7974 84.246C102.327 83.3578 101.999 79.8407 101.887 79.1476C101.76 78.347 102.299 77.5862 103.103 77.4508C103.907 77.3154 104.666 77.8451 104.806 78.6457C105.234 81.0635 104.442 85.9547 98.3691 87.1457C97.8373 87.2493 97.3056 87.301 96.7818 87.301Z" fill="#0C0C2E"/>
<path d="M127.134 67.3233C131.8 64.6622 133.417 58.7366 130.746 54.0882C128.075 49.4398 122.127 47.8288 117.461 50.4899C112.795 53.1511 111.178 59.0766 113.849 63.725C116.52 68.3734 122.468 69.9844 127.134 67.3233Z" fill="white" fill-opacity="0.4"/>
<path d="M126.209 65.6321C129.938 63.4868 131.215 58.7363 129.062 55.0215C126.908 51.3067 122.14 50.0343 118.411 52.1795C114.682 54.3248 113.405 59.0753 115.558 62.7901C117.712 66.5049 122.48 67.7773 126.209 65.6321Z" fill="#0C0C2E"/>
<path d="M122.706 60.6301C122.458 59.4272 121.279 58.6505 120.071 58.8975C118.864 59.1444 118.084 60.3194 118.332 61.5223C118.58 62.7252 119.759 63.502 120.967 63.255C122.17 63.008 122.95 61.833 122.706 60.6301Z" fill="white" fill-opacity="0.4"/>
<path d="M127.048 56.169C126.88 55.3564 126.157 54.8187 125.425 54.9661C124.697 55.1135 124.242 55.8941 124.405 56.7067C124.573 57.5193 125.297 58.057 126.025 57.9096C126.756 57.7582 127.212 56.9815 127.048 56.169Z" fill="white" fill-opacity="0.4"/>
<path d="M80.7273 77.2121C85.846 75.5724 88.6614 70.1093 87.0155 65.0099C85.3697 59.9105 79.8859 57.1058 74.7673 58.7454C69.6486 60.385 66.8332 65.8481 68.4791 70.9476C70.1249 76.047 75.6086 78.8517 80.7273 77.2121Z" fill="white" fill-opacity="0.4"/>
<path d="M78.7456 75.69C83.0161 75.1405 86.0309 71.2461 85.4793 66.9917C84.9277 62.7372 81.0187 59.7337 76.7481 60.2832C72.4776 60.8327 69.4628 64.7271 70.0143 68.9816C70.5659 73.236 74.475 76.2395 78.7456 75.69Z" fill="#0C0C2E"/>
<path d="M78.1382 69.7036C77.8903 68.5007 76.7109 67.724 75.5034 67.971C74.296 68.2179 73.5163 69.3929 73.7642 70.5958C74.0121 71.7987 75.1916 72.5754 76.399 72.3285C77.6065 72.0815 78.3861 70.9065 78.1382 69.7036Z" fill="white" fill-opacity="0.4"/>
<path d="M82.4808 65.2386C82.3129 64.426 81.5893 63.8883 80.8576 64.0357C80.1299 64.183 79.6741 64.9637 79.8381 65.7763C80.006 66.5888 80.7297 67.1266 81.4573 66.9792C82.193 66.8318 82.6488 66.0511 82.4808 65.2386Z" fill="white" fill-opacity="0.4"/>
<path d="M90.2525 117.174C77.5063 117.174 66.8072 114.195 58.7389 108.308C46.7005 99.5292 44.2256 87.4922 43.7218 82.7245C42.8182 74.1966 44.9293 58.4394 51.6982 44.0046C57.5235 31.5773 68.8143 15.8839 89.5248 11.6658C110.235 7.45163 126.804 17.4771 137.055 26.6303C148.966 37.2652 157.11 50.9313 159.637 59.1325C161.048 63.7171 163.511 75.754 155.898 88.5358C148.258 101.361 132.629 110.499 110.711 114.964C103.43 116.438 96.5896 117.174 90.2525 117.174ZM46.6685 82.4138C47.1323 86.7912 49.4072 97.8444 60.4901 105.926C71.8769 114.231 89.037 116.354 110.115 112.064C131.194 107.774 146.143 99.115 153.348 87.0222C160.356 75.2561 158.097 64.199 156.802 59.9929C154.391 52.174 146.563 39.0855 135.072 28.825C125.328 20.1259 109.62 10.5863 90.1125 14.5575C70.6095 18.5287 59.9144 33.4414 54.3769 45.2514C47.8519 59.1803 45.8049 74.2803 46.6685 82.4138Z" fill="#0C0C2E"/>
<path d="M184.809 111.933C184.53 111.933 184.25 111.853 183.998 111.69C183.314 111.243 183.122 110.327 183.57 109.646C189.087 101.246 191.69 91.1049 190.891 81.0953C190.827 80.2828 191.434 79.5698 192.25 79.5061C193.058 79.4423 193.781 80.0478 193.845 80.8603C194.697 91.5191 191.93 102.313 186.053 111.263C185.765 111.698 185.293 111.933 184.809 111.933Z" fill="#0C0C2E"/>
<path d="M196.168 108.089C195.976 108.089 195.78 108.049 195.592 107.973C194.841 107.655 194.485 106.79 194.805 106.037C197.064 100.712 198.487 95.0998 199.043 89.3442C199.119 88.5316 199.846 87.9381 200.658 88.0138C201.474 88.0895 202.069 88.8105 201.993 89.623C201.414 95.6734 199.914 101.584 197.535 107.185C197.295 107.75 196.744 108.089 196.168 108.089Z" fill="#0C0C2E"/>
</svg>
