<svg width="40" height="40" viewBox="0 0 40 40" fill="none" xmlns="http://www.w3.org/2000/svg">
<g clip-path="url(#clip0_657_304)">
<path fill-rule="evenodd" clip-rule="evenodd" d="M22.4685 4.42181C22.1441 5.46025 22.0695 6.74916 22.0236 7.71071L22.0234 7.71503C22.0162 7.85317 22.0087 7.99544 22.0008 8.14533C21.9104 9.87041 21.7671 12.6037 21.3692 21.6323C21.3598 21.8457 21.3505 22.0577 21.3412 22.2684C21.139 26.8725 20.9658 30.8162 20.504 33.6367C20.2637 35.1039 19.9301 36.3764 19.4098 37.3049C18.8697 38.2687 18.036 39 16.8335 39V37C17.0676 37 17.3403 36.9068 17.6651 36.3272C18.0098 35.7121 18.2996 34.7222 18.5303 33.3135C18.9723 30.6139 19.141 26.7768 19.3474 22.0838C19.3552 21.9051 19.3632 21.7253 19.3711 21.5442C19.7693 12.5088 19.9128 9.77117 20.0035 8.04158C20.0114 7.89241 20.0188 7.75073 20.026 7.61316C20.0702 6.6868 20.1471 5.14558 20.5595 3.82546C20.7669 3.1614 21.0834 2.46951 21.5935 1.93141C22.1308 1.36469 22.8566 1 23.7605 1C24.6643 1 25.3899 1.36442 25.9296 1.92735C26.4424 2.46229 26.766 3.15082 26.9829 3.81195C27.3742 5.00495 27.5022 6.39409 27.5868 7.31159C27.5951 7.40182 27.603 7.4875 27.6107 7.56798L27.6123 7.58538L28.453 21.5247C28.453 21.5253 28.453 21.5258 28.4531 21.5263C28.4843 22.0179 28.5135 22.6024 28.546 23.2532C28.6579 25.4919 28.8089 28.5151 29.2182 31.2382C29.4829 32.9991 29.8441 34.5428 30.3307 35.6219C30.8468 36.7664 31.3128 37 31.6112 37V39C30.0361 39 29.0797 37.713 28.5075 36.444C27.9057 35.1095 27.5127 33.3466 27.2405 31.5355C26.8144 28.7006 26.6561 25.523 26.5445 23.2837C26.5133 22.6568 26.4857 22.1034 26.457 21.6518L26.4568 21.6484L25.6181 7.74061C25.611 7.66641 25.6039 7.59057 25.5967 7.51333C25.5078 6.56349 25.3989 5.39996 25.0825 4.43531C24.9124 3.91665 24.7082 3.54337 24.4858 3.31144C24.2903 3.1075 24.0733 3 23.7605 3C23.4479 3 23.2347 3.10723 23.045 3.30738C22.8281 3.53614 22.6296 3.90607 22.4685 4.42181Z" fill="currentColor"/>
<path fill-rule="evenodd" clip-rule="evenodd" d="M7.07876 4.49791C6.65822 5.53986 6.46476 6.83579 6.42233 7.71142L6.42212 7.71581C6.40375 8.06329 6.38237 8.43616 6.35642 8.88898C6.25269 10.6988 6.07576 13.7858 5.72476 21.6329C5.50612 26.521 5.26839 30.7765 4.72395 33.6907C4.45558 35.1272 4.08989 36.3786 3.52411 37.2223C3.23215 37.6577 2.84251 38.0519 2.31979 38.2662C1.77652 38.4888 1.20877 38.4683 0.670839 38.2806C0.149384 38.0987 -0.125847 37.5285 0.0560936 37.007C0.238035 36.4855 0.80825 36.2103 1.32971 36.3922C1.4856 36.4466 1.54219 36.4234 1.56092 36.4157C1.59976 36.3998 1.70967 36.3371 1.863 36.1084C2.18778 35.6241 2.49738 34.7182 2.75797 33.3234C3.27145 30.575 3.50634 26.4714 3.72676 21.5436C4.0784 13.6821 4.256 10.5836 4.35963 8.77562C4.38542 8.3258 4.40662 7.95587 4.42479 7.61234C4.47404 6.60028 4.69272 5.06601 5.22413 3.74936C5.72521 2.50786 6.70834 1 8.50027 1C10.3472 1 11.2023 2.5858 11.6004 3.81572C11.9994 5.04857 12.1372 6.48707 12.2258 7.41137C12.2309 7.46487 12.2359 7.51664 12.2407 7.56656L12.2421 7.58141L13.1747 21.5238C13.1873 21.7188 13.2005 21.9295 13.2145 22.154C13.3552 24.3992 13.5822 28.0235 14.1654 31.2066C14.4876 32.9651 14.9055 34.5101 15.4374 35.5917C15.9993 36.7344 16.4975 37 16.8335 37V39C15.2678 39 14.2676 37.7451 13.6426 36.4742C12.9877 35.1422 12.5305 33.3806 12.1982 31.5671C11.5919 28.2583 11.358 24.5139 11.2185 22.2807C11.2044 22.0557 11.1913 21.8461 11.1789 21.6538C11.1789 21.6534 11.1788 21.6531 11.1788 21.6527L10.2486 7.7446C10.2457 7.7146 10.2428 7.6843 10.2398 7.65372C10.1469 6.6917 10.0269 5.44922 9.69755 4.43155C9.33194 3.30188 8.90595 3 8.50027 3C8.03956 3 7.53004 3.37981 7.07876 4.49791Z" fill="currentColor"/>
<path fill-rule="evenodd" clip-rule="evenodd" d="M40.0003 2C40.0003 1.44772 39.5526 1 39.0003 1C38.139 1 37.5906 1.6058 37.2879 2.08705C36.9684 2.59515 36.7412 3.23802 36.5727 3.86353C36.2315 5.13004 36.057 6.61601 35.9748 7.57791L35.9739 7.58857L35.0829 21.5314C34.9622 23.6508 34.6854 27.6987 34.0299 31.203C33.7004 32.9642 33.2871 34.5205 32.7822 35.6137C32.5293 36.1613 32.2797 36.534 32.0534 36.7575C31.8385 36.9697 31.6969 37 31.6112 37V39C32.3636 39 32.9831 38.6502 33.4587 38.1806C33.9229 37.7222 34.2936 37.1114 34.598 36.4522C35.2078 35.1318 35.657 33.3815 35.9958 31.5707C36.6763 27.9329 36.9582 23.7774 37.0795 21.6485C37.0796 21.6474 37.0796 21.6462 37.0797 21.6451L37.9684 7.73757C38.0479 6.81215 38.2105 5.47267 38.5038 4.38373C38.6531 3.82945 38.8183 3.41051 38.981 3.15174C39.0332 3.0687 39.0722 3.02112 39.0968 2.9954C39.6038 2.94683 40.0003 2.51971 40.0003 2ZM39.1275 2.96871C39.1274 2.96828 39.1241 2.97009 39.1178 2.97542C39.1243 2.97181 39.1275 2.96915 39.1275 2.96871Z" fill="currentColor"/>
</g>
<defs>
<clipPath id="clip0_657_304">
<rect width="40" height="40" fill="white"/>
</clipPath>
</defs>
</svg>
