<svg width="40" height="40" viewBox="0 0 40 40" fill="none" xmlns="http://www.w3.org/2000/svg">
<path fill-rule="evenodd" clip-rule="evenodd" d="M24.2112 14.2315C24.14 14.402 24.0339 14.6238 23.871 14.8117C23.4678 15.2766 22.9066 15.5659 22.3972 15.7547C21.8734 15.9489 21.3099 16.0708 20.8103 16.1494C20.3065 16.2286 19.8412 16.2677 19.5033 16.2872C19.3336 16.297 19.194 16.3019 19.0954 16.3044C19.046 16.3057 19.0068 16.3063 18.979 16.3067L18.9461 16.307L18.9363 16.307L18.9321 16.307C18.9319 16.307 18.9313 16.307 18.9313 15.3669L18.9321 16.307H18.8377L18.7459 16.2889C18.648 16.2695 18.5479 16.2496 18.4456 16.2292C16.4584 15.8338 13.6566 15.2763 10.7755 15.6323C10.0154 15.7262 9.20198 16.253 8.57294 17.0056C7.92177 17.7847 7.67434 18.5518 7.71732 18.9341L7.72315 18.986V25.7069L5.19062 28.8776V35.1198H8.35027C8.34821 35.0972 8.34598 35.0743 8.34358 35.0514C8.28294 34.4721 8.13452 34.0583 7.96304 33.8888C7.22964 33.1639 7.16692 32.1663 7.29627 31.3991C7.42839 30.6156 7.7908 29.8404 8.23062 29.297C8.47764 28.9918 8.8065 28.8649 8.97914 28.802C9.05791 28.7732 9.14642 28.7442 9.22416 28.7187C9.24009 28.7134 9.25558 28.7084 9.27043 28.7035C9.36545 28.6721 9.46161 28.6397 9.56622 28.6004C9.96187 28.4517 10.5541 28.1773 11.3924 27.5021C12.1312 26.8411 12.5598 26.1957 12.8019 25.7C13.0266 25.24 13.0762 24.9414 13.0852 24.8869C13.0865 24.8788 13.087 24.8761 13.087 24.879V23.4706L14.3979 24.0105L14.4 24.0114L14.4128 24.0165C14.4251 24.0214 14.4449 24.0293 14.4719 24.0397C14.5258 24.0606 14.6084 24.0918 14.7169 24.1308C14.934 24.2088 15.2545 24.3178 15.6573 24.4373C16.4649 24.6767 17.5939 24.9554 18.8796 25.1143C20.1435 25.2704 21.3384 25.2321 22.2224 25.1526C22.6626 25.1131 23.021 25.0638 23.2667 25.0249C23.3894 25.0055 23.4836 24.9888 23.5454 24.9773C23.5764 24.9715 23.5991 24.967 23.6133 24.9642L23.6281 24.9612L23.6295 24.9609L23.6305 24.9607L24.7755 24.7182V35.1198H28.209C28.189 34.9727 28.1638 34.8172 28.1319 34.6595C28.0564 34.2866 27.9509 33.9379 27.813 33.6653C27.6716 33.3857 27.5397 33.271 27.4567 33.23C26.9768 32.9928 26.7381 32.5697 26.6269 32.2008C26.5185 31.8409 26.5027 31.4504 26.5212 31.0939C26.5585 30.3755 26.7512 29.5426 26.9682 28.792C27.1889 28.0286 27.4517 27.2934 27.6574 26.753C27.7607 26.4817 27.8505 26.257 27.9149 26.0993C27.9471 26.0204 27.9729 25.9582 27.991 25.9151L28.012 25.8652L28.0178 25.8516L28.02 25.8466C28.02 25.8464 28.0203 25.8459 28.8926 26.214L28.02 25.8466L28.1314 25.5869L28.3679 25.4311C28.3993 25.4103 28.431 25.3895 28.463 25.3685C29.4565 24.7157 30.6722 23.917 30.9952 21.895C31.3986 19.3697 31.0001 17.3278 30.6618 15.5947C30.6232 15.3967 30.5853 15.2026 30.5495 15.0124C29.8316 14.3305 29.4179 13.6457 29.1945 12.9792C28.9572 12.2709 28.9574 11.64 28.9575 11.2245L28.9575 11.195L30.8471 11.0848C30.9891 12.2779 31.4133 12.6959 31.7429 12.8913C32.0898 13.0971 32.4504 13.1497 32.9073 13.2163C33.0214 13.2329 33.1414 13.2504 33.2688 13.2714C33.365 13.2872 33.3893 13.289 33.4226 13.2913C33.4497 13.2933 33.4828 13.2956 33.5661 13.3064C33.6318 13.315 33.7717 13.3358 33.9266 13.4083C34.0952 13.4872 34.2121 13.5935 34.2905 13.6804C34.3566 13.7536 34.4104 13.8311 34.44 13.8737C34.4551 13.8955 34.4716 13.9197 34.4874 13.9429L34.4952 13.9542C34.5079 13.9729 34.5212 13.9923 34.5354 14.0129C34.5423 14.023 34.5495 14.0333 34.5569 14.044C34.6454 14.1714 34.7807 14.36 35.0026 14.6388C35.3425 15.066 35.7046 15.2131 36.0366 15.2356C36.396 15.26 36.8057 15.1415 37.1868 14.8885C37.5688 14.6349 37.8594 14.2867 38.0032 13.9469C38.1423 13.6179 38.1283 13.3494 38.0164 13.1376C38.0161 13.1369 38.0157 13.1362 38.0153 13.1355L35.1925 7.90396L35.2056 7.64339C35.2482 6.80108 35.2907 6.16187 35.3252 5.67687C35.3351 5.53658 35.3442 5.41155 35.3523 5.29962C35.36 5.19503 35.3667 5.10187 35.3726 5.01836C32.879 4.6835 31.0402 4.98759 29.6658 5.59913C28.1811 6.25973 27.1517 7.31754 26.4038 8.50222C25.6497 9.69672 25.1933 11.0021 24.858 12.1265C24.7863 12.3668 24.7125 12.6264 24.6421 12.8742C24.5622 13.1551 24.4867 13.4208 24.4235 13.6257C24.3582 13.8379 24.2883 14.0469 24.2112 14.2315ZM35.9928 5.11269C36.0047 5.11471 36.0011 5.11482 35.9865 5.11163C35.9886 5.11199 35.9907 5.11234 35.9928 5.11269ZM35.3976 4.48996C35.3971 4.47999 35.3966 4.4807 35.3976 4.48996C35.3976 4.48992 35.3976 4.48999 35.3976 4.48996ZM32.4899 15.06C32.4985 15.1035 32.5072 15.1474 32.5159 15.1918C32.8576 16.925 33.3278 19.3104 32.868 22.1892C32.4303 24.9286 30.7171 26.1422 29.6586 26.8387C29.6 26.9827 29.5212 27.1807 29.4313 27.4169C29.236 27.9299 28.9923 28.6132 28.7909 29.31C28.5858 30.0196 28.4408 30.6886 28.4148 31.1905C28.404 31.3982 28.4163 31.5359 28.4325 31.6169C28.9504 31.9166 29.2873 32.3865 29.5078 32.8223C29.7498 33.3007 29.8975 33.8281 29.9909 34.2896C30.0855 34.7571 30.1318 35.1949 30.1547 35.5129C30.1663 35.6731 30.1722 35.8058 30.1752 35.9001C30.1767 35.9473 30.1774 35.9851 30.1778 36.0121L30.1782 36.0445L30.1783 36.0544L30.1783 36.0577L30.1783 36.0589C30.1783 36.0592 30.1783 36.0599 29.2302 36.0599H30.1783V37H22.8795V26.9752C22.7294 26.9926 22.567 27.0096 22.3935 27.0252C21.4203 27.1126 20.0827 27.1577 18.6452 26.9801C17.2296 26.8052 15.9949 26.4998 15.1141 26.2386C14.9625 26.1937 14.8211 26.15 14.6908 26.1083C14.6379 26.241 14.5772 26.3786 14.5084 26.5195C14.1614 27.23 13.5815 28.0807 12.6421 28.9164L12.6255 28.9312L12.6082 28.9451C11.5985 29.7617 10.8221 30.1392 10.2379 30.3586C10.0969 30.4116 9.97193 30.4536 9.86885 30.4876C9.84706 30.4947 9.827 30.5013 9.8084 30.5075C9.7363 30.5312 9.68595 30.5477 9.64083 30.564C9.43071 30.8576 9.23761 31.2868 9.16638 31.7092C9.08469 32.1937 9.1908 32.4476 9.30158 32.5571C9.97427 33.222 10.1635 34.2267 10.2295 34.8573C10.266 35.2054 10.2718 35.5198 10.2688 35.7462C10.2673 35.8603 10.2635 35.9541 10.26 36.0212C10.2582 36.0548 10.2565 36.0819 10.2551 36.1017L10.2534 36.1257L10.2528 36.1334L10.2526 36.1362L10.2525 36.1373C10.2524 36.1375 10.2524 36.1382 9.30765 36.0599L10.2525 36.1373L10.1797 37H3.29455V29.4975C2.74864 29.5024 2.28256 29.5008 1.92218 29.4526C1.60816 29.4106 1.28043 29.326 0.972425 29.1356C0.658793 28.9417 0.436963 28.6823 0.264405 28.4012C-0.0253598 27.9292 -0.0198482 27.3545 0.0191132 26.9103C0.0620971 26.4202 0.178097 25.82 0.326542 25.1341C0.406443 24.7649 0.497625 24.3624 0.597201 23.9228C0.875718 22.6933 1.2199 21.1739 1.56653 19.2834C1.99513 16.9459 3.10188 15.5651 4.57973 14.9713C5.76662 14.4945 7.03401 14.5926 8.06861 14.8696C8.76985 14.3101 9.61428 13.881 10.5411 13.7665C13.7386 13.3715 16.8135 13.9854 18.78 14.378C18.8614 14.3942 18.941 14.4101 19.0185 14.4255C19.0273 14.4253 19.0367 14.4251 19.0468 14.4249C19.1275 14.4228 19.2465 14.4186 19.3933 14.4102C19.6886 14.3931 20.0886 14.3592 20.5134 14.2924C20.9423 14.225 21.3708 14.1279 21.7334 13.9935C22.0912 13.8609 22.3073 13.7201 22.4167 13.6042C22.4233 13.592 22.4379 13.5634 22.4594 13.5122C22.5018 13.4105 22.551 13.2686 22.6102 13.0763C22.6768 12.8603 22.7378 12.6444 22.8068 12.4001C22.8731 12.1657 22.9467 11.9051 23.0397 11.5932C23.3903 10.4179 23.9047 8.91754 24.7967 7.50455C25.6949 6.08174 26.987 4.73024 28.8896 3.88371C30.7909 3.03776 33.2152 2.73461 36.3122 3.25937L36.3168 3.26015C36.3703 3.26915 36.5407 3.29778 36.7155 3.39396C36.9448 3.52004 37.1056 3.71397 37.1958 3.93397C37.2695 4.11362 37.2854 4.28522 37.291 4.38975C37.2972 4.50471 37.2942 4.6289 37.2886 4.75086C37.2804 4.92848 37.2631 5.16585 37.2414 5.46421C37.2336 5.57123 37.2253 5.6861 37.2165 5.80887C37.1864 6.23373 37.15 6.77805 37.1128 7.47758L39.6924 12.2583C40.1259 13.0732 40.0594 13.9466 39.7516 14.6742C39.448 15.3921 38.8956 16.0168 38.2416 16.4509C37.5866 16.8857 36.7672 17.1698 35.9072 17.1114C35.0197 17.0512 34.1719 16.6301 33.5141 15.8035C33.2772 15.5058 33.1214 15.291 33.0123 15.1347C32.9948 15.1321 32.9768 15.1292 32.9581 15.1262C32.9027 15.117 32.8342 15.1078 32.7549 15.0972C32.6764 15.0866 32.5872 15.0747 32.4899 15.06ZM6.59 16.5234C6.13344 16.4998 5.68859 16.5545 5.29173 16.7139C4.56601 17.0055 3.77669 17.7399 3.43201 19.6198C3.07767 21.5523 2.72001 23.1311 2.44032 24.3658C2.34313 24.7948 2.25535 25.1823 2.1804 25.5286C2.03183 26.2151 1.9397 26.7124 1.90805 27.0732C1.88602 27.3245 1.90217 27.4318 1.9053 27.4569C1.92783 27.4906 1.94456 27.5106 1.95519 27.522C1.96744 27.5351 1.97355 27.5388 1.97568 27.5402C1.97917 27.5423 2.02139 27.5687 2.17577 27.5893C2.44134 27.6249 2.78062 27.6214 3.33653 27.6158C3.47178 27.6145 3.61985 27.613 3.78281 27.6119L5.82708 25.0525V19.0846C5.75191 18.2443 6.08418 17.3253 6.59 16.5234Z" fill="currentColor"/>
</svg>
