<svg width="40" height="40" viewBox="0 0 40 40" fill="none" xmlns="http://www.w3.org/2000/svg">
<path d="M26 3C26 3.55228 25.5523 4 25 4C24.4477 4 24 3.55228 24 3C24 2.44772 24.4477 2 25 2C25.5523 2 26 2.44772 26 3Z" fill="currentColor"/>
<path d="M31 11C31 11.5523 30.5523 12 30 12C29.4477 12 29 11.5523 29 11C29 10.4477 29.4477 10 30 10C30.5523 10 31 10.4477 31 11Z" fill="currentColor"/>
<path d="M23 13C23 13.5523 22.5523 14 22 14C21.4477 14 21 13.5523 21 13C21 12.4477 21.4477 12 22 12C22.5523 12 23 12.4477 23 13Z" fill="currentColor"/>
<path fill-rule="evenodd" clip-rule="evenodd" d="M7.74072 37.9657C8.27367 38.1086 8.82148 37.7921 8.96428 37.2586L9.48171 35.3257C9.62452 34.7922 9.30824 34.2439 8.77529 34.101C8.24234 33.958 7.69452 34.2746 7.55172 34.8081L7.03429 36.741C6.89148 37.2744 7.20777 37.8228 7.74072 37.9657ZM32.2584 37.9657C31.7254 38.1087 31.1776 37.7921 31.0348 37.2586L30.5174 35.3257C30.3746 34.7923 30.6909 34.2439 31.2238 34.101C31.7568 33.9581 32.3046 34.2746 32.4474 34.8081L32.9648 36.741C33.1076 37.2745 32.7914 37.8228 32.2584 37.9657Z" fill="currentColor"/>
<path fill-rule="evenodd" clip-rule="evenodd" d="M10.8539 8.58708C10.0286 7.04215 8.41938 6.07739 6.66782 6.07739C4.04671 6.07739 1.92188 8.20222 1.92188 10.8233V20.019H3.92188V10.8233C3.92188 9.30679 5.15128 8.07739 6.66782 8.07739C7.68125 8.07739 8.6123 8.63559 9.08982 9.52947L10.3361 11.8625L12.1002 10.9201L10.8539 8.58708Z" fill="currentColor"/>
<path fill-rule="evenodd" clip-rule="evenodd" d="M38 21H2V23H38V21ZM2 19C0.895431 19 0 19.8954 0 21V23C0 24.1046 0.895431 25 2 25H38C39.1046 25 40 24.1046 40 23V21C40 19.8954 39.1046 19 38 19H2Z" fill="currentColor"/>
<path fill-rule="evenodd" clip-rule="evenodd" d="M1 23L4.02763 30.8718C5.21591 33.9614 8.18422 36 11.4944 36H28.5056C31.8158 36 34.7841 33.9614 35.9724 30.8718L39 23H1ZM3.91206 25L5.89432 30.1539C6.78553 32.471 9.01176 34 11.4944 34H28.5056C30.9882 34 33.2145 32.471 34.1057 30.1539L36.0879 25H3.91206Z" fill="currentColor"/>
<path fill-rule="evenodd" clip-rule="evenodd" d="M12.9993 19.0001L16.4993 19.0001L12.9993 15.6667L12.9993 19.0001ZM10.9993 20.0001C10.9993 20.5524 11.447 21.0001 11.9993 21.0001L18.9993 21.0001C19.902 21.0001 20.3426 19.8985 19.6889 19.276L12.689 12.6093C12.0524 12.0029 10.9994 12.4542 10.9994 13.3334L10.9993 20.0001Z" fill="currentColor"/>
<path fill-rule="evenodd" clip-rule="evenodd" d="M22.4141 21L23.0642 18.4972C23.6893 16.0906 25.9755 14.5 28.4783 14.5C28.8049 14.5 29.1262 14.5266 29.4396 14.5779C30.4721 13.5839 31.9014 13 33.4263 13C36.3216 13 39.0003 15.1759 39.0003 18.25C39.0003 18.68 38.945 19.1 38.8404 19.5028L38.4515 21H22.4141ZM30.1789 16.8908C29.6732 16.6415 29.0939 16.5 28.4783 16.5C27.7778 16.5 27.1243 16.6833 26.5727 17C25.7937 17.4473 25.218 18.1608 25 19H36.9046C36.9672 18.7592 37.0003 18.5081 37.0003 18.25C37.0003 17.9919 36.9672 17.7408 36.9046 17.5C36.8599 17.3276 36.8 17.1606 36.7264 17C36.1878 15.8255 34.913 15 33.4263 15C31.9861 15 30.7448 15.7747 30.1789 16.8908Z" fill="currentColor"/>
</svg>
