<svg width="40" height="40" viewBox="0 0 40 40" fill="none" xmlns="http://www.w3.org/2000/svg">
<g clip-path="url(#clip0_657_320)">
<path fill-rule="evenodd" clip-rule="evenodd" d="M32.9414 14.5461C32.639 17.2438 31.1889 19.7347 29.0957 21.6453C26.7191 23.8146 23.692 25.0714 21 25.0714C18.308 25.0714 15.2809 23.8146 12.9043 21.6453C10.543 19.49 9 16.5962 9 13.5C9 10.3956 9.53389 7.84004 10.7871 5.954C11.0416 5.98453 11.2986 6 11.5568 6H12.5382C16.7823 6 20.2254 9.47277 20.2467 13.7649L20.2466 13.8051V14H20.2236C19.525 14 19.0472 14.7143 19.3065 15.3712L20.4141 18.1769C20.7451 19.0153 21.9173 19.0153 22.2483 18.1768L23.3559 15.3711C23.6152 14.7143 23.1374 14 22.4388 14H22.2221V13.8051L22.222 13.7649C22.2434 9.47277 25.6864 6 29.9306 6H30.912C30.9778 6 31.0435 5.99899 31.1091 5.99699C32.4067 7.89459 33 10.4477 33 13.5C33 13.8089 32.9846 14.1159 32.9546 14.4202L32.9237 14.4437L32.9231 14.441C32.924 14.4452 32.926 14.4553 32.9289 14.4713C32.9322 14.489 32.9365 14.514 32.9414 14.5461ZM21.2344 9.48593C22.7086 6.44862 25.6894 4.29635 29.1898 4.02826C27.4415 2.76576 24.8532 1.92857 21 1.92857C16.9942 1.92857 14.3889 2.76244 12.669 4.00088C16.4309 4.05133 19.6752 6.27366 21.2344 9.48593ZM10.0278 3.73317C12.1566 1.42028 15.6107 0 21 0C26.2982 0 29.7812 1.48031 31.948 3.87944C32.5051 3.74803 33.036 3.51108 33.5115 3.17781C33.96 2.86344 34.5752 2.9767 34.8857 3.43079C35.1962 3.88487 35.0843 4.50782 34.6358 4.82219C34.1846 5.13852 33.6984 5.39427 33.1896 5.58561C34.4821 7.80926 35 10.5437 35 13.5C35 13.6588 34.9966 13.8169 34.99 13.9744C34.9944 13.9757 34.9979 13.9834 35 14C35.018 14.1409 35.0117 14.4689 35.0054 14.794V14.7941V14.7943V14.7946V14.7948L35.0054 14.7952C35.0016 14.9912 34.9978 15.186 34.9994 15.3381C35.0081 16.1481 34.9213 17.2969 34.5564 18.719C33.8249 21.57 31.9881 25.4727 27.6457 29.9218C25.5466 32.0724 23.3297 33.7646 21.1736 35.0945C22.3611 35.0914 23.7958 35.0533 25.3615 34.94C27.0436 34.8184 28.8557 34.6114 30.6636 34.2754C30.7241 34.2164 30.7931 34.1643 30.87 34.1211C31.9131 33.5348 33.8214 31.421 34.4952 30.3595C34.8234 29.8424 35.0787 29.3653 35.2515 29.0184C35.3377 28.8454 35.4027 28.706 35.4453 28.6118C35.4666 28.5647 35.4823 28.529 35.4923 28.5061L35.5028 28.4816L35.5046 28.4775C35.7167 27.9689 36.296 27.7302 36.7985 27.9448C37.301 28.1595 37.5365 28.7461 37.3245 29.2549L37.3235 29.2572L37.322 29.2609L37.3172 29.2722L37.3008 29.3104C37.2868 29.3426 37.2668 29.3881 37.2409 29.4453C37.1891 29.5597 37.1135 29.7216 37.0152 29.9189C36.8192 30.3126 36.5303 30.8525 36.1569 31.4408C35.8648 31.901 35.3491 32.5699 34.741 33.2598C36.0901 32.8224 37.3739 32.2856 38.5278 31.6284C39.0032 31.3577 39.6054 31.5284 39.8728 32.0097C40.1403 32.4911 39.9717 33.1008 39.4962 33.3716C35.3491 35.7335 29.8597 36.6198 25.5023 36.935C23.3064 37.0938 21.363 37.1096 19.9678 37.0858C19.2697 37.0739 18.7076 37.052 18.3184 37.033C18.1238 37.0235 17.9722 37.0147 17.8684 37.0082C17.8165 37.005 17.7766 37.0023 17.7491 37.0004L17.7173 36.9982L17.7086 36.9976L17.706 36.9974C17.7059 36.9974 17.7058 36.9973 17.7074 36.973L17.7064 36.9735L17.7047 36.9973C17.6911 36.9962 17.6776 36.9949 17.6642 36.9934C16.6015 37.4935 15.5826 37.9091 14.6331 38.2541C12.744 38.9405 11.1241 39.3492 9.97082 39.5869C9.39393 39.7058 8.93303 39.7821 8.61266 39.829C8.45244 39.8525 8.32729 39.8686 8.24025 39.8791C8.19673 39.8843 8.16274 39.8881 8.13865 39.8907L8.10998 39.8937L8.10131 39.8946L8.0984 39.8949L8.09731 39.895L8 38.9121C8.09645 39.8951 8.09731 39.895 8.09731 39.895L7 40V37.0408C6.94015 37.045 6.87585 37.0492 6.80745 37.0531C6.37269 37.078 5.76648 37.0946 5.07659 37.0614C3.72881 36.9964 1.92575 36.736 0.479656 35.8575C0.0119259 35.5733 -0.139742 34.9591 0.140896 34.4855C0.421534 34.0119 1.02821 33.8584 1.49594 34.1425C2.51895 34.764 3.92574 35.0036 5.17054 35.0636C5.77693 35.0929 6.31269 35.0782 6.69582 35.0563C6.81275 35.0496 6.91494 35.0422 7 35.0353V14.2225H7.02321C7.00783 13.9832 7 13.7424 7 13.5C7 10.4548 7.48082 7.64513 8.80715 5.38655C8.46859 5.22778 8.14252 5.03925 7.83287 4.82219C7.38439 4.50782 7.27253 3.88487 7.58301 3.43079C7.89349 2.9767 8.50875 2.86344 8.95722 3.17781C9.29024 3.41124 9.65046 3.59741 10.0278 3.73317ZM30.6227 22.9052C27.9276 25.4308 24.3569 27 21 27C20.5003 27 19.9958 26.9652 19.4901 26.8977C18.4909 31.0496 16.1157 34.0869 13.9399 36.1113C13.7617 36.2771 13.5846 36.4364 13.4094 36.5891C13.5843 36.5289 13.7621 36.466 13.9425 36.4004C17.5126 35.1033 22.1025 32.755 26.2057 28.551C28.2031 26.5046 29.62 24.6039 30.6227 22.9052ZM17.5565 26.4834C14.1902 25.4934 10.9782 23.1503 9 20.0612V37.3096C9.19113 37.2006 9.42727 37.0602 9.69818 36.8877C10.4689 36.3973 11.5143 35.6519 12.6033 34.6387C14.582 32.7977 16.668 30.1081 17.5565 26.4834ZM14.7275 13C15.6259 13 16.3542 12.2626 16.3542 11.3529C16.3542 10.4433 15.6259 9.70587 14.7275 9.70587C13.829 9.70587 13.1007 10.4433 13.1007 11.3529C13.1007 12.2626 13.829 13 14.7275 13ZM29.3677 11.3529C29.3677 12.2626 28.6394 13 27.7409 13C26.8425 13 26.1142 12.2626 26.1142 11.3529C26.1142 10.4433 26.8425 9.70587 27.7409 9.70587C28.6394 9.70587 29.3677 10.4433 29.3677 11.3529Z" fill="currentColor"/>
</g>
<defs>
<clipPath id="clip0_657_320">
<rect width="40" height="40" fill="white"/>
</clipPath>
</defs>
</svg>
