<svg width="40" height="40" viewBox="0 0 40 40" fill="none" xmlns="http://www.w3.org/2000/svg">
<path fill-rule="evenodd" clip-rule="evenodd" d="M22.01 24.9503C22.6633 24.827 23.2875 24.5089 23.7923 23.996C24.8053 22.9668 25.0565 21.4116 24.2748 20.1865C22.9665 18.1362 20.456 14.6796 16.1015 10.2552C12.9046 7.00697 10.221 4.76868 8.22168 3.28215C6.44923 1.96432 2.09054 2.21331 0.661387 4.61542C-0.245605 6.13989 -0.253673 8.05325 0.848425 9.53518C2.34836 11.5521 4.7406 14.4727 8.32388 18.1134C12.908 22.7711 16.3321 25.4482 18.2179 26.7802C19.1778 27.4583 20.4419 27.2868 21.2686 26.4468C21.6835 26.0253 21.9306 25.498 22.01 24.9503ZM2.15538 6.91422L18.9597 23.9881C19.2348 24.2676 19.5449 24.4897 19.8757 24.6545C19.8579 24.7444 19.8147 24.8302 19.7461 24.8999C19.6694 24.9777 19.5938 25.0039 19.5469 25.0094C19.5074 25.014 19.4798 25.0071 19.447 24.9839C17.669 23.728 14.3427 21.1348 9.84644 16.5665C6.33167 12.9953 4.00498 10.1507 2.56635 8.21625C2.28791 7.84185 2.14537 7.38635 2.15538 6.91422ZM21.4021 22.8174C21.3597 22.7675 21.3152 22.7189 21.2686 22.6715L3.66611 4.78662C4.7927 4.25077 6.01945 4.35593 6.95171 5.04908C8.85983 6.46778 11.4591 8.63229 14.5789 11.8021C18.8281 16.1195 21.2422 19.4561 22.4663 21.3745C22.6264 21.6254 22.6509 22.0518 22.2649 22.444C22.0262 22.6865 21.7153 22.8109 21.4021 22.8174Z" fill="currentColor"/>
<path fill-rule="evenodd" clip-rule="evenodd" d="M22.3663 25.904C24.4055 24.4583 27.2324 24.6599 29.0519 26.5086L29.9218 27.3925L26.8765 30.4866L22.3663 25.904ZM28.3991 32.0336L31.4444 28.9395L32.2058 29.7131L29.1605 32.8072L28.3991 32.0336ZM30.6831 34.3542L33.2035 36.9151C34.3808 38.1112 36.2896 38.1112 37.4669 36.9151C37.9714 36.4024 37.9714 35.5712 37.4669 35.0586L33.7283 31.2601L30.6831 34.3542ZM20.1338 24.9617C23.0169 22.0323 27.6914 22.0323 30.5745 24.9617L38.9894 33.5116C40.3349 34.8786 40.3349 37.095 38.9894 38.4621C36.9712 40.5126 33.6991 40.5126 31.681 38.4621L20.1338 26.7297C19.6533 26.2415 19.6533 25.4499 20.1338 24.9617Z" fill="currentColor"/>
<path fill-rule="evenodd" clip-rule="evenodd" d="M4.79971 3.41435C4.37926 3.84154 4.37926 4.53414 4.79971 4.96133C5.22015 5.38851 5.90182 5.38851 6.32226 4.96133L9.36737 1.86737C9.78781 1.44018 9.78781 0.747579 9.36737 0.320391C8.94693 -0.106797 8.26526 -0.106797 7.84482 0.320391L4.79971 3.41435ZM20.7864 19.6576C20.366 20.0848 20.366 20.7774 20.7864 21.2046C21.2068 21.6318 21.8885 21.6318 22.309 21.2046L25.3541 18.1107C25.7745 17.6835 25.7745 16.9909 25.3541 16.5637C24.9336 16.1365 24.252 16.1365 23.8315 16.5637L20.7864 19.6576ZM19.264 18.1106C18.8436 17.6835 18.8436 16.9909 19.264 16.5637L22.3091 13.4697C22.7296 13.0425 23.4112 13.0425 23.8317 13.4697C24.2521 13.8969 24.2521 14.5895 23.8317 15.0167L20.7866 18.1106C20.3661 18.5378 19.6845 18.5378 19.264 18.1106ZM16.9799 14.2432C16.5595 14.6704 16.5595 15.363 16.9799 15.7902C17.4003 16.2174 18.082 16.2174 18.5025 15.7902L22.3088 11.9227C22.7293 11.4955 22.7293 10.8029 22.3088 10.3758C21.8884 9.94857 21.2067 9.94857 20.7863 10.3758L16.9799 14.2432ZM14.6963 13.4697C14.2759 13.0425 14.2759 12.3499 14.6963 11.9227L19.264 7.2818C19.6844 6.85461 20.3661 6.85461 20.7865 7.2818C21.207 7.70898 21.207 8.40159 20.7865 8.82878L16.2189 13.4697C15.7984 13.8969 15.1167 13.8969 14.6963 13.4697ZM12.4127 9.60226C11.9923 10.0295 11.9923 10.7221 12.4127 11.1492C12.8332 11.5764 13.5148 11.5764 13.9353 11.1492L18.5029 6.50831C18.9234 6.08112 18.9234 5.38851 18.5029 4.96133C18.0825 4.53414 17.4008 4.53414 16.9804 4.96133L12.4127 9.60226ZM10.1286 8.82878C9.70816 8.40159 9.70816 7.70898 10.1286 7.2818L13.935 3.41435C14.3554 2.98716 15.0371 2.98716 15.4575 3.41435C15.878 3.84154 15.878 4.53414 15.4575 4.96133L11.6512 8.82878C11.2307 9.25596 10.549 9.25596 10.1286 8.82878ZM7.84502 4.96133C7.42457 5.38851 7.42457 6.08112 7.84502 6.50831C8.26546 6.93549 8.94713 6.93549 9.36757 6.50831L12.4127 3.41435C12.8331 2.98716 12.8331 2.29456 12.4127 1.86737C11.9922 1.44018 11.3106 1.44018 10.8901 1.86737L7.84502 4.96133Z" fill="currentColor"/>
</svg>
