<svg width="40" height="40" viewBox="0 0 40 40" fill="none" xmlns="http://www.w3.org/2000/svg">
<g clip-path="url(#clip0_1159_14)">
<path d="M7.73649 20H32.2635C32.3602 20 32.456 20.0189 32.5454 20.0556C32.6347 20.0924 32.7159 20.1462 32.7843 20.214C32.8527 20.2819 32.9069 20.3625 32.9439 20.4511C32.981 20.5398 33 20.6348 33 20.7308V31.5385C33 32.4565 32.6325 33.337 31.9782 33.9861C31.324 34.6353 30.4366 35 29.5114 35H10.4886C9.56339 35 8.67604 34.6353 8.0218 33.9861C7.36755 33.337 7 32.4565 7 31.5385V20.7308C7 20.6348 7.01905 20.5398 7.05606 20.4511C7.09307 20.3625 7.14732 20.2819 7.21571 20.214C7.2841 20.1462 7.36529 20.0924 7.45465 20.0556C7.544 20.0189 7.63977 20 7.73649 20V20Z" stroke="currentColor" stroke-width="2.00029" stroke-miterlimit="10"/>
<path d="M33 25.453L35.0756 24.4571C35.5892 24.0999 36.2369 23.9424 36.8775 24.0189C37.518 24.0954 38.0994 24.3997 38.4948 24.8654V24.8654C38.6921 25.1 38.8363 25.368 38.9191 25.6539C39.0018 25.9398 39.0213 26.2378 38.9766 26.5306C38.9319 26.8234 38.8238 27.1052 38.6585 27.3596C38.4933 27.614 38.2742 27.8359 38.0141 28.0124L33.0109 31" stroke="currentColor" stroke-width="2.00009" stroke-miterlimit="10"/>
<path d="M7.00028 25.4531L4.92463 24.4571C4.41097 24.0999 3.76321 23.9424 3.12264 24.0189C2.48207 24.0954 1.90068 24.3997 1.50527 24.8655V24.8655C1.30791 25.1001 1.16368 25.3681 1.08095 25.654C0.998226 25.9399 0.978657 26.2379 1.02338 26.5307C1.06811 26.8235 1.17624 27.1053 1.34148 27.3597C1.50673 27.6141 1.72579 27.836 1.98595 28.0126L6.98935 31.0003" stroke="currentColor" stroke-width="2.00009" stroke-miterlimit="10"/>
<path d="M9 39H31" stroke="currentColor" stroke-width="2.08307" stroke-miterlimit="10" stroke-linecap="round"/>
<path d="M19.8057 17C19.5332 16.6571 19.3221 16.2558 19.1844 15.8188C19.0466 15.3819 18.985 14.918 19.0031 14.4536C19.0211 13.9893 19.1184 13.5335 19.2895 13.1125C19.4606 12.6915 19.702 12.3135 20 12" stroke="currentColor" stroke-width="2.11111" stroke-miterlimit="10" stroke-linecap="round"/>
<path d="M24.8057 17C24.5332 16.6571 24.3221 16.2558 24.1844 15.8188C24.0466 15.3819 23.985 14.918 24.0031 14.4536C24.0211 13.9893 24.1184 13.5335 24.2895 13.1125C24.4606 12.6915 24.702 12.3135 25 12" stroke="currentColor" stroke-width="2.11111" stroke-miterlimit="10" stroke-linecap="round"/>
<path d="M14.8057 17C14.5332 16.6571 14.3221 16.2558 14.1844 15.8188C14.0466 15.3819 13.985 14.918 14.0031 14.4536C14.0211 13.9893 14.1184 13.5335 14.2895 13.1125C14.4606 12.6915 14.702 12.3135 15 12" stroke="currentColor" stroke-width="2.11111" stroke-miterlimit="10" stroke-linecap="round"/>
<path d="M19.7991 7C19.5282 6.65658 19.3184 6.25476 19.1819 5.81753C19.0453 5.38029 18.9846 4.91621 19.0033 4.45183C19.022 3.98745 19.1196 3.53188 19.2906 3.11118C19.4616 2.69047 19.7027 2.31288 20 2" stroke="currentColor" stroke-width="2.11111" stroke-miterlimit="10" stroke-linecap="round"/>
<path d="M8.79909 17C8.52815 16.6566 8.31841 16.2548 8.18186 15.8175C8.04532 15.3803 7.98464 14.9162 8.0033 14.4518C8.02196 13.9875 8.11959 13.5319 8.29061 13.1112C8.46164 12.6905 8.70269 12.3129 9 12" stroke="currentColor" stroke-width="2.11111" stroke-miterlimit="10" stroke-linecap="round"/>
<path d="M30.7991 17C30.5282 16.6566 30.3184 16.2548 30.1819 15.8175C30.0453 15.3803 29.9846 14.9162 30.0033 14.4518C30.022 13.9875 30.1196 13.5319 30.2906 13.1112C30.4616 12.6905 30.7027 12.3129 31 12" stroke="currentColor" stroke-width="2.11111" stroke-miterlimit="10" stroke-linecap="round"/>
<path d="M19.9889 11.8599C19.6752 11.5417 19.4216 11.1614 19.2425 10.7406C19.0634 10.3198 18.9623 9.86679 18.945 9.40751C18.9277 8.94824 18.9945 8.4917 19.1417 8.06398C19.2889 7.63627 19.5135 7.24578 19.8027 6.91483" stroke="currentColor" stroke-width="2.11111" stroke-miterlimit="10" stroke-linecap="round"/>
<path d="M25.2694 11.8591C24.9553 11.5413 24.7011 11.1613 24.5214 10.7407C24.3417 10.3201 24.2399 9.86724 24.2219 9.408C24.204 8.94875 24.2701 8.49212 24.4167 8.06422C24.5632 7.63631 24.7873 7.24553 25.076 6.91422" stroke="currentColor" stroke-width="2.11111" stroke-miterlimit="10" stroke-linecap="round"/>
<path d="M14.706 11.8606C14.393 11.5419 14.1401 11.1611 13.9618 10.7399C13.7835 10.3188 13.6832 9.86568 13.6668 9.40638C13.6504 8.94708 13.7182 8.49065 13.8662 8.06318C14.0142 7.63572 14.2395 7.24561 14.5294 6.91515" stroke="currentColor" stroke-width="2.11111" stroke-miterlimit="10" stroke-linecap="round"/>
</g>
<defs>
<clipPath id="clip0_1159_14">
<rect width="40" height="40" fill="white"/>
</clipPath>
</defs>
</svg>
