<svg width="40" height="40" viewBox="0 0 40 40" fill="none" xmlns="http://www.w3.org/2000/svg">
<path d="M1 19.71H11.48L13.18 18.58L15 20.47L19.57 16.24L21.59 22.7L27.08 18.58L28.8 19.71H39" stroke="currentColor" stroke-width="2" stroke-miterlimit="10" stroke-linecap="round"/>
<path d="M18.7602 10.35C18.0381 9.21427 17.0384 8.28132 15.8557 7.63919C14.6729 6.99707 13.346 6.66694 12.0002 6.67996C9.89063 6.73761 7.88927 7.62649 6.43207 9.153C4.97486 10.6795 4.17986 12.72 4.22021 14.83C4.26017 15.9768 4.5492 17.1013 5.06724 18.1253C5.58529 19.1493 6.31994 20.0483 7.22021 20.76C11.781 24.6292 16.0524 28.8271 20.0002 33.32C23.8824 28.728 28.1991 24.5218 32.8902 20.76V20.76C33.7813 20.0435 34.5065 19.1423 35.0158 18.1186C35.525 17.0949 35.8063 15.9729 35.8402 14.83C35.8806 12.72 35.0856 10.6795 33.6284 9.153C32.1712 7.62649 30.1698 6.73761 28.0602 6.67996C26.706 6.65837 25.3689 6.98442 24.1766 7.62694C22.9844 8.26946 21.9768 9.207 21.2502 10.35C21.1146 10.5563 20.9298 10.7256 20.7125 10.8428C20.4952 10.96 20.2521 11.0214 20.0052 11.0214C19.7583 11.0214 19.5153 10.96 19.298 10.8428C19.0806 10.7256 18.8959 10.5563 18.7602 10.35V10.35Z" stroke="currentColor" stroke-width="2" stroke-linecap="round" stroke-linejoin="round"/>
</svg>
