<svg width="40" height="40" viewBox="0 0 40 40" fill="none" xmlns="http://www.w3.org/2000/svg">
<path d="M9.09813 13.6501L11.8381 37.3301H29.1281L31.8581 13.6501C31.357 13.1477 30.7023 12.8274 29.9981 12.7401C29.2503 12.8355 28.5236 13.0552 27.8481 13.3901C27.7094 13.4419 27.5585 13.4515 27.4144 13.4177C27.2702 13.3839 27.1393 13.3082 27.0381 13.2001C26.8169 13.0217 26.5624 12.8891 26.2894 12.8101C26.0164 12.7312 25.7304 12.7073 25.4481 12.7401C24.6455 12.7261 23.8541 12.93 23.1581 13.3301C23.0438 13.4101 22.9077 13.453 22.7681 13.453C22.6286 13.453 22.4924 13.4101 22.3781 13.3301C21.8769 12.9481 21.2578 12.7536 20.6281 12.7801C19.9206 12.7845 19.2282 12.9853 18.6281 13.3601C18.5196 13.4405 18.3882 13.4838 18.2531 13.4838C18.1181 13.4838 17.9866 13.4405 17.8781 13.3601C17.3901 12.9758 16.7782 12.7837 16.1581 12.8201C15.4318 12.8145 14.7183 13.012 14.0981 13.3901C13.971 13.4756 13.8213 13.5213 13.6681 13.5213C13.5149 13.5213 13.3652 13.4756 13.2381 13.3901C12.7086 13.0168 12.076 12.8175 11.4281 12.8201C10.5599 12.8258 9.72381 13.1496 9.07812 13.7301" stroke="currentColor" stroke-width="2" stroke-linecap="round" stroke-linejoin="round"/>
<path d="M10.9202 8.18994C10.3538 8.19099 9.8018 8.36819 9.3406 8.69697C8.8794 9.02575 8.53188 9.48983 8.34619 10.0249C8.16051 10.56 8.14584 11.1396 8.30424 11.6834C8.46264 12.2272 8.78625 12.7083 9.23024 13.0599" stroke="currentColor" stroke-width="2" stroke-linecap="round" stroke-linejoin="round"/>
<path d="M20.9398 1.93011C20.6321 1.85552 20.3165 1.81858 19.9998 1.82011C19.354 1.82065 18.7201 1.99443 18.1643 2.32334C17.6085 2.65225 17.1511 3.12425 16.8398 3.69011C16.68 3.68028 16.5197 3.68028 16.3598 3.69011C15.5523 3.69166 14.7682 3.96171 14.131 4.45774C13.4937 4.95378 13.0395 5.64764 12.8398 6.43011" stroke="currentColor" stroke-width="2" stroke-linecap="round" stroke-linejoin="round"/>
<path d="M27.2906 6.63995C27.2906 6.54995 27.2906 6.45995 27.2906 6.36995C27.2971 5.89745 27.1798 5.43149 26.9506 5.01829C26.7213 4.60509 26.388 4.25902 25.9837 4.01442C25.5794 3.76981 25.1181 3.63517 24.6457 3.62387C24.1733 3.61256 23.7062 3.72497 23.2906 3.94995C23.0601 3.46212 22.7259 3.03044 22.3114 2.68501C21.8969 2.33959 21.412 2.08874 20.8906 1.94995" stroke="currentColor" stroke-width="2" stroke-linecap="round" stroke-linejoin="round"/>
<path d="M31.87 13C32.2972 12.63 32.5994 12.137 32.7355 11.5885C32.8715 11.04 32.8346 10.4628 32.6298 9.93612C32.425 9.4094 32.0624 8.95889 31.5916 8.6463C31.1208 8.33371 30.5649 8.17434 30 8.19002" stroke="currentColor" stroke-width="2" stroke-linecap="round" stroke-linejoin="round"/>
<path d="M14.7108 10.6799C14.5308 8.88993 15.6208 7.42993 17.1508 7.42993" stroke="currentColor" stroke-width="2" stroke-miterlimit="10" stroke-linecap="round"/>
<path d="M21.85 8.19012C21.85 7.94857 21.802 7.70943 21.7086 7.48664C21.6153 7.26385 21.4786 7.06186 21.3064 6.89246C21.1342 6.72306 20.93 6.58963 20.7057 6.49995C20.4814 6.41027 20.2415 6.36614 20 6.37012" stroke="currentColor" stroke-width="2" stroke-miterlimit="10" stroke-linecap="round"/>
<path d="M24.5804 10.92C24.5387 10.6716 24.5569 10.4168 24.6336 10.177C24.7103 9.93707 24.8433 9.71898 25.0214 9.5409C25.1995 9.36281 25.4175 9.22987 25.6574 9.15317C25.8973 9.07647 26.1521 9.05823 26.4004 9.09997" stroke="currentColor" stroke-width="2" stroke-miterlimit="10" stroke-linecap="round"/>
<path d="M11.8203 33.3799H19.4003" stroke="currentColor" stroke-width="2" stroke-linecap="round" stroke-linejoin="round"/>
<path d="M22.6484 33.3799H29.4284" stroke="currentColor" stroke-width="2" stroke-linecap="round" stroke-linejoin="round"/>
<path d="M11.8203 29.3799H29.1203" stroke="currentColor" stroke-width="2" stroke-linecap="round" stroke-linejoin="round"/>
<path d="M10.9883 21.3799H29.9883" stroke="currentColor" stroke-width="2" stroke-linecap="round" stroke-linejoin="round"/>
<path d="M9.98828 17.3799H24.0083" stroke="currentColor" stroke-width="2" stroke-linecap="round" stroke-linejoin="round"/>
<path d="M27.6211 17.3799H31.4111" stroke="currentColor" stroke-width="2" stroke-linecap="round" stroke-linejoin="round"/>
<path d="M2.66891 22.6399C2.7772 22.6402 2.8838 22.6667 2.97959 22.7172C3.07538 22.7677 3.15749 22.8407 3.21891 22.9299C3.40255 23.1981 3.64877 23.4174 3.93627 23.569C4.22378 23.7206 4.54389 23.7999 4.86891 23.7999C5.03406 23.7997 5.19859 23.7796 5.35891 23.7399C5.41197 23.7322 5.46585 23.7322 5.51891 23.7399C5.65467 23.7716 5.77715 23.8449 5.86929 23.9495C5.96143 24.0541 6.01864 24.1849 6.03295 24.3236C6.04726 24.4622 6.01795 24.6019 5.94911 24.7232C5.88027 24.8444 5.77533 24.9411 5.64891 24.9999C5.2372 25.067 4.85679 25.2612 4.56093 25.5553C4.26507 25.8494 4.06856 26.2286 3.99891 26.6399C3.97 26.8055 3.8799 26.9542 3.74649 27.0564C3.61308 27.1587 3.4461 27.2071 3.27869 27.192C3.11127 27.1768 2.95565 27.0994 2.8427 26.9749C2.72974 26.8504 2.66771 26.688 2.66891 26.5199C2.67456 26.4186 2.70184 26.3197 2.74891 26.2299C2.94169 25.8257 2.99326 25.3685 2.89535 24.9316C2.79744 24.4946 2.55572 24.1032 2.20891 23.8199C2.13866 23.7555 2.08343 23.6764 2.04714 23.5883C2.01084 23.5001 1.99438 23.4051 1.99891 23.3099C1.99891 23.2219 2.01624 23.1348 2.04991 23.0535C2.08358 22.9722 2.13293 22.8983 2.19515 22.8361C2.25736 22.7739 2.33122 22.7246 2.41251 22.6909C2.4938 22.6572 2.58092 22.6399 2.66891 22.6399ZM2.66891 20.6399C2.12145 20.6457 1.58902 20.8197 1.14376 21.1383C0.698499 21.4568 0.36193 21.9046 0.179658 22.4208C-0.00261369 22.9371 -0.0217763 23.4969 0.124767 24.0244C0.27131 24.5519 0.576474 25.0216 0.99891 25.3699C0.821868 25.7274 0.729484 26.1209 0.728911 26.5199C0.757079 27.1654 1.01838 27.7788 1.46435 28.2464C1.91032 28.7139 2.51071 29.0039 3.15419 29.0625C3.79766 29.1211 4.44056 28.9444 4.96366 28.5651C5.48676 28.1858 5.85458 27.6297 5.99891 26.9999C6.64795 26.8726 7.22665 26.509 7.62291 25.9794C8.01917 25.4499 8.20478 24.7921 8.14377 24.1335C8.08277 23.4749 7.7795 22.8624 7.29272 22.4147C6.80593 21.9669 6.17028 21.7158 5.50891 21.7099C5.28949 21.7146 5.07135 21.7448 4.85891 21.7999C4.61386 21.4425 4.28551 21.1502 3.90222 20.9481C3.51893 20.746 3.09222 20.6402 2.65891 20.6399H2.66891Z" fill="currentColor"/>
<path d="M36.849 31.83C36.967 31.8306 37.0829 31.8623 37.1847 31.922C37.2866 31.9817 37.3708 32.0673 37.429 32.17C37.4815 32.2667 37.509 32.375 37.509 32.485C37.509 32.5951 37.4815 32.7034 37.429 32.8C37.2528 33.1671 37.1929 33.5793 37.2572 33.9813C37.3216 34.3834 37.5071 34.7562 37.789 35.05C37.8246 35.0915 37.858 35.1349 37.889 35.18C37.9758 35.334 37.9982 35.5161 37.9514 35.6865C37.9046 35.857 37.7923 36.002 37.639 36.09C37.5394 36.1499 37.4252 36.1811 37.309 36.18C37.2116 36.1795 37.1156 36.1577 37.0275 36.1163C36.9394 36.0748 36.8614 36.0147 36.799 35.94C36.6111 35.7174 36.3768 35.5385 36.1125 35.4159C35.8482 35.2932 35.5603 35.2298 35.269 35.23C35.0442 35.2276 34.8208 35.2648 34.609 35.34C34.536 35.3504 34.4619 35.3504 34.389 35.34C34.2709 35.3395 34.1551 35.3078 34.0532 35.2481C33.9514 35.1884 33.8671 35.1028 33.809 35C33.7217 34.8445 33.699 34.661 33.7458 34.4889C33.7925 34.3168 33.905 34.17 34.059 34.08C34.1485 34.0335 34.2481 34.0094 34.349 34.01C34.7959 33.9783 35.2191 33.7974 35.551 33.4964C35.8828 33.1954 36.1039 32.7917 36.179 32.35C36.1939 32.2528 36.2304 32.1601 36.2858 32.0788C36.3411 31.9975 36.414 31.9296 36.499 31.88C36.5986 31.8202 36.7128 31.789 36.829 31.79L36.849 31.83ZM36.829 29.79C36.1998 29.7888 35.5907 30.0115 35.1107 30.4182C34.6307 30.825 34.3111 31.3892 34.209 32.01C33.8096 32.0364 33.4207 32.149 33.069 32.34C32.56 32.6344 32.1619 33.0879 31.936 33.6308C31.7102 34.1736 31.6692 34.7757 31.8192 35.3442C31.9693 35.9127 32.3022 36.4161 32.7666 36.7767C33.2309 37.1374 33.801 37.3353 34.389 37.34C34.6886 37.339 34.986 37.2883 35.269 37.19C35.5102 37.4914 35.814 37.7369 36.1593 37.9095C36.5045 38.0821 36.8831 38.1778 37.269 38.19C37.7321 38.1912 38.1873 38.0705 38.589 37.84C39.2041 37.4898 39.655 36.9096 39.8425 36.2271C40.0301 35.5445 39.9389 34.8154 39.589 34.2C39.4809 34.0086 39.3463 33.8336 39.189 33.68C39.3874 33.273 39.4791 32.8222 39.4553 32.3699C39.4315 31.9177 39.2931 31.479 39.0531 31.0949C38.8131 30.7109 38.4794 30.3943 38.0833 30.1747C37.6872 29.9552 37.2418 29.84 36.789 29.84L36.829 29.79Z" fill="currentColor"/>
</svg>
