<svg width="40" height="40" viewBox="0 0 40 40" fill="none" xmlns="http://www.w3.org/2000/svg">
<g clip-path="url(#clip0_752_180)">
<path d="M1 8C1 4.13401 4.13401 1 8 1H12.5H18.75H25H32C35.866 1 39 4.13401 39 8V32C39 35.866 35.866 39 32 39H8C4.13401 39 1 35.866 1 32V8Z" stroke="currentColor" stroke-width="2"/>
<path d="M8.14062 18H16.2734V16.1016H11.3047V15.9219L13.3906 13.9766C15.4453 12.0781 16.1094 11.0156 16.1094 9.73438V9.71094C16.1094 7.76562 14.4844 6.4375 12.1641 6.4375C9.69531 6.4375 8.00781 7.92188 8.00781 10.0859L8.01562 10.1172H10.1953V10.0781C10.1953 9.00781 10.9531 8.27344 12.0547 8.27344C13.1328 8.27344 13.7891 8.94531 13.7891 9.90625V9.92969C13.7891 10.7188 13.3594 11.2891 11.7734 12.8281L8.14062 16.4141V18Z" fill="currentColor"/>
<path d="M26 15V34" stroke="currentColor" stroke-width="2" stroke-linecap="round"/>
<path d="M22 23L22 34" stroke="currentColor" stroke-width="2" stroke-linecap="round"/>
<path d="M10 25L10 34" stroke="currentColor" stroke-width="2" stroke-linecap="round"/>
<path d="M14 31L14 34" stroke="currentColor" stroke-width="2" stroke-linecap="round"/>
<path d="M6 31L6 34" stroke="currentColor" stroke-width="2" stroke-linecap="round"/>
<path d="M30 23L30 34" stroke="currentColor" stroke-width="2" stroke-linecap="round"/>
<path d="M34 20L34 34" stroke="currentColor" stroke-width="2" stroke-linecap="round"/>
<path d="M18 28L18 34" stroke="currentColor" stroke-width="2" stroke-linecap="round"/>
</g>
<defs>
<clipPath id="clip0_752_180">
<rect width="40" height="40" fill="white"/>
</clipPath>
</defs>
</svg>
