<svg width="40" height="40" viewBox="0 0 40 40" fill="none" xmlns="http://www.w3.org/2000/svg">
<g clip-path="url(#clip0_657_316)">
<path fill-rule="evenodd" clip-rule="evenodd" d="M12.8097 36.2936C14.1105 34.5405 15.2921 31.6012 16.5378 27.4353C17.6497 23.7171 17.2903 19.4219 16.5761 15.9193C16.3786 14.9511 16.1576 14.0604 15.942 13.2803C15.2347 14.1265 14.4166 15.1427 13.5636 16.2766C11.0319 19.6421 8.33172 23.8654 7.18785 27.6905C5.95861 31.8012 5.84838 34.2137 6.28509 35.6172C6.63312 36.7358 7.41187 37.4647 9.28235 37.9138C10.0593 38.1004 10.6234 38.027 11.0961 37.82C11.6039 37.5976 12.1794 37.1431 12.8097 36.2936ZM15.242 11.0168C12.5634 14.1111 7.10896 20.933 5.25502 27.1327C2.76066 35.4739 4.1758 38.7251 8.8041 39.8363C13.4324 40.9476 15.9763 36.3344 18.4706 27.9931C20.2689 21.9797 18.5859 14.9337 17.5065 11.4694C17.0886 10.1283 16.7612 9.32395 16.7612 9.32395C16.7612 9.32395 16.1672 9.94801 15.242 11.0168Z" fill="currentColor"/>
<path fill-rule="evenodd" clip-rule="evenodd" d="M22.8015 11.4694C23.2194 10.1283 23.5468 9.32395 23.5468 9.32395C23.5468 9.32395 24.1408 9.94801 25.0661 11.0168C27.7446 14.1111 33.1991 20.933 35.053 27.1327C37.5474 35.4739 36.1322 38.7251 31.5039 39.8363C26.8756 40.9476 24.3317 36.3344 21.8374 27.9931C20.0391 21.9797 21.7221 14.9337 22.8015 11.4694ZM24.366 13.2803C24.1504 14.0604 23.9294 14.9511 23.732 15.9193C23.0177 19.4219 22.6583 23.7171 23.7702 27.4353C25.016 31.6012 26.1976 34.5405 27.4983 36.2936C28.1286 37.1431 28.7041 37.5976 29.212 37.82C29.6846 38.027 30.2487 38.1004 31.0257 37.9138C32.8962 37.4647 33.6749 36.7358 34.0229 35.6172C34.4596 34.2137 34.3494 31.8012 33.1202 27.6905C31.9763 23.8654 29.2761 19.6421 26.7444 16.2766C25.8915 15.1427 25.0733 14.1265 24.366 13.2803Z" fill="currentColor"/>
<path fill-rule="evenodd" clip-rule="evenodd" d="M12.466 11.5652C11.5964 9.00213 13.5383 6.3553 16.2883 6.3553H24.0195C26.7695 6.3553 28.7114 9.00213 27.8418 11.5652L27.153 13.5951L25.2419 12.9692L25.9306 10.9393C26.3655 9.65781 25.3945 8.3344 24.0195 8.3344H16.2883C14.9133 8.3344 13.9424 9.65781 14.3772 10.9393L15.0659 12.9692L13.1548 13.5951L12.466 11.5652Z" fill="currentColor"/>
<path fill-rule="evenodd" clip-rule="evenodd" d="M35.8542 0.618333C35.9604 1.08033 35.5563 1.56979 34.9516 1.71161L34.9443 1.71334L34.9197 1.71915L34.8232 1.74219C34.7391 1.76238 34.6178 1.7918 34.4703 1.8283C34.1745 1.90149 33.7773 2.00227 33.3671 2.11365C32.9534 2.22597 32.5428 2.34464 32.2143 2.45341C32.0498 2.50787 31.9223 2.55447 31.8327 2.59148C31.7995 2.63114 31.7579 2.68278 31.7075 2.74745C31.5653 2.92982 31.3808 3.18064 31.1652 3.48283C30.7355 4.0852 30.2054 4.85948 29.6868 5.62842C29.1691 6.39605 28.6666 7.15283 28.2933 7.71808C28.1067 8.0006 27.9526 8.23503 27.8452 8.39873L27.6774 8.6548L26.7012 8.33439C25.725 8.01395 25.7251 8.01386 25.7251 8.01386L25.8951 7.75435C26.0034 7.58935 26.1585 7.35338 26.3463 7.06912C26.7216 6.50082 27.2277 5.73849 27.7501 4.96393C28.2716 4.19069 28.813 3.39972 29.2578 2.77623C29.4794 2.4655 29.6829 2.18824 29.8509 1.97269C29.9344 1.86559 30.0161 1.76473 30.0915 1.67881C30.1459 1.61686 30.2626 1.48515 30.4117 1.37586C30.61 1.23053 30.844 1.12678 30.9974 1.06332C31.176 0.98943 31.3764 0.918028 31.5768 0.851671C31.9791 0.718454 32.4485 0.583692 32.8833 0.465656C33.3216 0.346671 33.7414 0.240171 34.0506 0.163664C34.2056 0.125316 34.3336 0.0942819 34.4233 0.072732L34.528 0.0477461L34.5562 0.0410679L34.566 0.0387667C34.566 0.0387667 34.567 0.0385321 34.7593 0.875081L34.566 0.0387667C35.1707 -0.103031 35.748 0.15632 35.8542 0.618333ZM26.7012 8.33439L25.7251 8.01386C25.4314 8.46357 25.6302 8.97169 26.1694 9.14867C26.7085 9.32565 27.3837 9.10451 27.6774 8.6548L26.7012 8.33439Z" fill="currentColor"/>
<path fill-rule="evenodd" clip-rule="evenodd" d="M3.95009 0.618333C3.8439 1.08033 4.24798 1.56979 4.85263 1.71161L4.85998 1.71334L4.88451 1.71915L4.98104 1.74219C5.06511 1.76238 5.1865 1.7918 5.33399 1.8283C5.62974 1.90149 6.02691 2.00227 6.43715 2.11365C6.85089 2.22597 7.2615 2.34464 7.58999 2.45341C7.755 2.50804 7.88278 2.55477 7.97237 2.59183C7.97675 2.59364 7.98093 2.59538 7.9849 2.59706C8.02583 2.64182 8.07928 2.70273 8.14567 2.78096C8.30292 2.96626 8.50797 3.21942 8.74744 3.52238C9.22505 4.12664 9.8186 4.90241 10.4003 5.67174C10.9811 6.43999 11.5467 7.19727 11.9673 7.7628C12.1775 8.04548 12.3513 8.28004 12.4726 8.44386L12.662 8.70023L13.6067 8.33439C14.5513 7.96851 14.5512 7.96842 14.5512 7.96842L14.3597 7.70923C14.2376 7.54434 14.0628 7.30851 13.8516 7.02441C13.4291 6.45637 12.8602 5.69454 12.275 4.92061C11.6907 4.14776 11.0868 3.35828 10.5954 2.73668C10.3504 2.42672 10.1282 2.15181 9.94774 1.93918C9.858 1.83344 9.77231 1.73564 9.69541 1.65346C9.63816 1.59226 9.52584 1.47356 9.39254 1.37586C9.19427 1.23053 8.96028 1.12678 8.80687 1.06332C8.62823 0.98943 8.42789 0.918028 8.22749 0.851671C7.82516 0.718454 7.35577 0.583692 6.92098 0.465656C6.4827 0.346671 6.06282 0.240171 5.75366 0.163664C5.5987 0.125316 5.47065 0.0942819 5.38091 0.072732L5.27626 0.0477461L5.24803 0.0410679L5.23825 0.0387667C5.23825 0.0387667 5.23725 0.0385321 5.04498 0.875081L5.23825 0.0387667C4.63356 -0.103031 4.05628 0.15632 3.95009 0.618333ZM13.6067 8.33439L14.5512 7.96842C14.8749 8.40743 14.7145 8.92722 14.1928 9.12929C13.6711 9.33136 12.9857 9.13924 12.662 8.70023L13.6067 8.33439Z" fill="currentColor"/>
<path fill-rule="evenodd" clip-rule="evenodd" d="M2.02318 19.7142C1.90371 20.248 2.25783 20.6807 2.81413 20.6807L3.03044 19.7142C2.81413 20.6807 2.81413 20.6807 2.81413 20.6807L2.81763 20.6807L2.82407 20.6806L2.84542 20.6805C2.86331 20.6804 2.88842 20.6801 2.91987 20.6795C2.98268 20.6785 3.07127 20.6763 3.17854 20.6721C3.39138 20.6638 3.68576 20.6469 4.00251 20.6123C4.31266 20.5785 4.67807 20.5242 5.02225 20.432C5.30552 20.3561 5.82312 20.1939 6.21869 19.8057C6.40498 19.6229 6.69782 19.2733 6.97254 18.9441C7.03462 18.8697 7.09848 18.793 7.16378 18.7145C7.41692 18.4105 7.69162 18.0806 7.96725 17.759C8.31722 17.3507 8.64249 16.9868 8.89885 16.7324C8.93745 16.6941 8.97187 16.6609 9.00223 16.6323H11.5711L12.0041 14.6994H9.10086C8.81397 14.6994 8.57194 14.8038 8.44254 14.8691C8.3004 14.9409 8.17803 15.0252 8.08529 15.0949C7.89927 15.2348 7.71418 15.4065 7.54872 15.5707C7.21169 15.9053 6.82882 16.337 6.47033 16.7552C6.18108 17.0927 5.89067 17.4415 5.63662 17.7466C5.57296 17.8231 5.51159 17.8968 5.45309 17.9669C5.21619 18.2508 5.05177 18.4442 4.95566 18.5516C4.93266 18.5593 4.9023 18.5686 4.86352 18.579C4.68818 18.626 4.45542 18.6644 4.19892 18.6924C3.94902 18.7197 3.70826 18.7337 3.52763 18.7408C3.43816 18.7444 3.36542 18.7461 3.3161 18.7469C3.29148 18.7474 3.27281 18.7476 3.26095 18.7477L3.24839 18.7477L3.24675 18.7477M2.02318 19.7142C2.14263 19.1805 2.69053 18.7479 3.24675 18.7477L2.02318 19.7142ZM12.0041 14.6994C12.5603 14.6994 12.9145 15.1321 12.795 15.6659C12.6756 16.1996 12.1274 16.6323 11.5711 16.6323L12.0041 14.6994Z" fill="currentColor"/>
<path fill-rule="evenodd" clip-rule="evenodd" d="M37.9768 19.7142C38.0963 20.248 37.7422 20.6807 37.1859 20.6807L36.9696 19.7142C37.1859 20.6807 37.1859 20.6807 37.1859 20.6807L37.1824 20.6807L37.1759 20.6806L37.1546 20.6805C37.1367 20.6804 37.1116 20.6801 37.0801 20.6795C37.0173 20.6785 36.9287 20.6763 36.8215 20.6721C36.6086 20.6638 36.3142 20.6469 35.9975 20.6123C35.6873 20.5785 35.3219 20.5242 34.9777 20.432C34.6945 20.3561 34.1769 20.1939 33.7813 19.8057C33.595 19.6229 33.3022 19.2733 33.0275 18.9441C32.9654 18.8697 32.9015 18.793 32.8362 18.7145C32.5831 18.4105 32.3084 18.0806 32.0327 17.759C31.6828 17.3507 31.3575 16.9868 31.1011 16.7324C31.0625 16.6941 31.0281 16.6609 30.9978 16.6323H28.4289L27.9959 14.6994H30.8991C31.186 14.6994 31.4281 14.8038 31.5575 14.8691C31.6996 14.9409 31.822 15.0252 31.9147 15.0949C32.1007 15.2348 32.2858 15.4065 32.4513 15.5707C32.7883 15.9053 33.1712 16.337 33.5297 16.7552C33.8189 17.0927 34.1093 17.4415 34.3634 17.7466C34.427 17.8231 34.4884 17.8968 34.5469 17.9669C34.7838 18.2508 34.9482 18.4442 35.0443 18.5516C35.0673 18.5593 35.0977 18.5686 35.1365 18.579C35.3118 18.626 35.5446 18.6644 35.8011 18.6924C36.051 18.7197 36.2917 18.7337 36.4724 18.7408C36.5618 18.7444 36.6346 18.7461 36.6839 18.7469C36.7085 18.7474 36.7272 18.7476 36.7391 18.7477L36.7516 18.7477L36.7533 18.7477M37.9768 19.7142C37.8574 19.1805 37.3095 18.7479 36.7533 18.7477L37.9768 19.7142ZM27.9959 14.6994C27.4397 14.6994 27.0855 15.1321 27.205 15.6659C27.3244 16.1996 27.8726 16.6323 28.4289 16.6323L27.9959 14.6994Z" fill="currentColor"/>
<path fill-rule="evenodd" clip-rule="evenodd" d="M14.6783 7.6923C13.7003 5.13018 15.6283 2.3971 18.4136 2.3971H21.391C24.1764 2.3971 26.1043 5.13018 25.1263 7.6923L23.24 6.99739C23.7242 5.72911 22.7698 4.3762 21.391 4.3762H18.4136C17.0348 4.3762 16.0805 5.72911 16.5646 6.99739L14.6783 7.6923Z" fill="currentColor"/>
<path fill-rule="evenodd" clip-rule="evenodd" d="M17.1322 28.1254C17.6885 28.1254 18.1394 28.5684 18.1394 29.1149C18.1394 30.2348 18.7671 31.2393 19.5161 32.0262C19.8153 32.3406 20.1165 32.6015 20.3677 32.7996C20.5606 32.6127 20.7844 32.3753 21.0077 32.0938C21.62 31.3219 22.1685 30.2954 22.1685 29.1149H24.183C24.183 30.9031 23.3579 32.3506 22.5967 33.3103C22.2116 33.7959 21.8276 34.1762 21.5385 34.4365C21.3934 34.5672 21.2707 34.669 21.1816 34.7401C21.137 34.7757 21.1007 34.8036 21.074 34.8238L21.0414 34.8482L21.0309 34.8559L21.0271 34.8587L21.0256 34.8598C21.0256 34.8598 21.0243 34.8607 20.4286 34.0627C19.9034 34.9071 19.9028 34.9067 19.9028 34.9067L19.9006 34.9053L19.8965 34.9029L19.8848 34.8957L19.8477 34.8726C19.817 34.8533 19.7748 34.8261 19.7226 34.7914C19.6183 34.7221 19.4737 34.6222 19.3021 34.4934C18.9606 34.2372 18.5041 33.8606 18.0447 33.3779C17.1455 32.4332 16.1249 30.9637 16.1249 29.1149C16.1249 28.5684 16.5759 28.1254 17.1322 28.1254ZM20.4286 34.0627L19.9028 34.9067L20.4797 35.253L21.0243 34.8607L20.4286 34.0627Z" fill="currentColor"/>
<path fill-rule="evenodd" clip-rule="evenodd" d="M18.535 15.7069C18.535 15.7069 18.5365 15.7038 17.6356 15.2612C16.7347 14.8187 16.7363 14.8156 16.7363 14.8156L16.7379 14.8125L16.7412 14.8062L16.7479 14.7936C16.7525 14.7852 16.7573 14.7767 16.7623 14.7681C16.7723 14.751 16.783 14.7338 16.7945 14.7164C16.8175 14.6816 16.8434 14.6467 16.8725 14.6119C16.9309 14.5421 17.0002 14.4748 17.0811 14.4112C17.2422 14.2847 17.4461 14.1748 17.7006 14.0839C18.1999 13.9055 18.9595 13.7769 20.1538 13.7769C21.3481 13.7769 22.1076 13.9055 22.6069 14.0839C22.8614 14.1748 23.0653 14.2847 23.2264 14.4112C23.3073 14.4748 23.3767 14.5421 23.435 14.6119C23.4641 14.6467 23.49 14.6816 23.5131 14.7164C23.5246 14.7338 23.5353 14.751 23.5452 14.7681C23.5502 14.7767 23.555 14.7852 23.5596 14.7936L23.5664 14.8062L23.5696 14.8125L23.5712 14.8156C23.5712 14.8156 23.5728 14.8187 22.6719 15.2612C21.771 15.7038 21.7726 15.7069 21.7726 15.7069L21.7742 15.71L21.7774 15.7161L21.7838 15.7282C21.7882 15.7361 21.7926 15.7439 21.797 15.7515C21.8059 15.7668 21.8149 15.7812 21.824 15.795C21.8422 15.8225 21.8606 15.8468 21.8783 15.8681C21.9141 15.9108 21.946 15.9394 21.9679 15.9566C21.9853 15.9703 21.9955 15.9762 21.9955 15.9762C21.9955 15.9762 21.9732 15.9634 21.9185 15.9438C21.7253 15.8748 21.2258 15.756 20.1538 15.756C19.0817 15.756 18.5822 15.8748 18.389 15.9438C18.3343 15.9634 18.312 15.9762 18.312 15.9762C18.312 15.9762 18.3222 15.9703 18.3396 15.9566C18.3615 15.9394 18.3935 15.9108 18.4292 15.8681C18.447 15.8468 18.4653 15.8225 18.4835 15.795C18.4926 15.7812 18.5016 15.7668 18.5105 15.7515C18.515 15.7439 18.5193 15.7361 18.5237 15.7282L18.5302 15.7161L18.5334 15.71L18.535 15.7069Z" fill="currentColor"/>
<path fill-rule="evenodd" clip-rule="evenodd" d="M18.0856 20.5996C18.0856 20.5996 18.0862 20.5993 17.6357 19.7142C17.1852 18.8291 17.1858 18.8289 17.1858 18.8289L17.1875 18.828L17.1902 18.8267L17.1968 18.8236L17.2143 18.8152C17.2281 18.8088 17.2458 18.8007 17.2674 18.7911C17.3105 18.772 17.3693 18.747 17.4426 18.7181C17.5891 18.6606 17.7948 18.5874 18.0515 18.5154C18.5637 18.3716 19.2874 18.2299 20.1539 18.2299C21.0203 18.2299 21.744 18.3716 22.2562 18.5154C22.5129 18.5874 22.7186 18.6606 22.8651 18.7181C22.9384 18.747 22.9972 18.772 23.0403 18.7911C23.0619 18.8007 23.0797 18.8088 23.0934 18.8152L23.111 18.8236L23.1175 18.8267L23.1202 18.828L23.1214 18.8286C23.1214 18.8286 23.1225 18.8291 22.672 19.7142C22.2215 20.5993 22.2221 20.5996 22.2221 20.5996L22.2235 20.6003L22.2251 20.601L22.2272 20.602L22.2112 20.5948C22.1934 20.5869 22.1616 20.5733 22.1169 20.5557C22.0274 20.5205 21.8868 20.47 21.7028 20.4183C21.3337 20.3147 20.7983 20.209 20.1539 20.209C19.5094 20.209 18.974 20.3147 18.6049 20.4183C18.4209 20.47 18.2804 20.5205 18.1908 20.5557C18.1461 20.5733 18.1143 20.5869 18.0965 20.5948L18.0804 20.6021L18.0826 20.601L18.0842 20.6003L18.0856 20.5996Z" fill="currentColor"/>
<path fill-rule="evenodd" clip-rule="evenodd" d="M18.1394 25.1567V23.1776H22.1675L22.1684 25.1567H18.1394Z" fill="currentColor"/>
<path fill-rule="evenodd" clip-rule="evenodd" d="M18.1394 30.1045V28.1254H22.1675L22.1684 30.1045H18.1394Z" fill="currentColor"/>
<path fill-rule="evenodd" clip-rule="evenodd" d="M9.59132 18.5626C9.59132 18.5626 9.59139 18.5621 10.585 18.7247C11.5785 18.8872 11.5786 18.8869 11.5786 18.8869L11.5777 18.8923L11.5734 18.9193C11.5695 18.9445 11.5635 18.9841 11.5558 19.0375C11.5406 19.1444 11.5189 19.3067 11.4947 19.5203C11.4461 19.9475 11.387 20.5797 11.3475 21.3843C11.2685 22.9942 11.2681 25.29 11.5856 28.0128C11.8874 30.6005 12.8114 32.1428 13.5994 33.0242C13.9979 33.4698 14.3719 33.7579 14.6343 33.93C14.7656 34.016 14.8688 34.0729 14.9328 34.1057C14.9648 34.1221 14.9869 34.1324 14.9977 34.1373C15.0003 34.1385 15.0036 34.14 15.0036 34.14L15.0052 34.1407L15.0023 34.1395L14.9991 34.1381L14.9977 34.1373L14.9959 34.1368C14.9959 34.1368 14.9947 34.1364 14.6133 35.0523C14.232 35.9682 14.2307 35.9676 14.2307 35.9676L14.2294 35.9671L14.2264 35.9659L14.2195 35.9631L14.2021 35.9557C14.1888 35.95 14.1723 35.9428 14.1528 35.934C14.1138 35.9163 14.0627 35.892 14.001 35.8604C13.8777 35.7972 13.7118 35.7045 13.5162 35.5762C13.1247 35.3196 12.6134 34.9203 12.0859 34.3303C11.0221 33.1405 9.93189 31.2194 9.5842 28.238C9.25227 25.3918 9.25194 22.9872 9.3353 21.289C9.377 20.4395 9.43969 19.7657 9.49259 19.3005C9.51905 19.0679 9.54306 18.8873 9.56081 18.7629C9.56968 18.7007 9.57698 18.6525 9.58224 18.6189L9.58853 18.5794L9.59041 18.568L9.59101 18.5643L9.59132 18.5626Z" fill="currentColor"/>
<path fill-rule="evenodd" clip-rule="evenodd" d="M30.2172 17.6056C30.2172 17.6056 30.2171 17.6052 29.2186 17.7351C28.22 17.865 28.22 17.8648 28.22 17.8648L28.2202 17.8664L28.2213 17.8747L28.226 17.9117C28.2303 17.9453 28.2365 17.9967 28.2444 18.0648C28.2602 18.2011 28.2823 18.4044 28.307 18.6666C28.3564 19.1913 28.4161 19.9513 28.4559 20.8834C28.5357 22.7502 28.5353 25.2938 28.2182 28.0128C27.9164 30.6005 26.9924 32.1428 26.2044 33.0242C25.806 33.4698 25.4319 33.7579 25.1695 33.9299C25.0383 34.016 24.9351 34.0729 24.8711 34.1057C24.8391 34.1221 24.817 34.1324 24.8062 34.1373C24.8027 34.1389 24.7993 34.1404 24.7993 34.1404L24.8016 34.1394L24.8048 34.1381L24.8062 34.1373L24.8079 34.1368C24.8079 34.1368 24.8092 34.1363 25.1905 35.0522C25.5718 35.9681 25.5731 35.9676 25.5731 35.9676L25.5745 35.9671L25.5774 35.9659L25.5843 35.963L25.6018 35.9557C25.615 35.95 25.6315 35.9428 25.651 35.934C25.69 35.9163 25.7411 35.892 25.8028 35.8604C25.9262 35.7972 26.092 35.7045 26.2877 35.5762C26.6791 35.3196 27.1904 34.9203 27.7179 34.3303C28.7817 33.1405 29.8719 31.2194 30.2196 28.238C30.552 25.3879 30.5514 22.7363 30.4687 20.8003C30.4272 19.831 30.3651 19.0376 30.313 18.4843C30.2869 18.2075 30.2633 17.9906 30.2461 17.8415C30.2374 17.7669 30.2304 17.7093 30.2254 17.6696L30.2196 17.6236L30.2179 17.6109L30.2172 17.6056Z" fill="currentColor"/>
<circle cx="24" cy="3" r="2" fill="currentColor"/>
<circle cx="16" cy="3" r="2" fill="currentColor"/>
</g>
<defs>
<clipPath id="clip0_657_316">
<rect width="40" height="40" fill="white"/>
</clipPath>
</defs>
</svg>
