<svg width="40" height="40" viewBox="0 0 40 40" fill="none" xmlns="http://www.w3.org/2000/svg">
<g clip-path="url(#clip0_657_729)">
<path fill-rule="evenodd" clip-rule="evenodd" d="M35 2H5C4.44771 2 4 2.44772 4 3V37C4 37.5523 4.44772 38 5 38H35C35.5523 38 36 37.5523 36 37V3C36 2.44771 35.5523 2 35 2ZM5 0C3.34315 0 2 1.34315 2 3V37C2 38.6569 3.34315 40 5 40H35C36.6569 40 38 38.6569 38 37V3C38 1.34315 36.6569 0 35 0H5Z" fill="currentColor"/>
<path d="M21 1L21 39L19 39L19 1L21 1Z" fill="currentColor"/>
<path d="M37 17L3 17L3 15L37 15L37 17Z" fill="currentColor"/>
<path d="M12.2959 30.9659C12.4388 30.4325 12.9871 30.1159 13.5206 30.2588C14.0541 30.4018 14.3707 30.9501 14.2277 31.4836L13.1924 35.3473C13.0495 35.8807 12.5012 36.1973 11.9677 36.0544C11.4342 35.9114 11.1177 35.3631 11.2606 34.8296L12.2959 30.9659Z" fill="currentColor"/>
<path d="M25.2959 21.9659C25.4388 21.4325 25.9871 21.1159 26.5206 21.2588C27.0541 21.4018 27.3707 21.9501 27.2277 22.4836L26.1924 26.3473C26.0495 26.8807 25.5012 27.1973 24.9677 27.0544C24.4342 26.9114 24.1177 26.3631 24.2606 25.8296L25.2959 21.9659Z" fill="currentColor"/>
<path d="M7.29587 4.96593C7.43881 4.43246 7.98715 4.11588 8.52061 4.25882C9.05408 4.40176 9.37066 4.9501 9.22772 5.48356L8.19244 9.34727C8.0495 9.88073 7.50117 10.1973 6.9677 10.0544C6.43423 9.91143 6.11765 9.3631 6.26059 8.82963L7.29587 4.96593Z" fill="currentColor"/>
<path d="M11.7587 13.0167C11.9016 12.4832 12.4499 12.1666 12.9834 12.3096C13.5169 12.4525 13.8335 13.0008 13.6905 13.5343L10.1893 25.8436C10.0464 26.3771 9.49802 26.6936 8.96455 26.5507C8.43109 26.4078 8.1145 25.8594 8.25745 25.326L11.7587 13.0167Z" fill="currentColor"/>
<path d="M30.7587 26.0167C30.9016 25.4832 31.4499 25.1666 31.9834 25.3096C32.5169 25.4525 32.8335 26.0008 32.6905 26.5343L29.1893 38.8436C29.0464 39.3771 28.498 39.6936 27.9646 39.5507C27.4311 39.4078 27.1145 38.8594 27.2574 38.326L30.7587 26.0167Z" fill="currentColor"/>
<path d="M28.7587 -0.983336C28.9016 -1.5168 29.4499 -1.83339 29.9834 -1.69044C30.5169 -1.5475 30.8335 -0.999165 30.6905 -0.465698L27.1893 11.8436C27.0464 12.3771 26.498 12.6936 25.9646 12.5507C25.4311 12.4078 25.1145 11.8594 25.2574 11.326L28.7587 -0.983336Z" fill="currentColor"/>
</g>
<defs>
<clipPath id="clip0_657_729">
<rect width="40" height="40" fill="white"/>
</clipPath>
</defs>
</svg>
