<svg width="40" height="40" viewBox="0 0 40 40" fill="none" xmlns="http://www.w3.org/2000/svg">
<path d="M38.9089 23.42C38.9559 25.0681 38.6718 26.7088 38.0735 28.2452C37.4753 29.7816 36.5749 31.1824 35.4258 32.3647C34.2767 33.547 32.9021 34.4869 31.3834 35.1287C29.8647 35.7704 28.2327 36.1011 26.5839 36.1011C24.9352 36.1011 23.3032 35.7704 21.7844 35.1287C20.2657 34.4869 18.8911 33.547 17.742 32.3647C16.5929 31.1824 15.6926 29.7816 15.0943 28.2452C14.496 26.7088 14.212 25.0681 14.2589 23.42C14.2589 13.84 26.5789 4.25 26.5789 4.25C26.5789 4.25 38.9089 13.84 38.9089 23.42Z" stroke="currentColor" stroke-width="2" stroke-miterlimit="10" stroke-linecap="round"/>
<path d="M12.2519 12.47C12.2835 13.2087 12.1652 13.9461 11.9043 14.6379C11.6434 15.3297 11.2452 15.9615 10.7337 16.4953C10.2222 17.0292 9.60794 17.454 8.92793 17.7442C8.24793 18.0344 7.51622 18.184 6.77688 18.184C6.03753 18.184 5.30583 18.0344 4.62582 17.7442C3.94581 17.454 3.33156 17.0292 2.82005 16.4953C2.30854 15.9615 1.91034 15.3297 1.64943 14.6379C1.38852 13.9461 1.2703 13.2087 1.30188 12.47C1.30188 8.36 6.77188 4.25 6.77188 4.25C6.77188 4.25 12.2519 8.36 12.2519 12.47Z" stroke="currentColor" stroke-width="2" stroke-miterlimit="10" stroke-linecap="round"/>
<path d="M26.5781 31.6399C30.6881 31.6399 34.7981 27.5299 34.7981 23.4199" stroke="currentColor" stroke-width="2" stroke-miterlimit="10" stroke-linecap="round"/>
</svg>
