<svg width="40" height="40" viewBox="0 0 40 40" fill="none" xmlns="http://www.w3.org/2000/svg">
<g clip-path="url(#clip0_923_3992)">
<path fill-rule="evenodd" clip-rule="evenodd" d="M22 2H18V4H22V2ZM18 0C16.8954 0 16 0.89543 16 2V4C16 5.10457 16.8954 6 18 6H22C23.1046 6 24 5.10457 24 4V2C24 0.895431 23.1046 0 22 0H18Z" fill="currentColor"/>
<path fill-rule="evenodd" clip-rule="evenodd" d="M12 24C12.5523 24 13 23.5523 13 23C13 22.4477 12.5523 22 12 22C11.4477 22 11 22.4477 11 23C11 23.5523 11.4477 24 12 24ZM28 24C28.5523 24 29 23.5523 29 23C29 22.4477 28.5523 22 28 22C27.4477 22 27 22.4477 27 23C27 23.5523 27.4477 24 28 24ZM12 26C13.6569 26 15 24.6569 15 23C15 21.3431 13.6569 20 12 20C10.3431 20 9 21.3431 9 23C9 24.6569 10.3431 26 12 26ZM28 26C29.6569 26 31 24.6569 31 23C31 21.3431 29.6569 20 28 20C26.3431 20 25 21.3431 25 23C25 24.6569 26.3431 26 28 26Z" fill="currentColor"/>
<path fill-rule="evenodd" clip-rule="evenodd" d="M17 11H11L11 15H17V11ZM11 9C9.89543 9 9 9.89543 9 11V15C9 16.1046 9.89543 17 11 17H17C18.1046 17 19 16.1046 19 15V11C19 9.89543 18.1046 9 17 9H11Z" fill="currentColor"/>
<path fill-rule="evenodd" clip-rule="evenodd" d="M29 11H23L23 15H29V11ZM23 9C21.8954 9 21 9.89543 21 11V15C21 16.1046 21.8954 17 23 17H29C30.1046 17 31 16.1046 31 15V11C31 9.89543 30.1046 9 29 9H23Z" fill="currentColor"/>
<path fill-rule="evenodd" clip-rule="evenodd" d="M16.8852 4.99092L12.073 5.64737C11.3612 5.74448 10.7078 6.09384 10.2317 6.63191L8.75319 8.30296C8.2679 8.85146 8 9.55853 8 10.2909V24.0001C8 25.657 9.34315 27.0001 11 27.0001H29C30.6569 27.0001 32 25.657 32 24.0001V10.4268C32 9.63354 31.6858 8.87259 31.1262 8.31039L29.3299 6.5057C28.8729 6.04657 28.2795 5.74771 27.6386 5.65379L23.105 4.98954L23.395 3.01066L27.9285 3.67492C28.9968 3.83144 29.9857 4.32955 30.7474 5.09477L32.5437 6.89945C33.4764 7.83646 34 9.10472 34 10.4268V24.0001C34 26.7615 31.7614 29.0001 29 29.0001H11C8.23858 29.0001 6 26.7615 6 24.0001V10.2909C6 9.07028 6.44649 7.89183 7.25532 6.97768L8.73383 5.30663C9.5273 4.40983 10.6163 3.82758 11.8027 3.66573L16.6148 3.00928L16.8852 4.99092Z" fill="currentColor"/>
<path fill-rule="evenodd" clip-rule="evenodd" d="M31.559 29H8.43818L9.43818 34L30.559 34L31.559 29ZM8.43818 27C7.17609 27 6.2295 28.1546 6.47702 29.3922L7.47702 34.3922C7.66399 35.3271 8.48482 36 9.43818 36H30.559C31.5123 36 32.3332 35.3271 32.5201 34.3922L33.5201 29.3922C33.7676 28.1546 32.8211 27 31.559 27H8.43818Z" fill="currentColor"/>
<path fill-rule="evenodd" clip-rule="evenodd" d="M12.4474 34.1055C12.9414 34.3525 13.1416 34.9532 12.8946 35.4472L12.1183 37H27.8822L27.1058 35.4472C26.8588 34.9532 27.059 34.3525 27.553 34.1055C28.047 33.8586 28.6477 34.0588 28.8946 34.5528L30.8946 38.5528C31.1416 39.0467 30.9414 39.6474 30.4474 39.8944C29.9535 40.1414 29.3528 39.9412 29.1058 39.4472L28.8822 39H11.1183L10.8946 39.4472C10.6477 39.9412 10.047 40.1414 9.55301 39.8944C9.05903 39.6474 8.8588 39.0467 9.10579 38.5528L11.1058 34.5528C11.3528 34.0588 11.9535 33.8586 12.4474 34.1055Z" fill="currentColor"/>
<path fill-rule="evenodd" clip-rule="evenodd" d="M13 35V29H15V35H13ZM17 35V29H19V35H17ZM21 35V29H23V35H21ZM25 35V29H27V35H25Z" fill="currentColor"/>
</g>
<defs>
<clipPath id="clip0_923_3992">
<rect width="40" height="40" fill="white"/>
</clipPath>
</defs>
</svg>
