<svg width="41" height="40" viewBox="0 0 41 40" fill="none" xmlns="http://www.w3.org/2000/svg">
<path fill-rule="evenodd" clip-rule="evenodd" d="M24 10C24.5523 10 25 10.4477 25 11C25 11.5523 24.5523 12 24 12L22 12C21.4477 12 21 11.5523 21 11C21 10.4477 21.4477 10 22 10H24ZM19 24C19 23.4477 18.5523 23 18 23H16C15.4477 23 15 23.4477 15 24C15 24.5523 15.4477 25 16 25H18C18.5523 25 19 24.5523 19 24ZM8 28C8 27.4477 7.55228 27 7 27H5C4.44772 27 4 27.4477 4 28C4 28.5523 4.44772 29 5 29H7C7.55228 29 8 28.5523 8 28ZM15 33C15.5523 33 16 33.4477 16 34C16 34.5523 15.5523 35 15 35H13C12.4477 35 12 34.5523 12 34C12 33.4477 12.4477 33 13 33H15ZM27 38C27 37.4477 26.5523 37 26 37H24C23.4477 37 23 37.4477 23 38C23 38.5523 23.4477 39 24 39H26C26.5523 39 27 38.5523 27 38ZM14 18C14 17.4477 13.5523 17 13 17H11C10.4477 17 10 17.4477 10 18C10 18.5523 10.4477 19 11 19H13C13.5523 19 14 18.5523 14 18Z" fill="currentColor"/>
<path fill-rule="evenodd" clip-rule="evenodd" d="M7 4C7 2.89543 6.10457 2 5 2C3.89543 2 3 2.89543 3 4V6C3 6.74028 3.4022 7.38663 4 7.73244V6C4 5.44772 4.44772 5 5 5C5.55228 5 6 5.44772 6 6V7.73244C6.5978 7.38663 7 6.74028 7 6V4ZM1 6C1 7.86384 2.27477 9.42994 4 9.87398V12C4 12.5523 4.44772 13 5 13C5.55228 13 6 12.5523 6 12V9.87398C7.72523 9.42994 9 7.86384 9 6V4C9 1.79086 7.20914 0 5 0C2.79086 0 1 1.79086 1 4V6ZM39 21V16C39 14.3431 37.6569 13 36 13C34.3431 13 33 14.3431 33 16V21C33 22.3062 33.8348 23.4175 35 23.8293V20C35 19.4477 35.4477 19 36 19C36.5523 19 37 19.4477 37 20V23.8293C38.1652 23.4175 39 22.3062 39 21ZM31 21C31 23.419 32.7178 25.4367 35 25.9V28C35 28.5523 35.4477 29 36 29C36.5523 29 37 28.5523 37 28V25.9C39.2822 25.4367 41 23.419 41 21V16C41 13.2386 38.7614 11 36 11C33.2386 11 31 13.2386 31 16V21Z" fill="currentColor"/>
<path fill-rule="evenodd" clip-rule="evenodd" d="M17.316 2.44876C17.3159 2.44879 17.3161 2.44872 17.316 2.44876L17.3117 2.45018L17.2929 2.45657C17.2757 2.46246 17.2491 2.47158 17.2142 2.4838C17.1444 2.50825 17.0411 2.54504 16.9114 2.59306C16.6517 2.68925 16.2882 2.82971 15.8763 3.0056C15.0377 3.36374 14.0579 3.84403 13.3379 4.37001C12.9757 4.63454 12.7318 4.87322 12.5973 5.06907C12.5331 5.16263 12.5072 5.22726 12.4974 5.2631C12.4895 5.29213 12.4918 5.30222 12.4924 5.3047C12.4924 5.30482 12.4924 5.30461 12.4924 5.3047C12.4931 5.30818 12.5003 5.34285 12.5513 5.40944C12.6052 5.47974 12.705 5.58125 12.8819 5.70504C13.2427 5.95746 13.8458 6.24829 14.7974 6.5455C16.2792 7.00832 17.3855 7.50041 18.0296 8.10489C18.3728 8.42696 18.6579 8.8493 18.7155 9.378C18.7734 9.90871 18.5825 10.3662 18.3385 10.7172C17.8881 11.3653 17.0666 11.9199 16.2242 12.4083C15.3875 12.8935 14.3617 13.4042 13.2865 13.9395C13.2292 13.968 13.1717 13.9967 13.1141 14.0254C10.7984 15.1787 8.23045 16.476 6.23612 18.0784C4.23782 19.684 2.99959 21.4476 2.99953 23.5001C2.99947 25.5923 2.95587 27.3607 2.91882 28.8634C2.91134 29.1669 2.90413 29.4596 2.89759 29.7419C2.85836 31.4366 2.84485 32.7282 2.93353 33.7919C3.02119 34.8434 3.20533 35.6159 3.53029 36.2784C3.85334 36.9371 4.34786 37.5527 5.15061 38.2407C5.56995 38.6002 5.61853 39.2315 5.25913 39.6508C4.89972 40.0701 4.26842 40.1187 3.84908 39.7593C2.90171 38.9473 2.20859 38.1255 1.73464 37.1591C1.26259 36.1967 1.04036 35.1566 0.940443 33.9581C0.841541 32.7718 0.859228 31.3759 0.898126 29.6956C0.904753 29.4094 0.912031 29.114 0.919553 28.8087C0.956567 27.3065 0.999468 25.5654 0.999527 23.5C0.999612 20.5525 2.79684 18.2762 4.98344 16.5193C7.174 14.7593 9.94032 13.3717 12.2225 12.2351C12.2706 12.2111 12.3185 12.1873 12.3661 12.1636C13.4682 11.6148 14.4411 11.1303 15.221 10.6781C16.0586 10.1924 16.5112 9.83181 16.6871 9.58865C16.6794 9.58085 16.6707 9.57239 16.661 9.56326C16.3777 9.29735 15.6652 8.91185 14.2011 8.45455C13.1517 8.12675 12.3322 7.76132 11.7354 7.3438C11.1397 6.92706 10.6751 6.39204 10.534 5.71061C10.3903 5.01673 10.6289 4.40245 10.9487 3.93679C11.2636 3.47834 11.7074 3.08422 12.1582 2.75499C13.0637 2.09349 14.2099 1.54253 15.0908 1.16631C15.5387 0.975016 15.9334 0.822513 16.2169 0.717537C16.3588 0.664973 16.4734 0.624123 16.5535 0.596084C16.5936 0.58206 16.6251 0.571226 16.6471 0.563719L16.6729 0.554967L16.6802 0.552491L16.6825 0.551734C16.6828 0.551639 16.6838 0.551299 16.9999 1.50003L16.6838 0.551299C17.2078 0.376726 17.774 0.659966 17.9486 1.18393C18.1231 1.70779 17.8397 2.27405 17.316 2.44876ZM24.9281 1.12787C25.1336 1.64048 24.8847 2.22266 24.372 2.4282C22.8925 3.02144 21.9302 3.5043 21.3477 3.89474C21.1288 4.04142 20.9854 4.16082 20.8945 4.25104C20.9258 4.27425 20.9637 4.30068 21.0095 4.3303C21.3506 4.55077 21.8857 4.7853 22.6033 5.05636C22.9297 5.17967 23.2902 5.30871 23.671 5.44496C24.8675 5.87319 26.2631 6.37264 27.4224 6.98898C28.9122 7.78099 30.4999 9.01433 30.4999 11C30.4999 12.8273 29.4002 14.1137 28.2204 15.1024C27.6256 15.6009 26.9594 16.0654 26.327 16.5055L26.2924 16.5295C25.6589 16.9703 25.0557 17.3899 24.5072 17.8374C23.3836 18.754 22.649 19.663 22.4723 20.788C22.2953 21.9149 22.6385 23.5256 24.3191 25.9266C26.791 29.4581 29.9015 30.3977 32.9047 31.3049C33.1315 31.3734 33.3576 31.4417 33.5828 31.5109C35.1527 31.9935 36.7711 32.5505 38.0443 33.6537C39.3674 34.8001 40.2218 36.4427 40.4936 38.8896C40.5546 39.4385 40.159 39.9329 39.6101 39.9939C39.0612 40.0549 38.5668 39.6593 38.5058 39.1104C38.2777 37.0574 37.6035 35.9181 36.7346 35.1652C35.8158 34.3691 34.5788 33.9094 32.9951 33.4226C32.7652 33.3519 32.5297 33.2813 32.2896 33.2092C29.2926 32.3097 25.5621 31.1901 22.6806 27.0735C20.8615 24.4745 20.2048 22.3351 20.4965 20.4777C20.7886 18.6183 21.9915 17.3086 23.2429 16.2877C23.8518 15.7909 24.51 15.3331 25.124 14.906L25.1847 14.8637C25.8296 14.4151 26.4212 14.0007 26.9357 13.5695C27.9746 12.6989 28.4999 11.9228 28.4999 11C28.4999 10.2357 27.9001 9.508 26.4836 8.75493C25.4649 8.21338 24.2779 7.78814 23.1129 7.37083C22.7019 7.22359 22.2936 7.07734 21.8965 6.92732C21.1766 6.65535 20.4617 6.35761 19.9238 6.00994C19.4461 5.70113 18.7349 5.11214 18.7991 4.17269C18.8295 3.72687 19.0345 3.35178 19.2817 3.05371C19.5274 2.7575 19.855 2.48751 20.2341 2.23341C20.9915 1.72578 22.1073 1.18149 23.6277 0.571858C24.1403 0.366321 24.7225 0.615256 24.9281 1.12787ZM20.758 4.12727C20.7584 4.12726 20.7611 4.13056 20.7649 4.13721C20.7595 4.13061 20.7576 4.12728 20.758 4.12727ZM20.7769 4.39175C20.7765 4.39278 20.7762 4.3933 20.7762 4.39331L20.7769 4.39175Z" fill="currentColor"/>
</svg>
