<svg width="40" height="40" viewBox="0 0 40 40" fill="none" xmlns="http://www.w3.org/2000/svg">
<g clip-path="url(#clip0_657_335)">
<path fill-rule="evenodd" clip-rule="evenodd" d="M24.6706 1.63217L24.8101 1.65792C27.0949 2.07985 28.0004 4.82812 26.4035 6.49384L26.306 6.59549L26.3243 6.7342C26.6234 9.00746 24.2527 10.706 22.1527 9.72297L22.0246 9.66299L21.8964 9.72297C19.7965 10.706 17.4258 9.00747 17.7249 6.73421L17.7431 6.59549L17.6457 6.49384C16.0487 4.82812 16.9542 2.07985 19.2391 1.65792L19.3785 1.63217L19.4464 1.50937C20.5594 -0.503117 23.4897 -0.503126 24.6027 1.50936L24.6706 1.63217ZM22.884 2.43373C22.513 1.7629 21.5362 1.7629 21.1652 2.43373L20.8748 2.95882C20.734 3.21339 20.4846 3.39207 20.1956 3.44545L19.5994 3.55554C18.8378 3.69618 18.536 4.61227 19.0683 5.16751L19.485 5.60212C19.687 5.81284 19.7823 6.10194 19.7444 6.38951L19.6664 6.98264C19.5667 7.74039 20.3569 8.30656 21.0569 7.97889L21.6048 7.72241C21.8704 7.59806 22.1787 7.59806 22.4443 7.72241L22.9923 7.97889C23.6922 8.30656 24.4825 7.74039 24.3828 6.98263L24.3047 6.38951C24.2669 6.10194 24.3621 5.81284 24.5642 5.60212L24.9808 5.16751C25.5132 4.61227 25.2113 3.69618 24.4497 3.55554L23.8536 3.44545C23.5645 3.39207 23.3151 3.21339 23.1743 2.95882L22.884 2.43373ZM14.8623 5.62061C15.2996 4.4594 15.025 3.22018 14.3343 2.39343C13.6132 1.53019 12.3729 1.07381 11.1035 1.72313C4.50883 5.09641 0 11.8925 0 19.7286C0 30.9242 9.20324 40 20.5565 40C25.8791 40 30.7311 38.004 34.3812 34.7313C35.3271 33.8832 35.3481 32.7031 34.8602 31.8242C34.3914 30.9797 33.4359 30.347 32.303 30.347C29.6955 30.347 27.9904 30.2297 26.4136 29.7351C25.6404 29.4926 24.879 29.1531 24.046 28.6688H28.9079C31.3973 28.6688 33.4154 26.6787 33.4154 24.2238C33.4154 22.2352 32.0912 20.5516 30.2648 19.9837C29.7421 16.2795 26.5321 13.4287 22.6502 13.4287C19.2539 13.4287 16.372 15.6108 15.354 18.6374C15.1494 18.1892 14.9495 17.7353 14.7575 17.2071C14.3406 16.06 13.9434 14.5115 13.7044 11.9625C13.7096 9.73091 14.1186 7.595 14.8623 5.62061ZM13.7287 19.7788L13.6873 19.6886L13.6873 19.6886L13.6336 19.5717C13.4037 19.0705 13.1546 18.5189 12.9145 17.8584C12.4303 16.5259 12.0015 14.8025 11.7506 12.094L11.7466 12.0502V12.0062C11.7466 9.52591 12.1987 7.14756 13.027 4.94841C13.2127 4.45533 13.0865 3.93602 12.8233 3.62095C12.6967 3.46945 12.5613 3.39174 12.4465 3.36325C12.344 3.33779 12.2017 3.33628 12.005 3.4369C6.03373 6.49128 1.95776 12.6413 1.95776 19.7286C1.95776 29.858 10.2845 38.0694 20.5565 38.0694C25.3734 38.0694 29.7604 36.2651 33.0642 33.3029C33.1787 33.2002 33.2077 33.1137 33.2155 33.0515C33.2248 32.9782 33.2109 32.8738 33.1429 32.7513C33.0004 32.4946 32.6854 32.2776 32.303 32.2776C29.6713 32.2776 27.7056 32.1663 25.8202 31.5749C24.1079 31.0378 22.526 30.126 20.5846 28.6688H13.3176C10.8282 28.6688 8.81006 26.6787 8.81006 24.2238C8.81006 21.7689 10.8282 19.7788 13.3176 19.7788H13.7287ZM21.2535 26.7382L21.163 26.668L21.1068 26.7382H13.3176C11.9094 26.7382 10.7678 25.6125 10.7678 24.2238C10.7678 22.8351 11.9094 21.7094 13.3176 21.7094H16.7253L16.9984 20.0967C17.4547 17.4012 19.8197 15.3593 22.6502 15.3593C25.5343 15.3593 27.9348 17.4793 28.3258 20.2498L28.4963 21.4581L29.6761 21.825C30.711 22.1468 31.4576 23.1018 31.4576 24.2238C31.4576 25.6125 30.3161 26.7382 28.9079 26.7382H21.2535ZM37.6772 7.79073L37.0799 7.67187L36.7806 7.14834C35.6742 5.21258 32.8474 5.21258 31.741 7.14834L31.4418 7.67187L30.8444 7.79073C28.6356 8.23022 27.7621 10.8814 29.2871 12.5172L29.6995 12.9596L29.6296 13.5566C29.3708 15.764 31.6578 17.4025 33.7067 16.4777L34.2608 16.2276L34.815 16.4777C36.8639 17.4025 39.1508 15.764 38.8921 13.5566L38.8221 12.9596L39.2346 12.5172C40.7596 10.8814 39.8861 8.23022 37.6772 7.79073ZM33.4465 8.0963C33.8041 7.47074 34.7176 7.47074 35.0751 8.0963L35.6043 9.02205C35.7376 9.25543 35.9674 9.42003 36.2337 9.47301L37.29 9.6832C38.0038 9.82522 38.2861 10.682 37.7933 11.2106L37.064 11.9929C36.8801 12.1902 36.7924 12.4565 36.8236 12.7226L36.9473 13.7783C37.0309 14.4916 36.2918 15.0211 35.6297 14.7223L34.6498 14.28C34.4028 14.1685 34.1188 14.1685 33.8718 14.28L32.8919 14.7223C32.2298 15.0211 31.4908 14.4916 31.5744 13.7783L31.6981 12.7226C31.7293 12.4565 31.6415 12.1902 31.4577 11.9929L30.7283 11.2106C30.2355 10.682 30.5178 9.82522 31.2316 9.6832L32.288 9.47301C32.5542 9.42003 32.784 9.25543 32.9174 9.02205L33.4465 8.0963Z" fill="currentColor"/>
</g>
<defs>
<clipPath id="clip0_657_335">
<rect width="40" height="40" fill="white"/>
</clipPath>
</defs>
</svg>
