<svg width="40" height="40" viewBox="0 0 40 40" fill="none" xmlns="http://www.w3.org/2000/svg">
<g clip-path="url(#clip0_1146_3)">
<path d="M18 15H1C0.734784 15 0.48043 14.8946 0.292893 14.7071C0.105357 14.5196 0 14.2652 0 14C0 13.7348 0.105357 13.4804 0.292893 13.2929C0.48043 13.1054 0.734784 13 1 13H18C18.2652 13 18.5196 13.1054 18.7071 13.2929C18.8946 13.4804 19 13.7348 19 14C19 14.2652 18.8946 14.5196 18.7071 14.7071C18.5196 14.8946 18.2652 15 18 15Z" fill="currentColor"/>
<path d="M12 31H5C4.73478 31 4.48043 30.8946 4.29289 30.7071C4.10536 30.5196 4 30.2652 4 30C4 29.7348 4.10536 29.4804 4.29289 29.2929C4.48043 29.1054 4.73478 29 5 29H12C12.2652 29 12.5196 29.1054 12.7071 29.2929C12.8946 29.4804 13 29.7348 13 30C13 30.2652 12.8946 30.5196 12.7071 30.7071C12.5196 30.8946 12.2652 31 12 31Z" fill="currentColor"/>
<path d="M17.8513 15C17.586 15 17.3317 14.8946 17.1441 14.7071C16.9566 14.5196 16.8513 14.2652 16.8513 14C16.8513 13.7348 16.9566 13.4804 17.1441 13.2929C17.3317 13.1054 17.586 13 17.8513 13C18.9864 13 20.075 12.5491 20.8777 11.7464C21.6803 10.9438 22.1312 9.85513 22.1312 8.72C22.1286 7.86681 21.7885 7.04933 21.1852 6.44603C20.5819 5.84273 19.7644 5.50264 18.9113 5.5C18.2808 5.50263 17.677 5.75423 17.2312 6.19999C16.7855 6.64576 16.5339 7.2496 16.5313 7.88C16.5313 8.33087 16.7104 8.76327 17.0292 9.08208C17.348 9.40089 17.7804 9.58 18.2312 9.58C18.4965 9.58 18.7508 9.68536 18.9384 9.87289C19.1259 10.0604 19.2312 10.3148 19.2312 10.58C19.2312 10.8452 19.1259 11.0996 18.9384 11.2871C18.7508 11.4746 18.4965 11.58 18.2312 11.58C17.2499 11.58 16.3088 11.1902 15.615 10.4963C14.9211 9.80241 14.5313 8.8613 14.5312 7.88C14.5312 6.71835 14.9927 5.60428 15.8141 4.78287C16.6355 3.96146 17.7496 3.5 18.9113 3.5C20.2957 3.5 21.6234 4.04996 22.6023 5.0289C23.5813 6.00784 24.1312 7.33557 24.1312 8.72C24.1286 10.3847 23.4661 11.9806 22.289 13.1577C21.1118 14.3349 19.516 14.9974 17.8513 15Z" fill="currentColor"/>
<path d="M21 25H1C0.734784 25 0.48043 25.1054 0.292893 25.2929C0.105357 25.4804 0 25.7348 0 26C0 26.2652 0.105357 26.5196 0.292893 26.7071C0.48043 26.8946 0.734784 27 1 27H21C21.2652 27 21.5196 26.8946 21.7071 26.7071C21.8946 26.5196 22 26.2652 22 26C22 25.7348 21.8946 25.4804 21.7071 25.2929C21.5196 25.1054 21.2652 25 21 25Z" fill="currentColor"/>
<path d="M20.8512 25C20.586 25 20.3317 25.1054 20.1441 25.2929C19.9566 25.4804 19.8512 25.7348 19.8512 26C19.8512 26.2652 19.9566 26.5196 20.1441 26.7071C20.3317 26.8946 20.586 27 20.8512 27C21.4133 27 21.9699 27.1107 22.4891 27.3258C23.0084 27.5409 23.4802 27.8561 23.8777 28.2536C24.2751 28.651 24.5904 29.1228 24.8055 29.6421C25.0205 30.1614 25.1312 30.7179 25.1312 31.28C25.1286 32.1332 24.7885 32.9507 24.1852 33.554C23.5819 34.1573 22.7644 34.4974 21.9112 34.5C21.2808 34.4974 20.677 34.2458 20.2312 33.8C19.7855 33.3542 19.5339 32.7504 19.5312 32.12C19.5312 31.6691 19.7104 31.2367 20.0292 30.9179C20.348 30.5991 20.7804 30.42 21.2312 30.42C21.4965 30.42 21.7508 30.3146 21.9384 30.1271C22.1259 29.9396 22.2312 29.6852 22.2312 29.42C22.2312 29.1548 22.1259 28.9004 21.9384 28.7129C21.7508 28.5254 21.4965 28.42 21.2312 28.42C20.2499 28.42 19.3088 28.8098 18.615 29.5037C17.9211 30.1976 17.5313 31.1387 17.5312 32.12C17.5313 32.6952 17.6445 33.2647 17.8647 33.7962C18.0848 34.3276 18.4074 34.8104 18.8141 35.2171C19.2208 35.6238 19.7037 35.9465 20.2351 36.1666C20.7665 36.3867 21.3361 36.5 21.9112 36.5C23.2957 36.5 24.6234 35.95 25.6023 34.9711C26.5813 33.9922 27.1312 32.6644 27.1312 31.28C27.1286 29.6153 26.4661 28.0194 25.289 26.8423C24.1118 25.6651 22.516 25.0026 20.8512 25Z" fill="currentColor"/>
<path d="M10.3086 17.76H29.5686" stroke="currentColor" stroke-width="2" stroke-miterlimit="10" stroke-linecap="round"/>
<path d="M29.5694 17.7599C31.9694 17.8299 34.7794 16.1399 34.8394 13.7599C34.8636 12.8385 34.5213 11.9452 33.8876 11.2759C33.254 10.6066 32.3807 10.2161 31.4594 10.1899C31.0948 10.1793 30.7316 10.2407 30.3908 10.3708C30.05 10.5009 29.7383 10.697 29.4735 10.9478C29.2087 11.1987 28.996 11.4994 28.8477 11.8327C28.6994 12.166 28.6184 12.5252 28.6094 12.8899" stroke="currentColor" stroke-width="2" stroke-miterlimit="10" stroke-linecap="round"/>
<path d="M19.9414 22.05H32.7814" stroke="currentColor" stroke-width="2" stroke-miterlimit="10" stroke-linecap="round"/>
<path d="M13.5898 22.05H15.7298" stroke="currentColor" stroke-width="2" stroke-miterlimit="10" stroke-linecap="round"/>
<path d="M32.7803 22.05C34.3551 22.0508 35.8714 22.647 37.025 23.719C38.1786 24.791 38.8842 26.2595 39.0003 27.83C39.0163 28.4316 38.9136 29.0303 38.698 29.5921C38.4825 30.1539 38.1584 30.6677 37.7442 31.1042C37.33 31.5407 36.8339 31.8913 36.2841 32.1359C35.7344 32.3806 35.1418 32.5145 34.5403 32.53C33.5807 32.549 32.6522 32.1891 31.9559 31.5284C31.2597 30.8677 30.8517 29.9594 30.8203 29" stroke="currentColor" stroke-width="2" stroke-miterlimit="10" stroke-linecap="round"/>
<path d="M9.37859 23.12C9.96954 23.12 10.4486 22.6409 10.4486 22.05C10.4486 21.459 9.96954 20.98 9.37859 20.98C8.78765 20.98 8.30859 21.459 8.30859 22.05C8.30859 22.6409 8.78765 23.12 9.37859 23.12Z" fill="currentColor"/>
<path d="M6.10125 18.8299C6.69219 18.8299 7.17125 18.3509 7.17125 17.7599C7.17125 17.169 6.69219 16.6899 6.10125 16.6899C5.5103 16.6899 5.03125 17.169 5.03125 17.7599C5.03125 18.3509 5.5103 18.8299 6.10125 18.8299Z" fill="currentColor"/>
</g>
<defs>
<clipPath id="clip0_1146_3">
<rect width="40" height="40" fill="white"/>
</clipPath>
</defs>
</svg>
