<svg width="40" height="40" viewBox="0 0 40 40" fill="none" xmlns="http://www.w3.org/2000/svg">
<path d="M18.25 23.9299C20.4365 23.2572 22.7124 22.92 25 22.9299C25.56 22.9299 26.11 22.9299 26.66 22.9899" stroke="currentColor" stroke-width="2" stroke-miterlimit="10" stroke-linecap="round"/>
<path d="M13.7 35.6701C12.9159 35.1431 12.2642 34.4419 11.7958 33.6214C11.3275 32.8009 11.0551 31.8833 11 30.9401C11 28.5001 12.91 26.3201 15.92 24.8501" stroke="currentColor" stroke-width="2" stroke-miterlimit="10" stroke-linecap="round"/>
<path d="M28.5311 38.69C27.3617 38.856 26.1822 38.9395 25.0011 38.94C22.0375 38.9799 19.0982 38.4009 16.3711 37.24" stroke="currentColor" stroke-width="2" stroke-miterlimit="10" stroke-linecap="round"/>
<path d="M38.6398 29.1201C38.8723 29.699 38.9944 30.3163 38.9998 30.9401C38.9998 33.9401 36.1098 36.5501 31.8398 37.9401" stroke="currentColor" stroke-width="2" stroke-miterlimit="10" stroke-linecap="round"/>
<path d="M29.1992 23.3101C32.0035 23.7164 34.6445 24.8778 36.8392 26.6701" stroke="currentColor" stroke-width="2" stroke-miterlimit="10" stroke-linecap="round"/>
<path d="M20.2919 11.8101C22.0019 12.9201 23.0019 14.3601 23.0019 15.9401C23.0019 17.7101 21.7219 19.3101 19.6719 20.4501" stroke="currentColor" stroke-width="2" stroke-miterlimit="10" stroke-linecap="round"/>
<path d="M16.2109 10.1299C17.6555 10.4572 19.0347 11.0251 20.2909 11.8099" stroke="currentColor" stroke-width="2" stroke-miterlimit="10" stroke-linecap="round"/>
<path d="M1 15.9399C1 12.4699 5.92 9.65991 12 9.65991" stroke="currentColor" stroke-width="2" stroke-miterlimit="10" stroke-linecap="round"/>
<path d="M3.06125 19.61C2.56976 19.2301 2.13826 18.7784 1.78125 18.27" stroke="currentColor" stroke-width="2" stroke-miterlimit="10" stroke-linecap="round"/>
<path d="M17.6986 21.3201C15.8624 21.9381 13.936 22.2457 11.9986 22.2301C8.81426 22.3419 5.67887 21.423 3.05859 19.6101" stroke="currentColor" stroke-width="2" stroke-miterlimit="10" stroke-linecap="round"/>
<path d="M22.45 35.78C18.16 35.22 15 33.26 15 30.94C15 29.02 17.17 27.35 20.35 26.52" stroke="currentColor" stroke-width="2" stroke-miterlimit="10" stroke-linecap="round"/>
<path d="M32.3806 34.3201C30.6707 35.1905 28.8042 35.7106 26.8906 35.8501" stroke="currentColor" stroke-width="2" stroke-miterlimit="10" stroke-linecap="round"/>
<path d="M25 25.9399C30.52 25.9399 35 28.1799 35 30.9399C34.9992 31.3648 34.8963 31.7832 34.7 32.1599" stroke="currentColor" stroke-width="2" stroke-miterlimit="10" stroke-linecap="round"/>
<path d="M25.45 32.9399H25C21.69 32.9399 19 32.0499 19 30.9399C19 29.8299 21.69 28.9399 25 28.9399C28.31 28.9399 31 29.8399 31 30.9399C30.9893 31.0782 30.95 31.2127 30.8846 31.3349C30.8192 31.4571 30.7291 31.5644 30.62 31.6499" stroke="currentColor" stroke-width="2" stroke-miterlimit="10" stroke-linecap="round"/>
<path d="M12.5495 19.0001H11.9995C10.4783 19.0189 8.96454 18.7858 7.51953 18.3101" stroke="currentColor" stroke-width="2" stroke-miterlimit="10" stroke-linecap="round"/>
<path d="M12.3086 13C15.9986 13.07 18.9986 14.39 18.9986 16C18.9986 16.91 18.0586 17.72 16.5686 18.27" stroke="currentColor" stroke-width="2" stroke-miterlimit="10" stroke-linecap="round"/>
<path d="M12 13H12.31" stroke="currentColor" stroke-width="2" stroke-miterlimit="10" stroke-linecap="round"/>
<path d="M7.52 18.3099C6 17.7599 5 16.9299 5 15.9999C5 15.0699 6 14.2399 7.52 13.6899" stroke="currentColor" stroke-width="2" stroke-miterlimit="10" stroke-linecap="round"/>
<path d="M31 14C31 14.5304 30.7893 15.0391 30.4142 15.4142C30.0391 15.7893 29.5304 16 29 16C28.4696 16 27.9609 15.7893 27.5858 15.4142C27.2107 15.0391 27 14.5304 27 14C27 12.9 29 11 29 11C29 11 31 12.9 31 14Z" stroke="currentColor" stroke-width="2" stroke-miterlimit="10" stroke-linecap="round"/>
<path d="M15 5C15 5.53043 14.7893 6.03914 14.4142 6.41421C14.0391 6.78929 13.5304 7 13 7C12.4696 7 11.9609 6.78929 11.5858 6.41421C11.2107 6.03914 11 5.53043 11 5C11 3.9 13 2 13 2C13 2 15 3.9 15 5Z" stroke="currentColor" stroke-width="2" stroke-miterlimit="10" stroke-linecap="round"/>
<path d="M37 5C37 5.53043 36.7893 6.03914 36.4142 6.41421C36.0391 6.78929 35.5304 7 35 7C34.4696 7 33.9609 6.78929 33.5858 6.41421C33.2107 6.03914 33 5.53043 33 5C33 3.9 35 2 35 2C35 2 37 3.9 37 5Z" stroke="currentColor" stroke-width="2" stroke-miterlimit="10" stroke-linecap="round"/>
</svg>
