<svg width="40" height="40" viewBox="0 0 40 40" fill="none" xmlns="http://www.w3.org/2000/svg">
<g clip-path="url(#clip0_824_865)">
<path fill-rule="evenodd" clip-rule="evenodd" d="M7.58015 22.5193L8.17827 19.9957L4.98062 14.8115C4.53219 15.3233 4.11835 15.8261 3.75129 16.3117L7.58015 22.5193ZM6.92785 25.2715L6.45886 27.2503C3.2504 25.9909 1.37381 22.5312 2.19172 19.0803C2.24998 18.8345 2.36638 18.5307 2.54874 18.1718L6.92785 25.2715ZM9.73246 13.4383L8.83057 17.2436L6.38964 13.2862C8.32613 11.2847 10.4895 9.37833 12.0299 8.08017C12.824 9.93174 13.9017 12.6065 14.7339 15.2643L10.7766 17.7052L11.6785 13.8995C11.8059 13.3621 11.4735 12.8232 10.9361 12.6959C10.3987 12.5685 9.85983 12.9009 9.73246 13.4383ZM8.87393 25.7328L8.40496 27.7115C11.8372 28.0259 15.0668 25.7765 15.8847 22.3257C15.9429 22.0799 15.9752 21.7563 15.9733 21.3539L8.87393 25.7328ZM15.7336 19.1519L9.52623 22.9806L10.1243 20.4574L15.3084 17.2598C15.4794 17.9183 15.6235 18.5533 15.7336 19.1519ZM5.99397 29.2117C1.71053 27.6852 -0.827358 23.1462 0.245633 18.619C1.09739 15.0253 7.55844 9.22405 10.8599 6.4509C11.8401 5.62749 13.3003 5.97358 13.8068 7.14935C15.5124 11.1092 18.6825 19.1932 17.8307 22.7869C16.7578 27.314 12.4529 30.2311 7.94007 29.6729L7.09389 33.2431C6.96652 33.7805 6.42762 34.1129 5.89022 33.9856C5.35282 33.8582 5.02043 33.3193 5.1478 32.7819L5.99397 29.2117Z" fill="currentColor"/>
<path fill-rule="evenodd" clip-rule="evenodd" d="M23.5535 31.0761L25.7452 29.8107L27.2951 24.0262C26.6317 24.051 25.9978 24.0941 25.407 24.1587L23.5535 31.0761ZM21.104 32.4903L23.2281 24.5633C22.8603 24.673 22.5733 24.792 22.3638 24.9129C19.3423 26.6574 18.1308 30.3331 19.3885 33.4808L21.104 32.4903ZM31.5185 26.4775L28.1947 28.3965L29.3717 24.0039C32.1069 24.0387 34.9265 24.2981 36.902 24.5241C36.1099 26.3479 34.9248 28.9194 33.5872 31.3056L29.1946 30.1286L32.5185 28.2096C32.9968 27.9334 33.1606 27.3218 32.8845 26.8435C32.6084 26.3652 31.9968 26.2014 31.5185 26.4775ZM24.5532 32.8083L26.7451 31.5428L32.5297 33.0928C32.1765 33.655 31.8221 34.1825 31.4707 34.6619L24.5532 32.8083ZM22.1037 34.2226L20.3884 35.2128C22.4856 37.8758 26.2746 38.6645 29.2961 36.92C29.5055 36.7991 29.752 36.6101 30.0308 36.3466L22.1037 34.2226ZM17.6423 34.4889L14.5002 36.303C14.0219 36.5792 13.858 37.1908 14.1341 37.6691C14.4103 38.1473 15.0219 38.3112 15.5002 38.0351L18.6423 36.221C21.3041 39.837 26.3166 40.9496 30.2961 38.6521C33.4509 36.8307 37.1037 29.0978 38.7988 25.1769C39.3068 24.0018 38.5567 22.7025 37.285 22.555C33.0419 22.0625 24.5186 21.3595 21.3638 23.1809C17.3844 25.4784 15.8416 30.3757 17.6423 34.4889Z" fill="currentColor"/>
<path fill-rule="evenodd" clip-rule="evenodd" d="M28.7765 10.4139L26.7488 9.24327L21.2648 10.7127C21.5924 11.232 21.9207 11.7195 22.246 12.1638L28.7765 10.4139ZM31.226 11.8282L23.6951 13.846C23.9351 14.0668 24.1472 14.2265 24.328 14.3309C27.1982 15.988 30.7939 15.2502 32.8011 12.7376L31.226 11.8282ZM21.1668 6.02053L24.2993 7.82906L20.2061 8.92584C18.9428 6.67016 17.8207 4.24342 17.0589 2.49425C18.9546 2.27938 21.6174 2.03781 24.2025 2.00401L25.2992 6.09694L22.1668 4.28848C21.6885 4.01233 21.077 4.17621 20.8008 4.6545C20.5247 5.13279 20.6885 5.74439 21.1668 6.02053ZM29.7761 8.68169L27.7487 7.51115L26.2793 2.02745C26.8928 2.05151 27.479 2.09204 28.0264 2.1516L29.7761 8.68169ZM32.2256 10.0959L33.8011 11.0055C34.9733 8.01091 33.8144 4.5282 30.9443 2.87115C30.7635 2.76676 30.519 2.66293 30.2078 2.56545L32.2256 10.0959ZM34.5485 13.7464C31.9755 17.2118 27.1562 18.2732 23.328 16.063C20.3064 14.3184 16.8111 6.95181 15.1611 3.14523C14.652 1.97063 15.402 0.671608 16.6738 0.52523C20.7954 0.0508621 28.9227 -0.605436 31.9443 1.1391C35.7725 3.34928 37.263 8.05346 35.5484 12.0143L38.5831 13.7664C39.0614 14.0426 39.2253 14.6541 38.9491 15.1324C38.673 15.6107 38.0614 15.7746 37.5831 15.4985L34.5485 13.7464Z" fill="currentColor"/>
</g>
<defs>
<clipPath id="clip0_824_865">
<rect width="40" height="40" fill="white"/>
</clipPath>
</defs>
</svg>
