<svg width="40" height="40" viewBox="0 0 40 40" fill="none" xmlns="http://www.w3.org/2000/svg">
<g clip-path="url(#clip0_657_312)">
<path fill-rule="evenodd" clip-rule="evenodd" d="M11.0349 12.643C11.5888 12.5046 12.1575 12.2671 12.7006 11.9793C13.4862 11.5629 14.283 11.0066 14.9983 10.3761C15.7118 9.74718 16.3688 9.02268 16.8546 8.25941C17.3076 7.54766 17.6562 6.7318 17.6916 5.88849C17.7352 5.70101 17.7726 5.43126 17.6994 5.15074C17.6426 4.93298 17.5204 4.71232 17.3135 4.54199C17.1195 4.38239 16.9133 4.31827 16.7651 4.2909C16.5034 4.24257 16.2411 4.27938 16.0978 4.30093C15.9841 4.31802 15.8449 4.34361 15.7101 4.36841C15.6519 4.37911 15.5946 4.38966 15.5404 4.39931C14.7802 4.53481 13.6157 4.69447 12.0125 4.25458C10.9601 3.9658 10.0929 4.22628 9.38403 4.69442C9.18589 4.82526 8.99404 4.97749 8.81061 5.13839C8.7342 4.98196 8.64489 4.82032 8.53859 4.65937C7.99861 3.84175 7.1295 3.20215 5.66973 2.9068L5.57348 2.88733L5.47532 2.88733C5.29151 2.88732 4.96915 2.77681 4.49501 2.44456C4.04494 2.12917 3.59029 1.71044 3.14943 1.29275L3.0295 1.17894C2.85724 1.01533 2.68479 0.851526 2.5285 0.71064C2.34432 0.544609 2.12787 0.359545 1.91401 0.228652C1.80887 0.164298 1.64727 0.0768445 1.44979 0.0312172C1.24456 -0.0162017 0.900216 -0.0380676 0.565669 0.181417C0.241732 0.393941 0.118864 0.708222 0.0715031 0.901559C0.0293921 1.07347 0.0228982 1.24156 0.0272359 1.38095C-0.0228111 2.49306 -0.0270797 4.14427 0.220327 5.73144C0.460841 7.27439 0.979691 9.0456 2.20764 10.0392C2.62603 10.3777 2.94596 10.6014 3.19695 10.7662C3.33111 10.8544 3.41923 10.9098 3.48446 10.9508C3.56168 10.9994 3.60684 11.0279 3.65831 11.0664C3.66141 11.0687 3.66404 11.0707 3.66628 11.0723C3.67688 11.0802 3.67934 11.0832 3.67934 11.0832L3.67972 11.0843C3.67972 11.0843 3.68053 11.087 3.68222 11.09C3.71296 11.1447 3.76557 11.2649 3.86888 11.5784C4.01169 12.0117 4.02538 12.5994 3.97743 13.1491C3.95462 13.4106 3.92026 13.6385 3.89179 13.7998C3.87762 13.88 3.86512 13.9427 3.85657 13.9835C3.8523 14.0038 3.84903 14.0187 3.84706 14.0275L3.84537 14.035L3.845 14.0366C3.83369 14.0846 3.82601 14.1326 3.82176 14.1803C3.75311 14.5113 3.66541 14.8688 3.57056 15.2554C2.97641 17.677 2.10168 21.2422 3.87291 26.6161C4.97976 29.9742 7.75832 32.1762 10.1132 33.5127C11.3058 34.1895 12.4299 34.6674 13.2557 34.9764L13.2606 34.9782C12.676 35.5483 12.2564 36.1144 11.9571 36.6379C11.6251 37.2187 11.4497 37.732 11.3575 38.117C11.3115 38.3091 11.2863 38.4687 11.2725 38.5883C11.2656 38.6481 11.2616 38.698 11.2593 38.7369C11.2581 38.7564 11.2573 38.7732 11.2568 38.7872L11.2563 38.806L11.2562 38.8138L11.2561 38.8173C11.2561 38.8173 11.3761 37.8149 11.2561 38.8189C11.136 39.8228 11.702 39.7731 12.2423 39.8407C12.3251 39.8511 12.4439 39.8651 12.5938 39.8806C12.8932 39.9115 13.3178 39.9482 13.8262 39.9727C14.8374 40.0215 16.206 40.023 17.591 39.8228C18.9595 39.6251 20.4418 39.2173 21.6043 38.3774C22.1774 37.9633 22.6646 37.4487 23.019 36.8254H31.0793C36.0061 36.8254 40 32.7859 40 27.8028V22.7903C40 17.8083 36.0139 13.7677 31.086 13.7677H27.6102C21.7015 13.7677 18.2896 15.3192 15.6591 17.1051C15.5231 17.1974 15.3895 17.2902 15.258 17.3831C13.1694 18.1886 12.0697 18.0967 11.5261 17.8355C11.0384 17.6012 10.734 17.0914 10.6291 16.216C10.5246 15.344 10.6542 14.3269 10.8315 13.4825C10.8996 13.1586 10.9721 12.8715 11.0349 12.643ZM3.36605 4.09267C2.86374 3.74068 2.38598 3.31168 1.98492 2.9359C1.99643 3.722 2.04903 4.58853 2.17851 5.41919C2.40972 6.90246 2.84505 7.98725 3.44602 8.47352C3.8081 8.7665 4.07434 8.95184 4.27656 9.08465C4.3251 9.11653 4.38159 9.15248 4.44102 9.19031C4.57774 9.27732 4.7302 9.37436 4.83727 9.45447C5.05767 9.61938 5.24527 9.81385 5.40564 10.0992C5.54159 10.3411 5.64539 10.6284 5.74952 10.9443C6.0216 11.7699 6.0079 12.6859 5.95213 13.3253C5.92308 13.6583 5.87965 13.9463 5.8433 14.1522C5.82775 14.2403 5.81336 14.3141 5.8017 14.371C5.79849 14.4024 5.79379 14.4338 5.78755 14.4654C5.705 14.8828 5.60001 15.3152 5.48951 15.7702C4.90796 18.1649 4.17366 21.1887 5.75354 25.982C6.62927 28.6389 8.89225 30.5206 11.0833 31.7641C12.1636 32.3773 13.1885 32.8134 13.9436 33.096C14.3202 33.2369 14.6273 33.3387 14.8376 33.4046C14.9427 33.4376 15.0235 33.4614 15.0764 33.4767C15.1029 33.4843 15.1224 33.4898 15.1345 33.4931L15.1482 33.4969C15.1613 33.5004 15.1748 33.5043 15.1877 33.5083C15.5216 33.3061 15.8832 33.108 16.2748 32.9159C16.7673 32.6742 17.3603 32.8821 17.5993 33.3802C17.8382 33.8783 17.6327 34.4781 17.1402 34.7198C15.0836 35.729 14.1253 36.8508 13.6732 37.6416C13.6121 37.7485 13.5596 37.8505 13.5144 37.9466C13.6416 37.9551 13.7774 37.9631 13.9205 37.97C14.8607 38.0153 16.0938 38.0138 17.3106 37.838C18.5438 37.6598 19.6633 37.3157 20.452 36.7459C21.1901 36.2126 21.6629 35.4717 21.6628 34.3192C21.6628 33.7656 22.1065 33.3167 22.6539 33.3166C23.2013 33.3166 23.6451 33.7654 23.6452 34.3191C23.6452 34.4907 23.6381 34.6578 23.6243 34.8204H31.0793C33.2349 34.8204 35.161 33.8261 36.4335 32.2663C35.4048 32.5821 34.2685 32.8302 33.1399 32.9933C30.9221 33.3137 28.5077 33.3394 26.8007 32.764C26.2814 32.5889 26.0007 32.0212 26.1738 31.4959C26.3468 30.9707 26.9081 30.6868 27.4275 30.8618C28.6945 31.2889 30.7408 31.3145 32.8595 31.0084C34.8412 30.7221 36.6873 30.1748 37.7961 29.5686C37.9407 29.0044 38.0176 28.4127 38.0176 27.8028V22.7903C38.0176 18.9135 34.9169 15.7727 31.086 15.7727H27.6102C22.1201 15.7727 19.0893 17.1911 16.7639 18.7699C16.1696 19.1734 15.6155 19.5916 15.0647 20.0146C14.971 20.0865 14.8771 20.1589 14.7829 20.2314C14.3301 20.5801 13.8718 20.9331 13.4093 21.2654C12.2816 22.0756 11.0616 22.8138 9.5461 23.2528C9.01984 23.4052 8.47104 23.0973 8.32034 22.565C8.16964 22.0327 8.47409 21.4777 9.00035 21.3252C10.0187 21.0303 10.8954 20.5613 11.7677 19.9746C11.3721 19.9156 11.0083 19.8065 10.6756 19.6466C9.30481 18.9881 8.80396 17.6495 8.6611 16.4572C8.51783 15.2615 8.698 13.9917 8.8924 13.0659C8.99156 12.5938 9.09888 12.1909 9.18182 11.9046C9.22338 11.7612 9.25906 11.6462 9.28489 11.5655C9.28891 11.553 9.29271 11.5412 9.29624 11.5303C9.39259 11.1209 9.73924 10.8015 10.1765 10.7637C10.5704 10.7298 11.1285 10.5489 11.7805 10.2033C12.4192 9.86478 13.0889 9.39965 13.6959 8.86457C14.3047 8.32788 14.8259 7.74256 15.1877 7.17413C15.36 6.90339 15.4857 6.65313 15.5708 6.42662C14.6522 6.57012 13.2747 6.67842 11.4935 6.18965C11.0887 6.0786 10.7991 6.15448 10.4678 6.3733C10.1403 6.58951 9.84669 6.89124 9.45553 7.29317C9.35989 7.39144 9.25836 7.49577 9.14914 7.60624L8.16712 8.59947L7.55763 7.33732C7.44442 7.10289 7.34544 6.82696 7.26706 6.60849C7.24499 6.54697 7.22452 6.4899 7.20586 6.4397C7.10679 6.17316 7.01376 5.96023 6.89016 5.77307C6.68619 5.46423 6.31866 5.09875 5.36062 4.88964C4.5976 4.85371 3.89997 4.46681 3.36605 4.09267Z" fill="currentColor"/>
<path d="M28 27.5C28 28.3284 27.3284 29 26.5 29C25.6716 29 25 28.3284 25 27.5C25 26.6716 25.6716 26 26.5 26C27.3284 26 28 26.6716 28 27.5Z" fill="currentColor"/>
</g>
<defs>
<clipPath id="clip0_657_312">
<rect width="40" height="40" fill="white"/>
</clipPath>
</defs>
</svg>
