<svg width="40" height="40" viewBox="0 0 40 40" fill="none" xmlns="http://www.w3.org/2000/svg">
<path fill-rule="evenodd" clip-rule="evenodd" d="M33.5698 15.9403L30.5718 11.6263C25.47 4.28515 14.53 4.28515 9.42826 11.6263L6.43023 15.9403C0.564467 24.3808 6.66105 35.8796 17.002 35.8796H22.998C33.3389 35.8796 39.4355 24.3808 33.5698 15.9403ZM32.3337 10.4235C26.3817 1.85884 13.6183 1.85884 7.6663 10.4235L4.66827 14.7375C-2.17511 24.5848 4.93756 38 17.002 38H22.998C35.0624 38 42.1751 24.5848 35.3317 14.7375L32.3337 10.4235Z" fill="currentColor"/>
<path fill-rule="evenodd" clip-rule="evenodd" d="M30.0837 28.1675C29.8949 28.7081 30.2074 29.3518 30.7816 29.6052L37.3168 32.4893C37.891 32.7427 38.5095 32.5099 38.6982 31.9693C38.887 31.4287 38.5746 30.785 38.0004 30.5316L31.4652 27.6475C30.891 27.3941 30.2725 27.6269 30.0837 28.1675Z" fill="currentColor"/>
<path fill-rule="evenodd" clip-rule="evenodd" d="M31.7441 23.3845C31.7069 22.8123 32.1193 22.3112 32.6651 22.2654L38.7282 21.7561C39.2741 21.7102 39.7467 22.1369 39.7839 22.7091C39.8211 23.2814 39.4088 23.7824 38.863 23.8283L32.7998 24.3376C32.254 24.3834 31.7814 23.9567 31.7441 23.3845Z" fill="currentColor"/>
<path fill-rule="evenodd" clip-rule="evenodd" d="M9.89767 28.1792C10.0864 28.7198 9.77379 29.3636 9.19939 29.6172L2.66168 32.5028C2.08728 32.7563 1.46863 32.5236 1.27988 31.9829C1.09113 31.4423 1.40376 30.7985 1.97816 30.545L8.51587 27.6594C9.09027 27.4058 9.70892 27.6386 9.89767 28.1792Z" fill="currentColor"/>
<path fill-rule="evenodd" clip-rule="evenodd" d="M8.25585 23.3845C8.29306 22.8123 7.88073 22.3112 7.33489 22.2654L1.27178 21.7561C0.725939 21.7102 0.253287 22.1369 0.216082 22.7091C0.178877 23.2814 0.591206 23.7824 1.13705 23.8283L7.20016 24.3376C7.746 24.3834 8.21865 23.9567 8.25585 23.3845Z" fill="currentColor"/>
<path fill-rule="evenodd" clip-rule="evenodd" d="M20.09 5C20.639 5 21.084 5.44771 21.084 6V14C21.084 14.5523 20.639 15 20.09 15C19.5411 15 19.0961 14.5523 19.0961 14L19.0961 6C19.0961 5.44771 19.5411 5 20.09 5Z" fill="currentColor"/>
<path fill-rule="evenodd" clip-rule="evenodd" d="M15.1203 6C15.6693 6 16.1143 6.44772 16.1143 7V12C16.1143 12.5523 15.6693 13 15.1203 13C14.5714 13 14.1264 12.5523 14.1264 12V7C14.1264 6.44772 14.5714 6 15.1203 6Z" fill="currentColor"/>
<path fill-rule="evenodd" clip-rule="evenodd" d="M25.0597 6C25.6086 6 26.0536 6.44772 26.0536 7V12C26.0536 12.5523 25.6086 13 25.0597 13C24.5108 13 24.0658 12.5523 24.0658 12V7C24.0658 6.44772 24.5108 6 25.0597 6Z" fill="currentColor"/>
<path fill-rule="evenodd" clip-rule="evenodd" d="M6.87961 4.32691C5.31221 3.73619 3.92146 3.86534 2.95735 4.60764C2.59846 4.88396 2.24242 5.53248 2.03218 6.66014C1.82902 7.74989 1.7948 9.11788 1.92381 10.5854C2.18428 13.5481 3.08454 16.6605 4.31101 18.4464C4.61107 18.8834 4.51979 19.4952 4.10713 19.8129C3.69447 20.1306 3.11669 20.034 2.81663 19.597C1.32223 17.4209 0.361394 13.921 0.0840843 10.7667C-0.0557866 9.17574 -0.028067 7.60909 0.219484 6.28125C0.45997 4.99131 0.943412 3.73929 1.87073 3.02532C3.47903 1.78704 5.55888 1.75252 7.49918 2.48378C9.44737 3.21801 11.3658 4.7535 12.8233 6.87589C13.1233 7.31283 13.0321 7.92461 12.6194 8.24233C12.2067 8.56005 11.629 8.4634 11.3289 8.02646C10.0656 6.1868 8.43913 4.91466 6.87961 4.32691Z" fill="currentColor"/>
<path fill-rule="evenodd" clip-rule="evenodd" d="M1.67762 5.23888C1.726 5.24643 2.80794 5.26752 2.93483 5.32088C3.31921 5.48254 3.8587 5.85543 4.48507 6.45342C5.72654 7.63862 6.12085 8.42909 7.04361 10.517C7.28726 11.0683 7.87149 11.2964 8.34853 11.0264C8.82557 10.7564 9.01478 10.0906 8.77113 9.53927C7.7211 7.16335 7.15249 6.13063 5.71181 4.75523C4.9971 4.07292 4.25766 3.52214 3.57605 3.23548C2.9634 2.97782 1.98988 2.78354 1.32648 3.62568C0.970546 4.07751 1.00652 4.78066 1.40682 5.19621C1.77228 5.57558 1.31505 5.58408 1.67762 5.23888ZM2.00018 5C2.00018 5 1.62581 5.23474 1.64115 5.23518C1.62828 5.2388 2.00018 5 2.00018 5Z" fill="currentColor"/>
<path fill-rule="evenodd" clip-rule="evenodd" d="M33.1204 4.32691C34.6878 3.73619 36.0785 3.86534 37.0426 4.60764C37.4015 4.88396 37.7576 5.53248 37.9678 6.66014C38.171 7.74989 38.2052 9.11788 38.0762 10.5854C37.8157 13.5481 36.9155 16.6605 35.689 18.4464C35.3889 18.8834 35.4802 19.4952 35.8929 19.8129C36.3055 20.1306 36.8833 20.034 37.1834 19.597C38.6778 17.4209 39.6386 13.921 39.9159 10.7667C40.0558 9.17574 40.0281 7.60909 39.7805 6.28125C39.54 4.99131 39.0566 3.73929 38.1293 3.02532C36.521 1.78704 34.4411 1.75252 32.5008 2.48378C30.5526 3.21801 28.6342 4.7535 27.1767 6.87589C26.8767 7.31283 26.9679 7.92461 27.3806 8.24233C27.7933 8.56005 28.371 8.4634 28.6711 8.02646C29.9344 6.1868 31.5609 4.91466 33.1204 4.32691Z" fill="currentColor"/>
<path fill-rule="evenodd" clip-rule="evenodd" d="M38.3226 5.23889C38.2742 5.24644 37.1922 5.26753 37.0653 5.3209C36.681 5.48255 36.1415 5.85544 35.5151 6.45343C34.2736 7.63863 33.8793 8.4291 32.9566 10.517C32.7129 11.0683 32.1287 11.2964 31.6516 11.0264C31.1746 10.7564 30.9854 10.0906 31.229 9.53928C32.2791 7.16336 32.8477 6.13064 34.2884 4.75524C35.0031 4.07293 35.7425 3.52215 36.4241 3.23549C37.0368 2.97783 38.0103 2.78355 38.6737 3.62569C39.0296 4.07753 38.9937 4.78067 38.5934 5.19622C38.2279 5.57559 38.6851 5.58409 38.3226 5.23889ZM38 5.00001C38 5.00001 38.3744 5.23475 38.359 5.23519C38.3719 5.23881 38 5.00001 38 5.00001Z" fill="currentColor"/>
<path fill-rule="evenodd" clip-rule="evenodd" d="M12.9299 19.6327C12.7365 19.1416 12.1902 18.8824 11.6836 19.0513C11.1596 19.226 10.8765 19.7923 11.0511 20.3162L11.9998 20C11.0511 20.3162 11.0516 20.3176 11.0516 20.3176L11.052 20.3191L11.053 20.322L11.0552 20.3282L11.06 20.3418C11.0634 20.3514 11.0674 20.362 11.0719 20.3737C11.081 20.397 11.0923 20.4243 11.1063 20.4551C11.1341 20.5167 11.1726 20.5926 11.2246 20.6777C11.3288 20.8482 11.4881 21.0571 11.724 21.2593C12.2128 21.6782 12.9495 22 13.9998 22C15.05 22 15.7868 21.6782 16.2756 21.2593C16.5115 21.0571 16.6708 20.8482 16.7749 20.6777C16.827 20.5926 16.8655 20.5167 16.8933 20.4551C16.9072 20.4243 16.9186 20.397 16.9276 20.3737C16.9322 20.362 16.9361 20.3514 16.9396 20.3418L16.9444 20.3282L16.9465 20.322L16.9475 20.3191L16.948 20.3176C16.948 20.3176 16.9485 20.3162 15.9998 20L16.9485 20.3162C17.1231 19.7923 16.84 19.226 16.316 19.0513C15.8094 18.8824 15.2631 19.1416 15.0697 19.6327L15.0684 19.6348C15.058 19.6518 15.0298 19.6929 14.974 19.7407C14.8795 19.8218 14.6162 20 13.9998 20C13.3834 20 13.1201 19.8218 13.0256 19.7407C12.9698 19.6929 12.9416 19.6518 12.9312 19.6348L12.9299 19.6327Z" fill="currentColor"/>
<path fill-rule="evenodd" clip-rule="evenodd" d="M24.9299 19.6327C24.7365 19.1416 24.1902 18.8824 23.6836 19.0513C23.1596 19.226 22.8765 19.7923 23.0511 20.3162L23.9998 20C23.0511 20.3162 23.0516 20.3176 23.0516 20.3176L23.052 20.3191L23.053 20.322L23.0552 20.3282L23.06 20.3418C23.0634 20.3514 23.0674 20.362 23.0719 20.3737C23.081 20.397 23.0923 20.4243 23.1063 20.4551C23.1341 20.5167 23.1726 20.5926 23.2246 20.6777C23.3288 20.8482 23.4881 21.0571 23.724 21.2593C24.2128 21.6782 24.9495 22 25.9998 22C27.05 22 27.7868 21.6782 28.2756 21.2593C28.5115 21.0571 28.6708 20.8482 28.7749 20.6777C28.827 20.5926 28.8655 20.5167 28.8933 20.4551C28.9072 20.4243 28.9186 20.397 28.9276 20.3737C28.9322 20.362 28.9361 20.3514 28.9396 20.3418L28.9444 20.3282L28.9465 20.322L28.9475 20.3191L28.948 20.3176C28.948 20.3176 28.9485 20.3162 27.9998 20L28.9485 20.3162C29.1231 19.7923 28.84 19.226 28.316 19.0513C27.8094 18.8824 27.2631 19.1416 27.0697 19.6327L27.0684 19.6348C27.058 19.6518 27.0298 19.6929 26.974 19.7407C26.8795 19.8218 26.6162 20 25.9998 20C25.3834 20 25.1201 19.8218 25.0256 19.7407C24.9698 19.6929 24.9416 19.6518 24.9312 19.6348L24.9299 19.6327Z" fill="currentColor"/>
<path d="M20.822 28.8135C20.4244 29.3875 19.5757 29.3876 19.178 28.8136L17.6232 26.5695C17.1637 25.9063 17.6384 25 18.4452 25H21.5546C22.3615 25 22.8361 25.9063 22.3767 26.5695L20.822 28.8135Z" fill="currentColor"/>
<path fill-rule="evenodd" clip-rule="evenodd" d="M20.8969 27.5569C20.6523 27.062 20.0529 26.8589 19.5578 27.1033C19.0626 27.3477 18.8593 27.9473 19.1037 28.4426L20.0004 28C19.1037 28.4426 19.1037 28.4426 19.1037 28.4426L19.1053 28.4458L19.1078 28.4507L19.1153 28.4657C19.1215 28.4779 19.1301 28.4946 19.1409 28.5153C19.1624 28.5568 19.1932 28.6145 19.2325 28.6856C19.311 28.8274 19.4248 29.0239 19.57 29.2501C19.8559 29.6957 20.2828 30.2876 20.8219 30.8039C21.3492 31.3089 22.0724 31.827 22.9545 31.965C23.9036 32.1134 24.8488 31.7944 25.695 30.9775C26.0923 30.594 26.1035 29.9609 25.7199 29.5636C25.3363 29.1662 24.7033 29.155 24.3059 29.5386C23.8363 29.9919 23.4986 30.0257 23.2635 29.989C22.9613 29.9417 22.599 29.7365 22.2053 29.3594C21.8233 28.9937 21.4937 28.5448 21.2533 28.17C21.1353 27.9861 21.0435 27.8275 20.9822 27.7168C20.9516 27.6616 20.9289 27.6188 20.9145 27.5912L20.8993 27.5616L20.8969 27.5569Z" fill="currentColor"/>
<path fill-rule="evenodd" clip-rule="evenodd" d="M19.1035 27.5569C19.3482 27.062 19.9475 26.8589 20.4426 27.1033C20.9378 27.3477 21.1412 27.9473 20.8967 28.4426L20.0004 28C20.8972 28.4426 20.8967 28.4426 20.8967 28.4426L20.8951 28.4458L20.8927 28.4507L20.8851 28.4657C20.8789 28.4779 20.8704 28.4946 20.8596 28.5153C20.838 28.5568 20.8073 28.6145 20.7679 28.6856C20.6894 28.8274 20.5756 29.0239 20.4305 29.2501C20.1446 29.6957 19.7176 30.2876 19.1785 30.8039C18.6512 31.3089 17.928 31.827 17.046 31.965C16.0969 32.1134 15.1517 31.7944 14.3055 30.9775C13.9081 30.594 13.897 29.9609 14.2805 29.5636C14.6641 29.1662 15.2972 29.155 15.6945 29.5386C16.1641 29.9919 16.5018 30.0257 16.7369 29.989C17.0391 29.9417 17.4014 29.7365 17.7952 29.3594C18.1771 28.9937 18.5067 28.5448 18.7472 28.17C18.8652 27.9861 18.957 27.8275 19.0182 27.7168C19.0488 27.6616 19.0715 27.6188 19.0859 27.5912L19.1011 27.5616L19.1035 27.5569Z" fill="currentColor"/>
</svg>
