<svg width="40" height="40" viewBox="0 0 40 40" fill="none" xmlns="http://www.w3.org/2000/svg">
<path fill-rule="evenodd" clip-rule="evenodd" d="M10.7429 2.03546C8.21849 1.88697 5.94186 2.57326 4.3411 3.69037C2.72996 4.81472 1.92772 6.26341 1.92772 7.69294V10.9772C1.92772 12.4067 2.72996 13.8554 4.34111 14.9798C5.94714 16.1005 8.23353 16.7877 10.7679 16.6332C16.2 16.237 18.5163 15.9294 20.8383 15.6211L20.8508 15.6195C23.1011 15.3207 25.3617 15.0211 30.2779 14.6481C30.3506 14.516 30.4309 14.3552 30.5137 14.1633C30.8846 13.3039 31.3255 11.7746 31.3255 9.33506C31.3255 6.89553 30.8846 5.36618 30.5137 4.50678C30.4258 4.30313 30.3408 4.13452 30.2646 3.99803L10.7429 2.03546ZM31.3072 2.14133L10.8956 0.0892987C5.02719 -0.273589 0 3.23471 0 7.69294V10.9772C0 15.4354 5.0272 18.9437 10.8956 18.5808C16.3916 18.1801 18.7465 17.8675 21.1014 17.5548C23.4563 17.2421 25.8112 16.9295 31.3072 16.5288C31.3072 16.5288 33.2532 14.7028 33.2532 9.33506C33.2532 3.9673 31.3072 2.14133 31.3072 2.14133Z" fill="currentColor"/>
<path fill-rule="evenodd" clip-rule="evenodd" d="M10.1206 13.7275C12.516 13.7275 14.4579 11.7612 14.4579 9.33566C14.4579 6.91013 12.516 4.94386 10.1206 4.94386C7.7251 4.94386 5.78319 6.91013 5.78319 9.33566C5.78319 11.7612 7.7251 13.7275 10.1206 13.7275ZM10.1206 15.6794C13.5807 15.6794 16.3857 12.8392 16.3857 9.33566C16.3857 5.83212 13.5807 2.99194 10.1206 2.99194C6.66045 2.99194 3.85547 5.83212 3.85547 9.33566C3.85547 12.8392 6.66045 15.6794 10.1206 15.6794Z" fill="currentColor"/>
<path fill-rule="evenodd" clip-rule="evenodd" d="M7.71094 6.89588C7.71094 6.35687 8.14247 5.91992 8.6748 5.91992H11.5664C12.0987 5.91992 12.5302 6.35687 12.5302 6.89588C12.5302 7.43488 12.0987 7.87183 11.5664 7.87183H8.6748C8.14247 7.87183 7.71094 7.43488 7.71094 6.89588Z" fill="currentColor"/>
<path fill-rule="evenodd" clip-rule="evenodd" d="M7.71094 9.33582C7.71094 8.79681 8.14247 8.35986 8.6748 8.35986H11.5664C12.0987 8.35986 12.5302 8.79681 12.5302 9.33582C12.5302 9.87483 12.0987 10.3118 11.5664 10.3118H8.6748C8.14247 10.3118 7.71094 9.87483 7.71094 9.33582Z" fill="currentColor"/>
<path fill-rule="evenodd" clip-rule="evenodd" d="M7.71094 11.7758C7.71094 11.2368 8.14247 10.7998 8.6748 10.7998H11.5664C12.0987 10.7998 12.5302 11.2368 12.5302 11.7758C12.5302 12.3148 12.0987 12.7517 11.5664 12.7517H8.6748C8.14247 12.7517 7.71094 12.3148 7.71094 11.7758Z" fill="currentColor"/>
<path fill-rule="evenodd" clip-rule="evenodd" d="M17.0911 18.2665L14.696 18.3767C13.4374 18.4346 12.5711 19.6795 12.9406 20.8991L16.5595 32.8433C16.8079 33.6631 17.5556 34.2228 18.4025 34.2228H19.2524C20.578 34.2228 21.7293 32.7603 21.2664 31.1984C20.817 29.682 20.3957 28.0035 20.1801 26.4485C19.8813 24.2946 19.4078 21.7441 19.0149 19.7616C18.8377 18.8672 18.0334 18.2231 17.0911 18.2665ZM14.6085 16.4268C12.0912 16.5427 10.3586 19.0323 11.0976 21.4716L14.7166 33.4158C15.2133 35.0554 16.7087 36.1747 18.4025 36.1747H19.2524C22.01 36.1747 23.9054 33.3118 23.1128 30.6374C22.6769 29.1666 22.2855 27.5937 22.089 26.1771C21.7824 23.9659 21.3 21.3711 20.905 19.3776C20.5364 17.5176 18.8751 16.2304 17.0035 16.3166L14.6085 16.4268Z" fill="currentColor"/>
<path fill-rule="evenodd" clip-rule="evenodd" d="M20.1701 34.4372C20.6828 34.2925 21.2144 34.596 21.3574 35.1152C21.8403 36.8691 23.4018 37.6706 25.2313 37.9436C26.124 38.0768 27.005 38.0675 27.6911 38.0004C28.0337 37.9669 28.3145 37.9203 28.5129 37.875C28.6112 37.8526 28.678 37.833 28.7164 37.8198C29.1357 37.5683 29.6833 37.6732 29.9804 38.078C30.2979 38.5106 30.2089 39.1219 29.7817 39.4434C29.6229 39.5629 29.4461 39.6298 29.3456 39.6648C29.2212 39.7081 29.0817 39.7461 28.9367 39.7792C28.645 39.8457 28.2827 39.9035 27.8763 39.9433C27.0645 40.0226 26.0242 40.0349 24.9502 39.8746C22.8463 39.5607 20.2923 38.5151 19.5005 35.6394C19.3575 35.1202 19.6573 34.582 20.1701 34.4372Z" fill="currentColor"/>
<path fill-rule="evenodd" clip-rule="evenodd" d="M19.5058 22.7995L18.0562 23.0647L18.5703 25.9459L20.02 25.6807L19.5058 22.7995ZM17.7134 21.1439C16.6657 21.3356 15.9699 22.3509 16.1592 23.4118L16.6733 26.293C16.8626 27.3538 17.8654 28.0584 18.9131 27.8667L20.3627 27.6015C21.4104 27.4098 22.1063 26.3944 21.917 25.3336L21.4028 22.4524C21.2135 21.3916 20.2107 20.687 19.163 20.8787L17.7134 21.1439Z" fill="currentColor"/>
<path fill-rule="evenodd" clip-rule="evenodd" d="M31.311 3.84526L31.3127 3.84427L31.3205 3.83992L31.3538 3.82143C31.3837 3.80491 31.4286 3.78025 31.4868 3.74874C31.6032 3.68569 31.7724 3.59542 31.9804 3.48829C32.3976 3.27337 32.9649 2.99363 33.5721 2.73014C34.1843 2.46448 34.8117 2.22647 35.3545 2.08398C35.6256 2.01282 35.8545 1.97116 36.0365 1.95698C36.1262 1.94999 36.1956 1.95043 36.2467 1.95454C36.2718 1.95655 36.2903 1.95928 36.3032 1.96175C36.3161 1.96421 36.3217 1.96612 36.3214 1.96601C36.5692 2.04964 36.7624 2.16185 36.9311 2.33259C37.1043 2.50803 37.2942 2.78869 37.4687 3.26844C37.8289 4.25838 38.072 5.94433 38.072 8.84778C38.072 11.7443 37.8307 13.5701 37.4588 14.6999C37.0983 15.7947 36.6663 16.1011 36.3214 16.2175C36.212 16.2544 35.8842 16.2727 35.2881 16.1609C34.7402 16.0582 34.1097 15.8753 33.4972 15.6686C32.8891 15.4633 32.3213 15.2423 31.904 15.0718C31.6959 14.9868 31.5267 14.9149 31.4102 14.8646C31.352 14.8395 31.3071 14.8198 31.2772 14.8066L31.2439 14.7918L31.2361 14.7884L31.2345 14.7877C31.2346 14.7877 31.2345 14.7876 31.2345 14.7877C30.7481 14.5689 30.1784 14.7906 29.9622 15.2831C29.746 15.7757 29.9651 16.3524 30.4515 16.5713L30.843 15.6795C30.4515 16.5713 30.4514 16.5713 30.4515 16.5713L30.4562 16.5734L30.4671 16.5783L30.5069 16.5959C30.5413 16.6111 30.5909 16.6329 30.6542 16.6602C30.7806 16.7147 30.9615 16.7915 31.1826 16.8819C31.6238 17.0621 32.2306 17.2986 32.8876 17.5203C33.5402 17.7406 34.2651 17.9542 34.9371 18.0802C35.5609 18.1971 36.3174 18.2764 36.931 18.0693C38.0319 17.6977 38.8046 16.7841 39.2876 15.3171C39.759 13.885 39.9997 11.807 39.9997 8.84778C39.9997 5.89549 39.7608 3.92161 39.2776 2.59366C39.0305 1.91446 38.7083 1.37166 38.2942 0.952376C37.8754 0.528394 37.4061 0.274618 36.931 0.114261C36.2787 -0.105904 35.4905 0.0318281 34.8707 0.194532C34.1936 0.372276 33.4656 0.652736 32.8127 0.936053C32.1549 1.22154 31.5475 1.52128 31.1062 1.74859C30.885 1.86257 30.704 1.9591 30.5776 2.02758C30.5143 2.06183 30.4647 2.08911 30.4303 2.1081L30.3905 2.1302L30.3796 2.13629L30.3755 2.13858C30.3754 2.13866 30.3749 2.13891 30.8428 2.99167L30.3755 2.13858C29.9102 2.40035 29.7419 2.99484 30.0004 3.46601C30.2589 3.93714 30.8456 4.10692 31.311 3.84526Z" fill="currentColor"/>
</svg>
