<svg width="40" height="40" viewBox="0 0 40 40" fill="none" xmlns="http://www.w3.org/2000/svg">
<path d="M28.2959 18.9659C28.4388 18.4325 28.9871 18.1159 29.5206 18.2588C30.0541 18.4018 30.3707 18.9501 30.2277 19.4836L29.1924 23.3473C29.0495 23.8807 28.5012 24.1973 27.9677 24.0544C27.4342 23.9114 27.1177 23.3631 27.2606 22.8296L28.2959 18.9659Z" fill="currentColor"/>
<path d="M4.29587 15.9659C4.43881 15.4325 4.98715 15.1159 5.52061 15.2588C6.05408 15.4018 6.37066 15.9501 6.22772 16.4836L5.19244 20.3473C5.0495 20.8807 4.50117 21.1973 3.9677 21.0544C3.43423 20.9114 3.11765 20.3631 3.26059 19.8296L4.29587 15.9659Z" fill="currentColor"/>
<path d="M13.2959 18.9659C13.4388 18.4325 13.9871 18.1159 14.5206 18.2588C15.0541 18.4018 15.3707 18.9501 15.2277 19.4836L14.1924 23.3473C14.0495 23.8807 13.5012 24.1973 12.9677 24.0544C12.4342 23.9114 12.1177 23.3631 12.2606 22.8296L13.2959 18.9659Z" fill="currentColor"/>
<path d="M34.2959 24.9659C34.4388 24.4325 34.9871 24.1159 35.5206 24.2588C36.0541 24.4018 36.3707 24.9501 36.2277 25.4836L35.1924 29.3473C35.0495 29.8807 34.5012 30.1973 33.9677 30.0544C33.4342 29.9114 33.1177 29.3631 33.2606 28.8296L34.2959 24.9659Z" fill="currentColor"/>
<path d="M6.29587 25.9659C6.43881 25.4325 6.98715 25.1159 7.52061 25.2588C8.05408 25.4018 8.37066 25.9501 8.22772 26.4836L7.19244 30.3473C7.0495 30.8807 6.50117 31.1973 5.9677 31.0544C5.43423 30.9114 5.11765 30.3631 5.26059 29.8296L6.29587 25.9659Z" fill="currentColor"/>
<path fill-rule="evenodd" clip-rule="evenodd" d="M14.0656 2C11.4294 2 9.37247 3.70613 8.9859 5.76764L8.83294 6.58334H6.67213C5.06527 6.58334 4 7.69459 4 8.79167C4 9.88875 5.06527 11 6.67213 11H14.541C15.0933 11 15.541 11.4477 15.541 12C15.541 12.5523 15.0933 13 14.541 13H6.67213C4.22287 13 2 11.2384 2 8.79167C2 6.34492 4.22287 4.58334 6.67213 4.58334H7.23301C8.14615 1.87448 10.9168 0 14.0656 0C15.7755 0 17.3574 0.546813 18.5979 1.47221C19.0406 1.80244 19.1318 2.42901 18.8015 2.87169C18.4713 3.31437 17.8448 3.40553 17.4021 3.0753C16.5104 2.41013 15.3488 2 14.0656 2ZM20 21.5858L36.7071 38.2929C37.0976 38.6834 37.0976 39.3166 36.7071 39.7071C36.3166 40.0976 35.6834 40.0976 35.2929 39.7071L20 24.4142L4.70711 39.7071C4.31658 40.0976 3.68342 40.0976 3.29289 39.7071C2.90237 39.3166 2.90237 38.6834 3.29289 38.2929L20 21.5858Z" fill="currentColor"/>
<path fill-rule="evenodd" clip-rule="evenodd" d="M34.111 8.31803L33.9368 7.06629C33.5374 4.19621 31.0851 2 28.1387 2C25.2472 2 22.8311 4.11523 22.365 6.90761L22.0861 8.57829H18.6048C17.1662 8.57829 16 9.7445 16 11.1831C16 12.6217 17.1662 13.7879 18.6048 13.7879H34.5314C35.97 13.7879 37.1362 12.6217 37.1362 11.1831C37.1362 10.0208 36.3735 9.03139 35.3163 8.69805L34.111 8.31803ZM20.3923 6.57829H18.6048C16.0616 6.57829 14 8.63993 14 11.1831C14 13.7262 16.0616 15.7879 18.6048 15.7879H34.5314C37.0746 15.7879 39.1362 13.7262 39.1362 11.1831C39.1362 9.12299 37.7834 7.37887 35.9177 6.79062C35.3837 2.95323 32.1044 0 28.1387 0C24.2465 0 21.0155 2.84483 20.3923 6.57829Z" fill="currentColor"/>
<path fill-rule="evenodd" clip-rule="evenodd" d="M19 34H21V38H19V34ZM23 32V40H17V32H23Z" fill="currentColor"/>
</svg>
