<svg width="40" height="40" viewBox="0 0 40 40" fill="none" xmlns="http://www.w3.org/2000/svg">
<path d="M27.0032 35.9699C27.5537 35.9671 28 36.4111 28 36.9618C28 37.5124 27.5537 37.961 27.0032 37.9639L19.997 38C19.4464 38.0028 19.0001 37.5588 19.0001 37.0081C19.0001 36.4575 19.4464 36.0088 19.997 36.006L27.0032 35.9699Z" fill="currentColor"/>
<path d="M18.2808 29.7646C18.1258 29.1942 18.4633 28.6069 19.0345 28.4529C19.6057 28.2989 20.1943 28.6364 20.3493 29.2068L22.3196 36.4584C22.4745 37.0288 22.1371 37.616 21.5659 37.7701C20.9947 37.9241 20.406 37.5866 20.251 37.0162L18.2808 29.7646Z" fill="currentColor"/>
<path d="M21.8609 29.9445C21.7059 29.3741 22.0433 28.7868 22.6145 28.6327C23.1857 28.4787 23.7744 28.8162 23.9294 29.3866L25.698 35.8961C25.853 36.4665 25.5156 37.0537 24.9444 37.2078C24.3731 37.3618 23.7845 37.0243 23.6295 36.4539L21.8609 29.9445Z" fill="currentColor"/>
<path d="M29 6.99483C29 7.54654 28.5523 7.99379 28 7.99379C27.4477 7.99379 27 7.54654 27 6.99483C27 6.44312 27.4477 5.99587 28 5.99587C28.5523 5.99587 29 6.44312 29 6.99483Z" fill="currentColor"/>
<path fill-rule="evenodd" clip-rule="evenodd" d="M8.82469 22.4377L9.07718 23.8595C9.49215 26.1963 11.5368 27.9707 13.9917 27.9707H26.0083C28.7651 27.9707 31 25.7355 31 22.9782C31 20.221 28.7651 17.9858 26.0083 17.9858H2.32412C3.06377 20.1994 4.99883 21.8812 7.39585 22.2298L8.82469 22.4377ZM0.242781 17.9858C1.04048 21.2106 3.72446 23.7171 7.108 24.2093C7.68957 27.4842 10.5503 29.971 13.9917 29.971H26.0083C29.8697 29.971 33 26.8402 33 22.9782C33 19.1162 29.8697 15.9855 26.0083 15.9855H0C0 16.6739 0.0840439 17.344 0.242781 17.9858Z" fill="currentColor"/>
<path fill-rule="evenodd" clip-rule="evenodd" d="M33 22.6308C33 22.772 32.9951 22.9121 32.9855 23.0509C32.9766 22.9097 32.9636 22.7696 32.9466 22.6308C32.7536 21.052 32.0474 19.6317 31 18.5419V8.00085C31 5.7914 29.2091 4.00028 27 4.00028C24.7916 4.00028 23 5.79237 23 8.00256V16.3401H21V8.00256C21 4.68827 23.6864 2 27 2C30.3137 2 33 4.68667 33 8.00085V22.6308Z" fill="currentColor"/>
<path fill-rule="evenodd" clip-rule="evenodd" d="M7.75619 22.2719L21.982 23.525C23.6041 23.6679 25 22.3894 25 20.7607C25 19.2282 23.7578 17.9858 22.2254 17.9858H2.32412C3.10033 20.309 5.19332 22.0461 7.75619 22.2719ZM0.242781 17.9858C1.07729 21.3594 3.97615 23.9469 7.58071 24.2644L21.8065 25.5176C24.598 25.7635 27 23.5634 27 20.7607C27 18.1234 24.8623 15.9855 22.2254 15.9855H0C0 16.6739 0.0840439 17.344 0.242781 17.9858Z" fill="currentColor"/>
<path fill-rule="evenodd" clip-rule="evenodd" d="M39.5834 8.99037C39.8513 9.60282 40 10.2794 40 10.9907L31 10.9907V5.99584L35.0059 5.99584C37.0529 5.99584 38.8122 7.22756 39.5834 8.99037ZM37.2341 8.99037C36.686 8.38002 35.8908 7.99613 35.0059 7.99613H33V8.99037H37.2341Z" fill="currentColor"/>
</svg>
