<svg width="40" height="40" viewBox="0 0 40 40" fill="none" xmlns="http://www.w3.org/2000/svg">
<path d="M6.96875 8.34009H32.6788" stroke="currentColor" stroke-width="2" stroke-miterlimit="10" stroke-linecap="round"/>
<path d="M11.5586 8.34009L19.8186 2.84009" stroke="currentColor" stroke-width="2" stroke-miterlimit="10" stroke-linecap="round"/>
<path d="M28.0903 8.34009L19.8203 2.84009" stroke="currentColor" stroke-width="2" stroke-miterlimit="10" stroke-linecap="round"/>
<path d="M19.8205 4.68C20.8367 4.68 21.6605 3.8562 21.6605 2.84C21.6605 1.8238 20.8367 1 19.8205 1C18.8043 1 17.9805 1.8238 17.9805 2.84C17.9805 3.8562 18.8043 4.68 19.8205 4.68Z" fill="white" stroke="currentColor" stroke-width="2" stroke-miterlimit="10" stroke-linecap="round"/>
<path d="M29 11.1001L29.88 23.3501" stroke="currentColor" stroke-width="2" stroke-miterlimit="10" stroke-linecap="round"/>
<path d="M10.6417 12.02L9.76172 24.47" stroke="currentColor" stroke-width="2" stroke-miterlimit="10" stroke-linecap="round"/>
<path d="M15.2305 11.1001L15.3505 26.7101" stroke="currentColor" stroke-width="2" stroke-miterlimit="10" stroke-linecap="round"/>
<path d="M24.4097 12.9299L23.1797 28.9399" stroke="currentColor" stroke-width="2" stroke-miterlimit="10" stroke-linecap="round"/>
<path d="M19.8209 12.9299L18.7109 31.1799" stroke="currentColor" stroke-width="2" stroke-miterlimit="10" stroke-linecap="round"/>
<path d="M17.5916 39C18.8287 39 19.8316 37.9971 19.8316 36.76C19.8316 35.5229 18.8287 34.52 17.5916 34.52C16.3544 34.52 15.3516 35.5229 15.3516 36.76C15.3516 37.9971 16.3544 39 17.5916 39Z" stroke="currentColor" stroke-width="2" stroke-miterlimit="10" stroke-linecap="round"/>
<path d="M15.9102 21.1201H21.5002" stroke="currentColor" stroke-width="2" stroke-miterlimit="10" stroke-linecap="round"/>
<path d="M35.4716 20C36.0901 20 36.5916 19.4986 36.5916 18.88C36.5916 18.2614 36.0901 17.76 35.4716 17.76C34.853 17.76 34.3516 18.2614 34.3516 18.88C34.3516 19.4986 34.853 20 35.4716 20Z" fill="currentColor"/>
<path d="M27.6512 32.3001C28.2698 32.3001 28.7712 31.7986 28.7712 31.1801C28.7712 30.5615 28.2698 30.0601 27.6512 30.0601C27.0327 30.0601 26.5312 30.5615 26.5312 31.1801C26.5312 31.7986 27.0327 32.3001 27.6512 32.3001Z" fill="currentColor"/>
<path d="M4.53016 15.53C5.14872 15.53 5.65016 15.0286 5.65016 14.41C5.65016 13.7915 5.14872 13.29 4.53016 13.29C3.9116 13.29 3.41016 13.7915 3.41016 14.41C3.41016 15.0286 3.9116 15.53 4.53016 15.53Z" fill="currentColor"/>
</svg>
