<svg width="40" height="40" viewBox="0 0 40 40" fill="none" xmlns="http://www.w3.org/2000/svg">
<g clip-path="url(#clip0_1208_32)">
<path fill-rule="evenodd" clip-rule="evenodd" d="M32 26C32 25.4477 31.5178 25 30.9231 25H19.0769C18.4822 25 18 25.4477 18 26V42.5C18 43.0523 18.4822 43.5 19.0769 43.5H30.9231C31.5178 43.5 32 43.0523 32 42.5L32 26ZM29.8462 27V41.5H20.1538V27H29.8462Z" fill="currentColor"/>
<path fill-rule="evenodd" clip-rule="evenodd" d="M20 29C20 28.4477 19.5178 28 18.9231 28H12.0769C11.4822 28 11 28.4477 11 29V43C11 43.5523 11.4822 44 12.0769 44H18.9231C19.5178 44 20 43.5523 20 43V29ZM17.8462 30V42H13.1538V30H17.8462Z" fill="currentColor"/>
<path fill-rule="evenodd" clip-rule="evenodd" d="M13 14.5C13 13.8828 12.7151 13.3002 12.2279 12.9213L7.72788 9.4213C7.00566 8.85957 5.99434 8.85957 5.27212 9.4213L0.772119 12.9213C0.284945 13.3002 0 13.8828 0 14.5V42C0 43.1046 0.895431 44 2 44H11C12.1046 44 13 43.1046 13 42V14.5ZM6.5 11L11 14.5V42H2V14.5L6.5 11Z" fill="currentColor"/>
<path fill-rule="evenodd" clip-rule="evenodd" d="M39 20C39 19.4477 38.5523 19 38 19H27.5C26.9477 19 26.5 19.4477 26.5 20V25C26.5 25.5523 26.9477 26 27.5 26C28.0523 26 28.5 25.5523 28.5 25V21H37V42.5C37 43.0523 37.4477 43.5 38 43.5C38.5523 43.5 39 43.0523 39 42.5V20Z" fill="currentColor"/>
<path d="M4 15H6V41H4V15Z" fill="currentColor"/>
<path d="M7 15H9V41H7V15Z" fill="currentColor"/>
<path d="M28 37L28 39L22 39L22 37L28 37Z" fill="currentColor"/>
<path d="M28 33L28 35L22 35L22 33L28 33Z" fill="currentColor"/>
<path d="M28 29L28 31L22 31L22 29L28 29Z" fill="currentColor"/>
<path d="M32 30L32 32L30 32L30 30L32 30Z" fill="currentColor"/>
<path d="M36 30L36 32L34 32L34 30L36 30Z" fill="currentColor"/>
<path d="M36 34L36 36L34 36L34 34L36 34Z" fill="currentColor"/>
<path d="M36 22L36 24L34 24L34 22L36 22Z" fill="currentColor"/>
<path d="M32 22L32 24L30 24L30 22L32 22Z" fill="currentColor"/>
<path d="M36 26L36 28L34 28L34 26L36 26Z" fill="currentColor"/>
<path d="M36 38L36 40L34 40L34 38L36 38Z" fill="currentColor"/>
<circle cx="23" cy="12" r="4" stroke="currentColor" stroke-width="2"/>
<path d="M25.8477 1.37476L24.8124 5.23846" stroke="currentColor" stroke-width="2" stroke-linecap="round"/>
<path d="M12.375 9.15308L16.2387 10.1884" stroke="currentColor" stroke-width="2" stroke-linecap="round"/>
<path d="M15.2227 4.22192L18.0511 7.05035" stroke="currentColor" stroke-width="2" stroke-linecap="round"/>
<path d="M21.1875 18.7615L20.1522 22.6252" stroke="currentColor" stroke-width="2" stroke-linecap="round"/>
<path d="M29.7617 13.8118L33.6254 14.847" stroke="currentColor" stroke-width="2" stroke-linecap="round"/>
<path d="M29.7617 10.1882L33.6254 9.15296" stroke="currentColor" stroke-width="2" stroke-linecap="round"/>
<path d="M27.9492 16.9497L30.7776 19.7781" stroke="currentColor" stroke-width="2" stroke-linecap="round"/>
<path d="M18.0508 16.9497L15.2224 19.7781" stroke="currentColor" stroke-width="2" stroke-linecap="round"/>
</g>
<defs>
<clipPath id="clip0_1208_32">
<rect width="40" height="40" fill="white"/>
</clipPath>
</defs>
</svg>
