<svg width="40" height="40" viewBox="0 0 40 40" fill="none" xmlns="http://www.w3.org/2000/svg">
<path d="M17.5008 20.2C18.992 20.2 20.2008 18.9912 20.2008 17.5C20.2008 16.0089 18.992 14.8 17.5008 14.8C16.0096 14.8 14.8008 16.0089 14.8008 17.5C14.8008 18.9912 16.0096 20.2 17.5008 20.2Z" stroke="currentColor" stroke-width="2" stroke-miterlimit="10" stroke-linecap="round"/>
<path d="M23.8014 17.55C23.7927 18.7751 23.427 19.971 22.7491 20.9914C22.0712 22.0118 21.1105 22.8124 19.9846 23.2953C18.8587 23.7781 17.6164 23.9222 16.4099 23.7099C15.2034 23.4976 14.0849 22.9382 13.1914 22.1" stroke="currentColor" stroke-width="2" stroke-miterlimit="10" stroke-linecap="round"/>
<path d="M11.2188 17C11.3073 15.9058 11.6802 14.8538 12.3005 13.9481C12.9208 13.0424 13.767 12.3145 14.7553 11.8365C15.7435 11.3585 16.8395 11.1471 17.9346 11.2231C19.0298 11.2992 20.086 11.6601 20.9987 12.27" stroke="currentColor" stroke-width="2" stroke-miterlimit="10" stroke-linecap="round"/>
<path d="M27.3513 18.51C27.1721 20.2294 26.5462 21.872 25.5359 23.2746C24.5256 24.6773 23.1659 25.7914 21.5919 26.5061C20.0179 27.2208 18.2843 27.5114 16.5633 27.3489C14.8423 27.1865 13.1937 26.5766 11.7812 25.58" stroke="currentColor" stroke-width="2" stroke-miterlimit="10" stroke-linecap="round"/>
<path d="M7.69141 16.1599C7.91554 14.5406 8.53681 13.0018 9.49984 11.6808C10.4629 10.3598 11.7378 9.29752 13.2109 8.58868C14.684 7.87983 16.3096 7.54644 17.9428 7.6182C19.576 7.68995 21.1661 8.16464 22.5714 8.99995" stroke="currentColor" stroke-width="2" stroke-miterlimit="10" stroke-linecap="round"/>
<path d="M17.5 31C24.9558 31 31 24.9558 31 17.5C31 10.0442 24.9558 4 17.5 4C10.0442 4 4 10.0442 4 17.5C4 24.9558 10.0442 31 17.5 31Z" stroke="currentColor" stroke-width="2" stroke-miterlimit="10" stroke-linecap="round"/>
<path d="M34 6L25.18 11.26L24 14" stroke="currentColor" stroke-width="2" stroke-miterlimit="10" stroke-linecap="round"/>
<path d="M22.5 34C22.5989 34 22.6956 34.0293 22.7778 34.0843C22.86 34.1392 22.9241 34.2173 22.9619 34.3087C22.9998 34.4 23.0097 34.5006 22.9904 34.5975C22.9711 34.6945 22.9235 34.7836 22.8536 34.8536C22.7836 34.9235 22.6945 34.9711 22.5975 34.9904C22.5006 35.0097 22.4 34.9998 22.3087 34.9619C22.2173 34.9241 22.1392 34.86 22.0843 34.7778C22.0293 34.6956 22 34.5989 22 34.5C22 34.3674 22.0527 34.2402 22.1464 34.1464C22.2402 34.0527 22.3674 34 22.5 34ZM22.5 32C22.0055 32 21.5222 32.1466 21.1111 32.4213C20.7 32.696 20.3795 33.0865 20.1903 33.5433C20.0011 34.0001 19.9516 34.5028 20.048 34.9877C20.1445 35.4727 20.3826 35.9181 20.7322 36.2678C21.0819 36.6174 21.5273 36.8555 22.0123 36.952C22.4972 37.0484 22.9999 36.9989 23.4567 36.8097C23.9135 36.6205 24.304 36.3001 24.5787 35.8889C24.8534 35.4778 25 34.9945 25 34.5C25 33.837 24.7366 33.2011 24.2678 32.7322C23.7989 32.2634 23.163 32 22.5 32Z" fill="currentColor"/>
<path d="M28.5 34C28.5989 34 28.6956 34.0293 28.7778 34.0843C28.86 34.1392 28.9241 34.2173 28.9619 34.3087C28.9998 34.4 29.0097 34.5006 28.9904 34.5975C28.9711 34.6945 28.9235 34.7836 28.8536 34.8536C28.7836 34.9235 28.6945 34.9711 28.5975 34.9904C28.5006 35.0097 28.4 34.9998 28.3087 34.9619C28.2173 34.9241 28.1392 34.86 28.0843 34.7778C28.0293 34.6956 28 34.5989 28 34.5C28 34.3674 28.0527 34.2402 28.1464 34.1464C28.2402 34.0527 28.3674 34 28.5 34ZM28.5 32C28.0055 32 27.5222 32.1466 27.1111 32.4213C26.7 32.696 26.3795 33.0865 26.1903 33.5433C26.0011 34.0001 25.9516 34.5028 26.048 34.9877C26.1445 35.4727 26.3826 35.9181 26.7322 36.2678C27.0819 36.6174 27.5273 36.8555 28.0123 36.952C28.4972 37.0484 28.9999 36.9989 29.4567 36.8097C29.9135 36.6205 30.304 36.3001 30.5787 35.8889C30.8534 35.4778 31 34.9945 31 34.5C31 33.837 30.7366 33.2011 30.2678 32.7322C29.7989 32.2634 29.163 32 28.5 32Z" fill="currentColor"/>
<path d="M34.5 34C34.5989 34 34.6956 34.0293 34.7778 34.0843C34.86 34.1392 34.9241 34.2173 34.9619 34.3087C34.9998 34.4 35.0097 34.5006 34.9904 34.5975C34.9711 34.6945 34.9235 34.7836 34.8536 34.8536C34.7836 34.9235 34.6945 34.9711 34.5975 34.9904C34.5006 35.0097 34.4 34.9998 34.3087 34.9619C34.2173 34.9241 34.1392 34.86 34.0843 34.7778C34.0293 34.6956 34 34.5989 34 34.5C34 34.3674 34.0527 34.2402 34.1464 34.1464C34.2402 34.0527 34.3674 34 34.5 34ZM34.5 32C34.0055 32 33.5222 32.1466 33.1111 32.4213C32.6999 32.696 32.3795 33.0865 32.1903 33.5433C32.0011 34.0001 31.9516 34.5028 32.048 34.9877C32.1445 35.4727 32.3826 35.9181 32.7322 36.2678C33.0819 36.6174 33.5273 36.8555 34.0123 36.952C34.4972 37.0484 34.9999 36.9989 35.4567 36.8097C35.9135 36.6205 36.304 36.3001 36.5787 35.8889C36.8534 35.4778 37 34.9945 37 34.5C37 33.837 36.7366 33.2011 36.2678 32.7322C35.7989 32.2634 35.163 32 34.5 32Z" fill="currentColor"/>
<path d="M5 35C5.55228 35 6 34.5523 6 34C6 33.4477 5.55228 33 5 33C4.44772 33 4 33.4477 4 34C4 34.5523 4.44772 35 5 35Z" fill="currentColor"/>
<path d="M35.84 1H4.16C2.41478 1 1 2.41478 1 4.16V35.84C1 37.5852 2.41478 39 4.16 39H35.84C37.5852 39 39 37.5852 39 35.84V4.16C39 2.41478 37.5852 1 35.84 1Z" stroke="currentColor" stroke-width="2" stroke-miterlimit="10" stroke-linecap="round"/>
<path d="M23.2188 30H38.9988" stroke="currentColor" stroke-width="2" stroke-miterlimit="10" stroke-linecap="round"/>
<path d="M1 30H11.22" stroke="currentColor" stroke-width="2" stroke-linecap="round" stroke-linejoin="round"/>
<path d="M35 19V27" stroke="currentColor" stroke-width="2" stroke-miterlimit="10" stroke-linecap="round"/>
<path d="M33 23H37" stroke="currentColor" stroke-width="2" stroke-miterlimit="10" stroke-linecap="round"/>
</svg>
