<svg width="40" height="40" viewBox="0 0 40 40" fill="none" xmlns="http://www.w3.org/2000/svg">
<g clip-path="url(#clip0_657_881)">
<path fill-rule="evenodd" clip-rule="evenodd" d="M-8.74228e-08 37C-3.91405e-08 36.4477 0.447715 36 1 36L39 36C39.5523 36 40 36.4477 40 37C40 37.5523 39.5523 38 39 38L1 38C0.447715 38 -1.35705e-07 37.5523 -8.74228e-08 37Z" fill="currentColor"/>
<path fill-rule="evenodd" clip-rule="evenodd" d="M8.00449 13.7066C8.01598 13.9447 8.04528 14.1799 8.0916 14.4118C8.23851 14.3728 8.42651 14.3246 8.65301 14.2696C9.24977 14.1247 10.1145 13.9331 11.2 13.7419C13.3697 13.3598 16.4289 12.9782 19.9987 12.9782C23.5686 12.9782 26.6278 13.3598 28.7975 13.7419C29.883 13.9331 30.7477 14.1247 31.3445 14.2696C31.5712 14.3246 31.7593 14.3729 31.9063 14.4119C31.9675 14.1057 31.999 13.7938 31.999 13.4772C31.999 13.4056 31.9973 13.3341 31.9941 13.263C31.9785 12.9483 31.9319 12.6385 31.856 12.3347C31.8572 12.334 31.8584 12.3333 31.8595 12.3325C31.858 12.3264 31.8565 12.3203 31.855 12.3142C33.1413 11.5238 33.999 10.1054 33.999 8.48712C33.999 8.3554 33.9933 8.225 33.9821 8.09616C33.7779 5.80008 31.8492 4 29.5 4C27.6233 4 26.0149 5.14883 25.3398 6.7816C23.7316 6.28134 21.9184 6 20 6C18.2334 6 16.556 6.23859 15.0457 6.66701C14.607 6.79147 14.1824 6.93195 13.7738 7.08725C13.7324 6.96195 13.6856 6.83909 13.6338 6.71895C12.9438 5.11952 11.3526 4 9.50002 4C7.01474 4 5.00002 6.01472 5.00002 8.5C5.00002 8.61704 5.00449 8.73303 5.01326 8.84782C5.15803 10.6659 6.3877 12.1791 8.05606 12.7424C8.05502 12.749 8.054 12.7556 8.05299 12.7623C8.05436 12.7628 8.05574 12.7632 8.05712 12.7637C8.01935 13.0059 8.00002 13.2516 8.00002 13.5C8.00002 13.5691 8.00152 13.638 8.00449 13.7066ZM25.2094 20.2584C25.1897 20.252 25.1701 20.2457 25.1504 20.2395C26.0591 19.9697 26.9049 19.6307 27.6701 19.2334C29.1852 18.447 30.3848 17.4323 31.1333 16.2739C31.0539 16.2538 30.9666 16.2321 30.8718 16.2091C30.3123 16.0732 29.4895 15.8906 28.4499 15.7076C26.3697 15.3412 23.4289 14.9742 19.9987 14.9742C16.5686 14.9742 13.6278 15.3412 11.5475 15.7076C10.508 15.8906 9.68521 16.0732 9.12571 16.2091C9.03102 16.2321 8.94388 16.2537 8.86453 16.2738C9.61304 17.4322 10.8127 18.447 12.3278 19.2334C13.0931 19.6307 13.9388 19.9697 14.8476 20.2395C14.8282 20.2456 14.8089 20.2518 14.7896 20.258C16.3654 20.7335 18.1329 21 20 21C21.8667 21 23.6338 20.7336 25.2094 20.2584ZM27.4465 21.5789C25.2658 22.4926 22.7018 23 20 23C17.2976 23 14.7331 22.4923 12.5521 21.5783C11.4717 22.5863 10.763 23.9908 10.6619 25.5708L9.99896 35.9326H12.0981L13.0042 27.809C13.0653 27.2612 13.5582 26.8796 14.105 26.9566C14.6519 27.0336 15.0457 27.5401 14.9846 28.0879L14.1096 35.9326H25.8841L25.0091 28.0879C24.948 27.5401 25.3418 27.0336 25.8886 26.9566C26.4355 26.8796 26.9284 27.2612 26.9895 27.809L27.8956 35.9326H29.999L29.5818 29.4128C29.5743 29.4228 29.5704 29.4265 29.5703 29.4256C29.5702 29.4246 29.5739 29.4189 29.5816 29.4101L29.336 25.5708C29.2349 23.9912 28.5265 22.5869 27.4465 21.5789ZM3.01856 8.99473C3.17676 11.0979 4.33531 12.9193 6.01727 13.9886C6.21463 16.7719 8.08344 19.0172 10.4547 20.4993C10.5292 20.5458 10.6043 20.5918 10.6802 20.6371C9.7416 21.6859 9.07506 22.986 8.79562 24.4307C8.43023 23.4803 7.94582 22.5206 7.25712 21.8565C6.80978 21.4252 6.24683 21.0894 5.5587 20.9912C4.87327 20.8934 4.17234 21.0468 3.47394 21.3996C1.9296 22.1799 1.16488 23.4778 1.02434 24.9702C0.890229 26.3944 1.32301 27.9468 2.00946 29.4021C3.30049 32.139 5.66934 34.9077 7.95916 36.4909L7.86718 37.9286H32.1307L32.0363 36.452C34.3273 34.8632 36.6883 32.1193 37.9806 29.4053C38.6735 27.9499 39.1111 26.3959 38.9755 24.9693C38.8333 23.4729 38.0595 22.1762 36.5048 21.398C35.8024 21.0464 35.0994 20.8936 34.4133 20.9911C33.7236 21.0891 33.1595 21.4244 32.7115 21.8569C32.0319 22.5131 31.5546 23.4572 31.1954 24.3952C30.912 22.9651 30.249 21.678 29.3185 20.6379C29.3948 20.5923 29.4704 20.5461 29.5453 20.4993C32.0538 18.9315 34 16.5095 34 13.5C34 13.3985 33.9977 13.2974 33.9932 13.1966C35.2279 12.0149 36 10.3482 36 8.5C36 8.29799 35.9908 8.09813 35.9728 7.90083C35.7079 4.95029 33.4637 2.56873 30.5749 2.08846C30.2253 2.03028 29.8662 2 29.5 2C27.4317 2 25.5917 2.96573 24.4023 4.46744C23.0135 4.16291 21.5323 4 20 4C18.1548 4 16.3816 4.23631 14.7539 4.67287C13.7744 3.33022 12.2926 2.37645 10.5831 2.08979M3.01856 8.99473C3.00627 8.83145 3.00002 8.66646 3.00002 8.5C3.00002 4.91015 5.91017 2 9.50002 2C9.86912 2 10.2309 2.03074 10.5831 2.08979M31.6115 29.8136L31.8826 34.05C33.558 32.6261 35.2114 30.5705 36.1741 28.5486C36.7908 27.2535 37.072 26.0794 36.9844 25.1578C36.9035 24.3062 36.5121 23.6346 35.6081 23.1821C35.1749 22.9653 34.8843 22.9404 34.6951 22.9672C34.5095 22.9936 34.3165 23.0846 34.1021 23.2916C33.629 23.7483 33.2165 24.6055 32.8417 25.7312C32.6613 26.2728 32.5016 26.8374 32.3485 27.3946C32.3204 27.4969 32.2923 27.5995 32.2644 27.7018L32.2644 27.7018C32.1428 28.1467 32.0225 28.5869 31.9024 28.9776C31.8152 29.2616 31.7196 29.5485 31.6115 29.8136ZM3.81896 28.5519C4.78121 30.5918 6.43927 32.6649 8.11282 34.0894L8.38674 29.8081C8.27934 29.546 8.18375 29.2626 8.09611 28.9817C7.97474 28.5927 7.85273 28.1545 7.72936 27.7114C7.70042 27.6074 7.6714 27.5032 7.6423 27.3993C7.48629 26.8422 7.32349 26.2774 7.14031 25.7355C6.75977 24.6097 6.34281 23.7503 5.86747 23.292C5.65159 23.0839 5.45871 22.9933 5.27558 22.9671C5.08974 22.9406 4.80395 22.9649 4.37731 23.1805C3.48585 23.6309 3.09615 24.3013 3.01557 25.157C2.92856 26.0809 3.20797 27.2566 3.81896 28.5519ZM9.49904 11.9802C11.432 11.9802 12.999 10.4163 12.999 8.48712C12.999 6.55795 11.432 4.99405 9.49904 4.99405C7.56605 4.99405 5.99904 6.55795 5.99904 8.48712C5.99904 10.4163 7.56605 11.9802 9.49904 11.9802ZM10.999 8.48712C10.999 9.3139 10.3275 9.98414 9.49904 9.98414C8.67062 9.98414 7.99904 9.3139 7.99904 8.48712C7.99904 7.66033 8.67062 6.99009 9.49904 6.99009C10.3275 6.99009 10.999 7.66033 10.999 8.48712ZM29.499 11.9802C31.432 11.9802 32.999 10.4163 32.999 8.48712C32.999 6.55795 31.432 4.99405 29.499 4.99405C27.566 4.99405 25.999 6.55795 25.999 8.48712C25.999 10.4163 27.566 11.9802 29.499 11.9802ZM30.999 8.48712C30.999 9.3139 30.3275 9.98414 29.499 9.98414C28.6706 9.98414 27.999 9.3139 27.999 8.48712C27.999 7.66033 28.6706 6.99009 29.499 6.99009C30.3275 6.99009 30.999 7.66033 30.999 8.48712ZM17.999 11.9802C18.5513 11.9802 18.999 11.5334 18.999 10.9822C18.999 10.431 18.5513 9.98414 17.999 9.98414C17.4468 9.98414 16.999 10.431 16.999 10.9822C16.999 11.5334 17.4468 11.9802 17.999 11.9802ZM22.999 10.9822C22.999 11.5334 22.5513 11.9802 21.999 11.9802C21.4468 11.9802 20.999 11.5334 20.999 10.9822C20.999 10.431 21.4468 9.98414 21.999 9.98414C22.5513 9.98414 22.999 10.431 22.999 10.9822ZM16.999 15.9722C16.4468 15.9722 15.999 16.4191 15.999 16.9703C15.999 17.5215 16.4468 17.9683 16.999 17.9683H22.999C23.5513 17.9683 23.999 17.5215 23.999 16.9703C23.999 16.4191 23.5513 15.9722 22.999 15.9722H16.999Z" fill="currentColor"/>
</g>
<defs>
<clipPath id="clip0_657_881">
<rect width="40" height="40" fill="white"/>
</clipPath>
</defs>
</svg>
