<svg width="40" height="40" viewBox="0 0 40 40" fill="none" xmlns="http://www.w3.org/2000/svg">
<g clip-path="url(#clip0_1357_23)">
<path fill-rule="evenodd" clip-rule="evenodd" d="M39.3593 22.254L40.0094 28.4158C40.1356 29.7049 39.9965 31.0068 39.6009 32.2372C39.2054 33.4675 38.5623 34.5987 37.7134 35.5574C36.8646 36.5161 35.8289 37.2808 34.6736 37.802C33.5182 38.3232 32.2691 38.5891 31.0072 38.5826H21.1947C20.654 38.9321 20.0682 39.2018 19.4543 39.3837C18.1204 39.7711 16.7395 39.9613 15.3533 39.9485C14.1571 39.9597 12.9614 39.898 11.7724 39.7636C11.5593 39.7409 11.3659 39.7079 11.1922 39.6784C10.9746 39.6414 10.7879 39.6096 10.6321 39.6096H10.322C10.2116 39.5946 10.1038 39.5635 10.0019 39.5172C9.87483 39.4491 9.76346 39.3539 9.67535 39.2378C9.58725 39.1217 9.52447 38.9876 9.49127 38.8444C9.45808 38.7012 9.45523 38.5524 9.48293 38.408C9.51064 38.2637 9.56824 38.1271 9.65184 38.0075L9.72186 37.8946C9.80152 37.7858 9.88841 37.6829 9.98192 37.5865C10.2993 37.2493 10.6554 36.9527 11.0422 36.7033L11.5223 36.4055C10.8346 36.0315 10.1668 35.6202 9.52181 35.1731C6.97099 33.4321 5.03478 30.8932 4.00043 27.9331C2.69734 24.0862 2.59941 19.917 3.72036 16.0101C3.82038 15.5993 3.91041 15.2296 3.98042 14.8805C3.97086 14.8261 3.97086 14.7705 3.98042 14.7161C3.98439 14.6512 3.98439 14.586 3.98042 14.521C4.02216 14.2969 4.05221 14.0706 4.07045 13.8432C4.14077 13.2616 4.09655 12.6714 3.94041 12.1077C3.88571 11.9299 3.82228 11.7551 3.75037 11.5839L3.57032 11.4607L3.28025 11.2656C3.25993 11.2508 3.23896 11.2356 3.21734 11.2199C2.98358 11.0502 2.67369 10.8252 2.28 10.5056C1.11179 9.29104 0.402656 7.68929 0.279499 5.98701C0.0732572 4.47695 0.00627691 2.95029 0.0794488 1.42732C0.056329 1.26386 0.056329 1.09783 0.0794488 0.934376C0.107818 0.783365 0.165922 0.639892 0.2502 0.512748C0.334478 0.385605 0.443155 0.277469 0.569571 0.194966C0.699684 0.107866 0.845886 0.0492344 0.999053 0.0227306C1.15222 -0.00377329 1.30906 0.0024196 1.45979 0.0409227C1.63121 0.0770441 1.79423 0.146782 1.93991 0.246314C2.16345 0.390968 2.37134 0.559656 2.56007 0.749523L3.0802 1.24246L3.20023 1.35543C3.62967 1.80109 4.09108 2.21303 4.58057 2.58778C4.86439 2.8382 5.21093 3.00186 5.58082 3.06018H5.68085H5.78087C6.36394 3.13917 6.92497 3.34037 7.42913 3.65129C7.93329 3.96222 8.36982 4.37623 8.71161 4.86762C8.81419 5.0333 8.90769 5.20473 8.99168 5.3811C9.18304 5.21233 9.3834 5.05462 9.59183 4.9087C9.97764 4.63312 10.4181 4.44874 10.8817 4.36883C11.3452 4.28893 11.8202 4.31548 12.2725 4.44657C13.4464 4.7964 14.6853 4.84926 15.8834 4.60061H16.0634L16.4635 4.50819C16.6888 4.47097 16.9184 4.47097 17.1437 4.50819C17.3485 4.5501 17.5405 4.64165 17.7039 4.7752C17.8951 4.93641 18.0317 5.15573 18.094 5.40164C18.15 5.65169 18.15 5.91154 18.094 6.16159C18.0288 7.04927 17.7354 7.9033 17.2437 8.63656C16.7135 9.45978 16.0776 10.2059 15.3533 10.8548C14.6355 11.5072 13.8467 12.0724 13.0027 12.539C12.4522 12.8382 11.8675 13.0659 11.2622 13.2168C11.2022 13.4324 11.1422 13.7097 11.0822 14.0178C10.8752 14.9712 10.8211 15.9529 10.9222 16.9241C10.9521 17.3947 11.078 17.8536 11.2917 18.2711C11.5053 18.6886 11.802 19.0554 12.1625 19.3477C12.8226 19.892 14.0229 20.3028 16.1635 20.0563C16.2264 20.0461 16.2906 20.0461 16.3535 20.0563C17.7839 19.7585 19.2542 19.4607 20.7146 19.1834C24.7664 18.3161 28.8697 17.726 32.9977 17.417C33.8604 17.4151 34.7224 17.47 35.5783 17.5814C38.0389 17.9408 39.1492 20.2001 39.3593 22.254ZM29.0186 35.2728C30.599 35.8425 32.2786 36.064 33.9479 35.9228H33.9279C35.2708 35.2914 36.3847 34.2402 37.1105 32.9195C37.8363 31.5989 38.1368 30.0764 37.9689 28.5698L37.3188 22.4081C37.1487 20.7649 36.3885 19.7174 35.2482 19.5531C34.4853 19.4531 33.7168 19.4051 32.9477 19.4093C28.9411 19.7239 24.9585 20.3036 21.0247 21.1449C15.8734 22.1205 10.6121 23.2912 7.8714 24.1128C7.74208 24.1943 7.59639 24.2445 7.44537 24.2597C7.29435 24.2748 7.14195 24.2545 6.99972 24.2002C6.85748 24.146 6.72913 24.0592 6.62439 23.9465C6.51964 23.8338 6.44125 23.6981 6.39515 23.5496C6.34904 23.4012 6.33643 23.244 6.35827 23.0898C6.38011 22.9356 6.43583 22.7886 6.52121 22.6598C6.60659 22.531 6.71938 22.4238 6.85106 22.3464C6.98274 22.269 7.12985 22.2233 7.28125 22.2129C8.2915 21.8946 9.61183 21.5454 11.1222 21.186L10.8221 20.9703C10.2779 20.5132 9.8284 19.9487 9.50026 19.3101C9.17212 18.6716 8.97197 17.972 8.91166 17.2527C8.78176 16.0559 8.84257 14.8454 9.0917 13.6686C9.19173 13.186 9.33176 12.6417 9.37177 12.4979C9.38736 12.4419 9.40599 12.3905 9.42292 12.3439C9.44944 12.2708 9.4718 12.2092 9.4718 12.159C9.51543 11.9453 9.62429 11.7514 9.78258 11.6055C9.94087 11.4596 10.1403 11.3693 10.352 11.3477C10.9334 11.2623 11.4936 11.0636 12.0024 10.7624C12.7196 10.3576 13.3906 9.87191 14.0029 9.31435C14.5668 8.78988 15.0582 8.18867 15.4633 7.52744C15.6292 7.27002 15.7667 6.99447 15.8734 6.70588C14.4754 6.93444 13.0458 6.85036 11.6823 6.45941C11.5034 6.4015 11.3135 6.38901 11.1288 6.42299C10.9442 6.45697 10.7703 6.53642 10.6221 6.65453C10.2583 6.94148 9.92327 7.26485 9.62183 7.61987L9.31176 7.9485L8.31151 8.97545L7.69135 7.67122C7.58132 7.42475 7.4813 7.1372 7.40128 6.901C7.33126 6.83938 7.33126 6.72642 7.33126 6.72642C7.25064 6.4787 7.14328 6.24102 7.01118 6.01782C6.82514 5.76143 6.58973 5.54707 6.31957 5.38807C6.04941 5.22907 5.75029 5.12882 5.44079 5.09355C4.71132 5.00666 4.01921 4.71532 3.44029 4.25145C2.93286 3.87553 2.45157 3.46375 1.99993 3.0191C2.00878 3.90929 2.07561 4.79788 2.19998 5.67892C2.24488 6.90425 2.70069 8.07603 3.4903 8.99599C3.76222 9.22395 4.04604 9.4365 4.34051 9.63271L4.51056 9.74567L4.92066 10.0229C5.15609 10.2069 5.35333 10.4374 5.5008 10.7007C5.64167 10.9844 5.75879 11.2799 5.85089 11.5839C6.07366 12.3912 6.1416 13.2353 6.05094 14.0692C6.03455 14.2599 6.00324 14.469 5.9782 14.6362C5.95739 14.7752 5.94091 14.8852 5.94091 14.9318V15.1783V15.2502C5.87728 15.6013 5.79467 15.959 5.70818 16.3334C5.6859 16.4299 5.66337 16.5274 5.64084 16.6263C4.61551 20.1453 4.71012 23.9083 5.91091 27.3683C6.81398 29.8958 8.48727 32.0568 10.6821 33.53C11.4399 34.0717 12.2394 34.5491 13.0727 34.9575C13.3275 35.0841 13.5485 35.176 13.7136 35.2446C13.7494 35.2595 13.7826 35.2733 13.8129 35.2861L14.0029 35.3683H14.0829C14.7031 35.1731 15.4133 34.9883 16.2135 34.824C16.472 34.7725 16.7398 34.8277 16.9589 34.9776C17.178 35.1276 17.3307 35.3602 17.3838 35.625C17.4101 35.7572 17.4108 35.8934 17.3858 36.0258C17.3608 36.1582 17.3106 36.2843 17.2382 36.3969C17.1657 36.5094 17.0724 36.6062 16.9635 36.6816C16.8546 36.7571 16.7323 36.8099 16.6036 36.8368C15.4225 37.0447 14.2682 37.3892 13.1627 37.8638C13.8529 37.9357 14.6431 37.9357 15.4533 37.9357C16.6494 37.9501 17.8414 37.7911 18.9942 37.4633C19.8111 37.2728 20.5266 36.7696 20.9947 36.0563C21.1039 35.8585 21.2739 35.7035 21.4782 35.6155C21.6824 35.5276 21.9093 35.5118 22.1233 35.5705C22.3372 35.6293 22.5262 35.7592 22.6604 35.9401C22.7947 36.1209 22.8667 36.3424 22.8651 36.5698H26.8661C25.5768 35.9353 24.3949 35.0928 23.3653 34.0743C23.2715 33.9788 23.1971 33.8652 23.1463 33.7401C23.0955 33.615 23.0694 33.4807 23.0694 33.3452C23.0694 33.2096 23.0955 33.0754 23.1463 32.9502C23.1971 32.8251 23.2715 32.7115 23.3653 32.616C23.5527 32.4247 23.8062 32.3174 24.0704 32.3174C24.3347 32.3174 24.5882 32.4247 24.7756 32.616C25.9925 33.7978 27.4382 34.703 29.0186 35.2728ZM22.7294 27.845C23.0107 27.5637 23.3922 27.4057 23.79 27.4057C24.1879 27.4057 24.5694 27.5637 24.8507 27.845C25.132 28.1263 25.29 28.5078 25.29 28.9057C25.29 29.3035 25.132 29.685 24.8507 29.9663C24.5694 30.2476 24.1879 30.4057 23.79 30.4057C23.3922 30.4057 23.0107 30.2476 22.7294 29.9663C22.4481 29.685 22.29 29.3035 22.29 28.9057C22.29 28.5078 22.4481 28.1263 22.7294 27.845Z" fill="currentColor"/>
</g>
<defs>
<clipPath id="clip0_1357_23">
<rect width="40" height="40" fill="white"/>
</clipPath>
</defs>
</svg>
