<svg width="40" height="40" viewBox="0 0 40 40" fill="none" xmlns="http://www.w3.org/2000/svg">
<g clip-path="url(#clip0_1199_75)">
<path d="M19.9989 24.25C25.3119 24.25 29.6189 19.943 29.6189 14.63C29.6189 9.31703 25.3119 5.01001 19.9989 5.01001C14.6859 5.01001 10.3789 9.31703 10.3789 14.63C10.3789 19.943 14.6859 24.25 19.9989 24.25Z" stroke="currentColor" stroke-width="2" stroke-miterlimit="10"/>
<path d="M27.4386 20.75V33H12.5586V20.75" stroke="currentColor" stroke-width="2" stroke-miterlimit="10"/>
<path d="M20 30.3799C20.9665 30.3799 21.75 29.5964 21.75 28.6299C21.75 27.6634 20.9665 26.8799 20 26.8799C19.0335 26.8799 18.25 27.6634 18.25 28.6299C18.25 29.5964 19.0335 30.3799 20 30.3799Z" stroke="currentColor" stroke-width="2" stroke-miterlimit="10"/>
<path d="M20 24.25V26.88" stroke="currentColor" stroke-width="2" stroke-miterlimit="10"/>
<path d="M19.9987 1C12.5487 1 6.45866 6.51 5.99866 13.46C5.9655 13.9624 5.7441 14.4337 5.37866 14.78C5.10103 15.0472 4.84365 15.3346 4.60866 15.64C4.40215 15.9184 4.27662 16.2484 4.24593 16.5937C4.21525 16.9389 4.28061 17.2859 4.43479 17.5964C4.58897 17.9068 4.82597 18.1686 5.1196 18.3527C5.41324 18.5369 5.75207 18.6363 6.09866 18.64V18.64C6.34977 18.6373 6.59888 18.6849 6.83127 18.7801C7.06367 18.8752 7.27464 19.016 7.45175 19.194C7.62885 19.3721 7.76849 19.5838 7.86243 19.8167C7.95636 20.0496 8.00268 20.2989 7.99866 20.55V23.83C7.98704 24.1597 7.8884 24.4804 7.71278 24.7597C7.53715 25.0389 7.29078 25.2667 6.99866 25.42C6.83443 25.5086 6.6858 25.6234 6.55866 25.76C6.25535 26.0998 6.09737 26.545 6.11866 27L6.05866 33.46C6.04921 33.943 5.85612 34.4043 5.51866 34.75C5.12004 35.1836 4.75247 35.6447 4.41866 36.13C4.24635 36.414 4.15194 36.7384 4.14495 37.0706C4.13796 37.4027 4.21864 37.7308 4.37885 38.0218C4.53906 38.3129 4.77315 38.5565 5.05753 38.7282C5.3419 38.9 5.66652 38.9937 5.99866 39H7.41866C7.75784 39.0017 8.09082 38.9091 8.38041 38.7325C8.67001 38.5559 8.90483 38.3023 9.05866 38C9.23789 37.6294 9.47787 37.2914 9.76866 37C10.1135 36.7163 10.5529 36.5734 10.9987 36.6H29.2087C29.6529 36.5896 30.0849 36.7466 30.4187 37.04C30.7127 37.3287 30.9531 37.6673 31.1287 38.04C31.2833 38.3438 31.5196 38.5984 31.8112 38.7751C32.1027 38.9518 32.4378 39.0435 32.7787 39.04H34.1887C34.5285 39.0392 34.8618 38.9467 35.1535 38.7724C35.4452 38.5981 35.6845 38.3483 35.8463 38.0494C36.008 37.7506 36.0861 37.4136 36.0725 37.0741C36.0588 36.7345 35.9539 36.4049 35.7687 36.12C35.4349 35.6347 35.0673 35.1736 34.6687 34.74C34.3393 34.389 34.1476 33.931 34.1287 33.45L34.0687 27C34.0807 26.5633 33.9271 26.1381 33.6387 25.81C33.5073 25.6781 33.3594 25.5638 33.1987 25.47C32.9052 25.3184 32.6577 25.091 32.4819 24.8114C32.306 24.5317 32.2082 24.2102 32.1987 23.88V20.55C32.1987 20.0514 32.3967 19.5732 32.7493 19.2206C33.1019 18.8681 33.5801 18.67 34.0787 18.67V18.67C34.4253 18.6663 34.7641 18.5669 35.0577 18.3827C35.3514 18.1986 35.5884 17.9368 35.7425 17.6264C35.8967 17.3159 35.9621 16.9689 35.9314 16.6237C35.9007 16.2784 35.7752 15.9484 35.5687 15.67C35.3337 15.3646 35.0763 15.0772 34.7987 14.81C34.4332 14.4637 34.2118 13.9924 34.1787 13.49C33.7287 6.51 27.6387 1 20.1887 1H19.9987Z" stroke="currentColor" stroke-width="2" stroke-miterlimit="10"/>
<path d="M20 15V9" stroke="currentColor" stroke-width="2" stroke-miterlimit="10" stroke-linecap="round"/>
<path d="M23 17L20 15" stroke="currentColor" stroke-width="2" stroke-miterlimit="10" stroke-linecap="round"/>
</g>
<defs>
<clipPath id="clip0_1199_75">
<rect width="40" height="40" fill="white"/>
</clipPath>
</defs>
</svg>
