<svg width="40" height="40" viewBox="0 0 40 40" fill="none" xmlns="http://www.w3.org/2000/svg">
<path d="M17.3008 1.8999C17.3555 4.82059 16.9402 7.73107 16.0708 10.5199C13.2908 19.3399 7.5608 21.0399 7.4508 26.5199C7.3108 33.5199 16.5308 39.4399 17.3008 38.8299C17.8308 38.4199 14.0708 35.3599 14.8408 31.4399C15.5408 27.8799 19.4408 26.3599 19.7708 21.5899C19.7708 21.0199 19.5608 20.4599 19.7708 20.3599C20.3108 20.0899 23.4608 23.1799 23.4608 26.5199C23.4608 29.8599 20.3408 31.8899 21.0008 32.6899C21.4708 33.2599 23.5808 32.7799 24.6908 31.4499C26.0008 29.8999 25.3508 27.8999 25.9208 27.7599C26.4908 27.6199 28.3608 29.9599 28.3908 32.6899C28.3908 36.2099 25.5008 38.4299 25.9208 38.8399C26.3408 39.2499 29.7208 37.2899 32.0808 33.9199C34.4008 30.0399 34.0808 26.0799 32.7308 22.0899C32.4834 21.295 32.148 20.5303 31.7308 19.8099C31.0731 18.6104 30.6786 17.2846 30.5734 15.9206C30.4682 14.5567 30.6548 13.1861 31.1208 11.8999C31.1441 11.8242 31.1495 11.7442 31.1364 11.666C31.1234 11.5879 31.0924 11.5139 31.0458 11.4499C30.9993 11.3858 30.9384 11.3335 30.8681 11.2971C30.7978 11.2606 30.72 11.2411 30.6408 11.2399C29.2108 11.2399 27.1208 13.2399 25.7608 14.0099C25.6557 14.066 25.5377 14.0936 25.4186 14.0897C25.2995 14.0859 25.1835 14.0508 25.0822 13.988C24.9809 13.9252 24.8979 13.8369 24.8415 13.7319C24.7851 13.627 24.7573 13.509 24.7608 13.3899C24.8608 7.5199 21.4908 4.3899 17.3008 1.8999Z" stroke="currentColor" stroke-width="2" stroke-miterlimit="10" stroke-linecap="round"/>
<path d="M33.4706 9.57992C34.0671 9.57992 34.5506 9.09639 34.5506 8.49992C34.5506 7.90345 34.0671 7.41992 33.4706 7.41992C32.8742 7.41992 32.3906 7.90345 32.3906 8.49992C32.3906 9.09639 32.8742 9.57992 33.4706 9.57992Z" fill="currentColor"/>
</svg>
