<svg width="40" height="40" viewBox="0 0 40 40" fill="none" xmlns="http://www.w3.org/2000/svg">
<g clip-path="url(#clip0_657_703)">
<path d="M14.2959 18.9659C14.4388 18.4325 14.9871 18.1159 15.5206 18.2588C16.0541 18.4018 16.3707 18.9501 16.2277 19.4836L15.1924 23.3473C15.0495 23.8807 14.5012 24.1973 13.9677 24.0544C13.4342 23.9114 13.1177 23.3631 13.2606 22.8296L14.2959 18.9659Z" fill="currentColor"/>
<path d="M5.29587 14.9659C5.43881 14.4325 5.98715 14.1159 6.52061 14.2588C7.05408 14.4018 7.37066 14.9501 7.22772 15.4836L6.19244 19.3473C6.0495 19.8807 5.50117 20.1973 4.9677 20.0544C4.43423 19.9114 4.11765 19.3631 4.26059 18.8296L5.29587 14.9659Z" fill="currentColor"/>
<path d="M31.2959 18.9659C31.4388 18.4325 31.9871 18.1159 32.5206 18.2588C33.0541 18.4018 33.3707 18.9501 33.2277 19.4836L32.1924 23.3473C32.0495 23.8807 31.5012 24.1973 30.9677 24.0544C30.4342 23.9114 30.1177 23.3631 30.2606 22.8296L31.2959 18.9659Z" fill="currentColor"/>
<path d="M22.2959 23.9659C22.4388 23.4325 22.9871 23.1159 23.5206 23.2588C24.0541 23.4018 24.3707 23.9501 24.2277 24.4836L23.1924 28.3473C23.0495 28.8807 22.5012 29.1973 21.9677 29.0544C21.4342 28.9114 21.1177 28.3631 21.2606 27.8296L22.2959 23.9659Z" fill="currentColor"/>
<path fill-rule="evenodd" clip-rule="evenodd" d="M14.0656 2C11.4294 2 9.37247 3.70613 8.9859 5.76764L8.83294 6.58334H6.67213C5.06527 6.58334 4 7.69459 4 8.79167C4 9.88875 5.06527 11 6.67213 11H14.541C15.0933 11 15.541 11.4477 15.541 12C15.541 12.5523 15.0933 13 14.541 13H6.67213C4.22287 13 2 11.2384 2 8.79167C2 6.34492 4.22287 4.58334 6.67213 4.58334H7.23301C8.14615 1.87448 10.9168 0 14.0656 0C15.7755 0 17.3574 0.546813 18.5979 1.47221C19.0406 1.80244 19.1318 2.42901 18.8015 2.87169C18.4713 3.31437 17.8448 3.40553 17.4021 3.0753C16.5104 2.41013 15.3488 2 14.0656 2Z" fill="currentColor"/>
<path fill-rule="evenodd" clip-rule="evenodd" d="M28.0137 2C24.9142 2 22.3603 4.21383 21.8694 7.08998L21.7274 7.92172H19.1452C17.4082 7.92172 16 9.32988 16 11.0669C16 12.804 17.4082 14.2121 19.1452 14.2121H33.991C35.7281 14.2121 37.1362 12.804 37.1362 11.0669C37.1362 9.64233 36.1883 8.43653 34.8866 8.0508L34.2732 7.86901L34.1811 7.23587C33.7528 4.289 31.1657 2 28.0137 2ZM20.0861 5.92172C21.0567 2.4963 24.2469 0 28.0137 0C31.9358 0 35.2334 2.7067 36.0501 6.35062C37.8661 7.14459 39.1362 8.95636 39.1362 11.0669C39.1362 13.9085 36.8326 16.2121 33.991 16.2121H19.1452C16.3036 16.2121 14 13.9085 14 11.0669C14 8.22531 16.3036 5.92172 19.1452 5.92172H20.0861Z" fill="currentColor"/>
<path fill-rule="evenodd" clip-rule="evenodd" d="M32 34C32 33.4477 31.5178 33 30.9231 33H19.0769C18.4822 33 18 33.4477 18 34V42C18 42.5523 18.4822 43 19.0769 43H30.9231C31.5178 43 32 42.5523 32 42V34ZM29.8462 35V41H20.1538V35H29.8462Z" fill="currentColor"/>
<path fill-rule="evenodd" clip-rule="evenodd" d="M20 37C20 36.4477 19.5178 36 18.9231 36H12.0769C11.4822 36 11 36.4477 11 37V45C11 45.5523 11.4822 46 12.0769 46H18.9231C19.5178 46 20 45.5523 20 45V37ZM17.8462 38V44H13.1538V38H17.8462Z" fill="currentColor"/>
<path fill-rule="evenodd" clip-rule="evenodd" d="M13 29C13 28.3828 12.7151 27.8002 12.2279 27.4213L7.72788 23.9213C7.00566 23.3596 5.99434 23.3596 5.27212 23.9213L0.772119 27.4213C0.284945 27.8002 0 28.3828 0 29V47C0 48.1046 0.895431 49 2 49H11C12.1046 49 13 48.1046 13 47V29ZM6.5 25.5L11 29V47H2V29L6.5 25.5Z" fill="currentColor"/>
<path fill-rule="evenodd" clip-rule="evenodd" d="M39 28C39 27.4477 38.5523 27 38 27H27.5C26.9477 27 26.5 27.4477 26.5 28V33C26.5 33.5523 26.9477 34 27.5 34C28.0523 34 28.5 33.5523 28.5 33V29H37V40C37 40.5523 37.4477 41 38 41C38.5523 41 39 40.5523 39 40V28Z" fill="currentColor"/>
<path d="M4 30H6V40H4V30Z" fill="currentColor"/>
<path d="M7 30H9V40H7V30Z" fill="currentColor"/>
<path d="M28 37L28 39L22 39L22 37L28 37Z" fill="currentColor"/>
<path d="M32 30L32 32L30 32L30 30L32 30Z" fill="currentColor"/>
<path d="M36 30L36 32L34 32L34 30L36 30Z" fill="currentColor"/>
<path d="M36 34L36 36L34 36L34 34L36 34Z" fill="currentColor"/>
<path d="M36 38L36 40L34 40L34 38L36 38Z" fill="currentColor"/>
</g>
<defs>
<clipPath id="clip0_657_703">
<rect width="40" height="40" fill="white"/>
</clipPath>
</defs>
</svg>
