<svg width="40" height="40" viewBox="0 0 40 40" fill="none" xmlns="http://www.w3.org/2000/svg">
<g clip-path="url(#clip0_1182_253)">
<path d="M1.65008 18.5001L18.4001 21.5001C19.9615 21.8109 21.5825 21.5573 22.9743 20.7845C24.3662 20.0116 25.4384 18.7697 26.0001 17.2801C26.3048 16.2882 26.4044 15.2447 26.2926 14.2132C26.1809 13.1816 25.8602 12.1836 25.3501 11.2801C24.9566 10.1891 24.8365 9.01827 25.0001 7.87008C25.1387 7.13123 25.4668 6.44105 25.9524 5.86715C26.4379 5.29325 27.0642 4.85531 27.7699 4.59623C28.4756 4.33714 29.2364 4.2658 29.978 4.38918C30.7195 4.51256 31.4163 4.82644 32.0001 5.30008C33.0166 6.01654 33.7297 7.08614 34.0001 8.30008L37.9301 19.5601C38.5135 21.1296 38.6819 22.8232 38.4192 24.477C38.1564 26.1307 37.4713 27.6886 36.4301 29.0001C34.9 31.0105 32.8035 32.5171 30.4101 33.3262C28.0168 34.1353 25.4361 34.2097 23.0001 33.5401C21.3164 33.075 19.7699 32.2103 18.492 31.0194C17.2141 29.8286 16.2426 28.3468 15.6601 26.7001L4.83008 22.2001C4.28136 21.9707 3.80218 21.6019 3.44008 21.1301L1.54008 18.6801C1.52418 18.6625 1.5144 18.6402 1.51219 18.6166C1.50999 18.5929 1.51549 18.5692 1.52786 18.549C1.54023 18.5288 1.55881 18.5131 1.58084 18.5042C1.60287 18.4954 1.62715 18.494 1.65008 18.5001V18.5001Z" stroke="currentColor" stroke-width="2" stroke-miterlimit="10" stroke-linecap="round"/>
<path d="M16 26.8401C20.17 28.3701 24.27 28.8401 27.35 27.4401C27.73 27.2301 28.08 27.0301 28.4 26.8301C31.87 24.6501 29.86 19.2101 25.82 19.9201C24.9309 20.0845 24.0576 20.3253 23.21 20.6401" stroke="currentColor" stroke-width="2" stroke-miterlimit="10" stroke-linecap="round"/>
<path d="M31.6094 4.59994L36.9894 0.939941L34.6894 9.28994" stroke="currentColor" stroke-width="2" stroke-linecap="round" stroke-linejoin="round"/>
<path d="M27.8984 34.3101L27.9284 37.4501" stroke="currentColor" stroke-width="2" stroke-linecap="round" stroke-linejoin="round"/>
<path d="M22.0508 38.86L27.9308 37.45" stroke="currentColor" stroke-width="2" stroke-linecap="round" stroke-linejoin="round"/>
<path d="M33.0697 38.8899L27.9297 37.45" stroke="currentColor" stroke-width="2" stroke-linecap="round" stroke-linejoin="round"/>
<path d="M29.5502 10.4499C30.1798 10.4499 30.6902 9.93953 30.6902 9.30992C30.6902 8.68032 30.1798 8.16992 29.5502 8.16992C28.9206 8.16992 28.4102 8.68032 28.4102 9.30992C28.4102 9.93953 28.9206 10.4499 29.5502 10.4499Z" fill="currentColor"/>
</g>
<defs>
<clipPath id="clip0_1182_253">
<rect width="40" height="40" fill="white"/>
</clipPath>
</defs>
</svg>
