<svg width="40" height="40" viewBox="0 0 40 40" fill="none" xmlns="http://www.w3.org/2000/svg">
<path fill-rule="evenodd" clip-rule="evenodd" d="M37 0C37.5523 0 38 0.497461 38 1.11111V2V4V6V8V8.88889C38 9.50254 37.5523 10 37 10C36.4477 10 36 9.50254 36 8.88889V8L21.3043 8V9.25214C26.4464 10.052 30.4801 12.6768 31.6531 16H32C33.1046 16 34 16.8954 34 18V20C34 21.1046 33.1046 22 32 22H4C2.89543 22 2 21.1046 2 20V18C2 16.8954 2.89543 16 4 16H4.34691C5.4665 12.8281 9.19203 10.2926 14 9.3727V5C14 3.34314 15.4015 2 17.1304 2H36V1.11111C36 0.497461 36.4477 0 37 0ZM36 4H17.1304C16.5541 4 16.087 4.5 16.087 5V9H18H19.2174V8C19.2174 7.46957 19.4373 6.96086 19.8286 6.58579C20.22 6.21071 20.7509 6 21.3043 6L36 6V4ZM18 11C14.4595 11 11.3474 11.9264 9.18202 13.3184C7.90486 14.1394 7.03412 15.0614 6.53072 16H29.4693C28.9659 15.0614 28.0951 14.1394 26.818 13.3184C24.6526 11.9264 21.5405 11 18 11ZM32 18H30H6H4V20H32V18ZM7 25.0667C7 24.4776 6.55228 24 6 24C5.44772 24 5 24.4776 5 25.0667V38.9333C5 39.5224 5.44772 40 6 40C6.55228 40 7 39.5224 7 38.9333V25.0667ZM14 24C14.5523 24 15 24.4776 15 25.0667V38.9333C15 39.5224 14.5523 40 14 40C13.4477 40 13 39.5224 13 38.9333V25.0667C13 24.4776 13.4477 24 14 24ZM23 25.0667C23 24.4776 22.5523 24 22 24C21.4477 24 21 24.4776 21 25.0667V38.9333C21 39.5224 21.4477 40 22 40C22.5523 40 23 39.5224 23 38.9333V25.0667ZM30 24C30.5523 24 31 24.4776 31 25.0667V38.9333C31 39.5224 30.5523 40 30 40C29.4477 40 29 39.5224 29 38.9333V25.0667C29 24.4776 29.4477 24 30 24ZM27 25.1111C27 24.4975 26.5523 24 26 24C25.4477 24 25 24.4975 25 25.1111V32.8889C25 33.5025 25.4477 34 26 34C26.5523 34 27 33.5025 27 32.8889V25.1111ZM18 30C18.5523 30 19 30.4975 19 31.1111V38.8889C19 39.5025 18.5523 40 18 40C17.4477 40 17 39.5025 17 38.8889V31.1111C17 30.4975 17.4477 30 18 30ZM19 25C19 24.4477 18.5523 24 18 24C17.4477 24 17 24.4477 17 25V27C17 27.5523 17.4477 28 18 28C18.5523 28 19 27.5523 19 27V25ZM26 36C26.5523 36 27 36.4477 27 37V39C27 39.5523 26.5523 40 26 40C25.4477 40 25 39.5523 25 39V37C25 36.4477 25.4477 36 26 36ZM11 35C11 34.4477 10.5523 34 10 34C9.44772 34 9 34.4477 9 35V39C9 39.5523 9.44772 40 10 40C10.5523 40 11 39.5523 11 39V35ZM10 24C10.5523 24 11 24.4477 11 25V30C11 30.5523 10.5523 31 10 31C9.44772 31 9 30.5523 9 30V25C9 24.4477 9.44772 24 10 24Z" fill="currentColor"/>
</svg>
