<svg width="40" height="40" viewBox="0 0 40 40" fill="none" xmlns="http://www.w3.org/2000/svg">
<g clip-path="url(#clip0_1147_147)">
<path d="M21.9992 34.3101H16.1992V11.5601C16.1992 10.9713 16.4331 10.4066 16.8494 9.99031C17.2658 9.57398 17.8304 9.34009 18.4192 9.34009H36.7792C37.368 9.34009 37.9327 9.57398 38.349 9.99031C38.7653 10.4066 38.9992 10.9713 38.9992 11.5601V32.1401L35.9992 33.7001" stroke="currentColor" stroke-width="2" stroke-miterlimit="10" stroke-linecap="round"/>
<path d="M12.94 34.31H16.2V13.69H8.78C7.75533 13.6852 6.76126 14.0389 5.97 14.69C3.89 16.37 2.14 19 1.08 23.35C1.02913 23.563 1.00229 23.781 1 24V32.36C0.999997 32.6143 1.05025 32.8661 1.14786 33.1009C1.24548 33.3357 1.38854 33.5489 1.56881 33.7283C1.74909 33.9076 1.96304 34.0496 2.19835 34.146C2.43366 34.2424 2.68571 34.2913 2.94 34.29H4.26" stroke="currentColor" stroke-width="2" stroke-miterlimit="10" stroke-linecap="round"/>
<path d="M29.2306 38.65C31.6275 38.65 33.5706 36.7069 33.5706 34.31C33.5706 31.9131 31.6275 29.97 29.2306 29.97C26.8337 29.97 24.8906 31.9131 24.8906 34.31C24.8906 36.7069 26.8337 38.65 29.2306 38.65Z" stroke="currentColor" stroke-width="2" stroke-miterlimit="10" stroke-linecap="round"/>
<path d="M8.60172 38.65C10.9986 38.65 12.9417 36.7069 12.9417 34.31C12.9417 31.9131 10.9986 29.97 8.60172 29.97C6.2048 29.97 4.26172 31.9131 4.26172 34.31C4.26172 36.7069 6.2048 38.65 8.60172 38.65Z" stroke="currentColor" stroke-width="2" stroke-miterlimit="10" stroke-linecap="round"/>
<path d="M5.75054 23.4599H11.4805C11.8465 23.4599 12.1975 23.3145 12.4563 23.0557C12.7151 22.7969 12.8605 22.4459 12.8605 22.0799V18.3199C12.8605 17.9539 12.7151 17.6029 12.4563 17.3441C12.1975 17.0853 11.8465 16.9399 11.4805 16.9399H8.64054C8.43643 16.94 8.23449 16.9817 8.04707 17.0625C7.85964 17.1434 7.69069 17.2616 7.55054 17.4099C6.14292 18.8255 5.24588 20.6688 5.00054 22.6499C4.989 22.754 4.99999 22.8594 5.03276 22.9588C5.06553 23.0583 5.11931 23.1495 5.19045 23.2263C5.26159 23.3032 5.34843 23.3638 5.44507 23.4041C5.5417 23.4444 5.64589 23.4634 5.75054 23.4599V23.4599Z" stroke="currentColor" stroke-width="2" stroke-miterlimit="10" stroke-linecap="round"/>
<path d="M1 27.7H3" stroke="currentColor" stroke-width="2" stroke-miterlimit="10" stroke-linecap="round"/>
<path d="M37 27.7H39" stroke="currentColor" stroke-width="2" stroke-miterlimit="10" stroke-linecap="round"/>
<path d="M20 13.7H35" stroke="currentColor" stroke-width="2" stroke-miterlimit="10" stroke-linecap="round"/>
<path d="M20 17.7H27" stroke="currentColor" stroke-width="2" stroke-miterlimit="10" stroke-linecap="round"/>
</g>
<defs>
<clipPath id="clip0_1147_147">
<rect width="40" height="40" fill="white"/>
</clipPath>
</defs>
</svg>
