<svg width="40" height="40" viewBox="0 0 40 40" fill="none" xmlns="http://www.w3.org/2000/svg">
<path fill-rule="evenodd" clip-rule="evenodd" d="M37 10H3C2.44772 10 2 10.4477 2 11V28C2 28.5523 2.44772 29 3 29H37C37.5523 29 38 28.5523 38 28V11C38 10.4477 37.5523 10 37 10ZM3 8C1.34315 8 0 9.34315 0 11V28C0 29.6569 1.34315 31 3 31H37C38.6569 31 40 29.6569 40 28V11C40 9.34315 38.6569 8 37 8H3Z" fill="currentColor"/>
<path fill-rule="evenodd" clip-rule="evenodd" d="M0 15C0 14.4477 0.447715 14 1 14H39C39.5523 14 40 14.4477 40 15C40 15.5523 39.5523 16 39 16H1C0.447715 16 0 15.5523 0 15Z" fill="currentColor"/>
<path fill-rule="evenodd" clip-rule="evenodd" d="M0 19C0 18.4477 0.447715 18 1 18H39C39.5523 18 40 18.4477 40 19C40 19.5523 39.5523 20 39 20H1C0.447715 20 0 19.5523 0 19Z" fill="currentColor"/>
<path fill-rule="evenodd" clip-rule="evenodd" d="M0 23C0 22.4477 0.447715 22 1 22H39C39.5523 22 40 22.4477 40 23C40 23.5523 39.5523 24 39 24H1C0.447715 24 0 23.5523 0 23Z" fill="currentColor"/>
<path fill-rule="evenodd" clip-rule="evenodd" d="M0 23C0 22.4477 0.447715 22 1 22H39C39.5523 22 40 22.4477 40 23C40 23.5523 39.5523 24 39 24H1C0.447715 24 0 23.5523 0 23Z" fill="currentColor"/>
<path fill-rule="evenodd" clip-rule="evenodd" d="M0 27C0 26.4477 0.447715 26 1 26H39C39.5523 26 40 26.4477 40 27C40 27.5523 39.5523 28 39 28H1C0.447715 28 0 27.5523 0 27Z" fill="currentColor"/>
<path fill-rule="evenodd" clip-rule="evenodd" d="M11 19C10.4477 19 10 18.5523 10 18L10 15C10 14.4477 10.4477 14 11 14C11.5523 14 12 14.4477 12 15L12 18C12 18.5523 11.5523 19 11 19Z" fill="currentColor"/>
<path fill-rule="evenodd" clip-rule="evenodd" d="M7 19C6.44772 19 6 18.5523 6 18L6 15C6 14.4477 6.44772 14 7 14C7.55228 14 8 14.4477 8 15L8 18C8 18.5523 7.55228 19 7 19Z" fill="currentColor"/>
<path fill-rule="evenodd" clip-rule="evenodd" d="M15 19C14.4477 19 14 18.5523 14 18L14 15C14 14.4477 14.4477 14 15 14C15.5523 14 16 14.4477 16 15L16 18C16 18.5523 15.5523 19 15 19Z" fill="currentColor"/>
<path fill-rule="evenodd" clip-rule="evenodd" d="M19 19C18.4477 19 18 18.5523 18 18L18 15C18 14.4477 18.4477 14 19 14C19.5523 14 20 14.4477 20 15L20 18C20 18.5523 19.5523 19 19 19Z" fill="currentColor"/>
<path fill-rule="evenodd" clip-rule="evenodd" d="M23 19C22.4477 19 22 18.5523 22 18L22 15C22 14.4477 22.4477 14 23 14C23.5523 14 24 14.4477 24 15L24 18C24 18.5523 23.5523 19 23 19Z" fill="currentColor"/>
<path fill-rule="evenodd" clip-rule="evenodd" d="M27 19C26.4477 19 26 18.5523 26 18L26 15C26 14.4477 26.4477 14 27 14C27.5523 14 28 14.4477 28 15L28 18C28 18.5523 27.5523 19 27 19Z" fill="currentColor"/>
<path fill-rule="evenodd" clip-rule="evenodd" d="M31 19C30.4477 19 30 18.5523 30 18L30 15C30 14.4477 30.4477 14 31 14C31.5523 14 32 14.4477 32 15L32 18C32 18.5523 31.5523 19 31 19Z" fill="currentColor"/>
<path fill-rule="evenodd" clip-rule="evenodd" d="M35 19C34.4477 19 34 18.5523 34 18L34 15C34 14.4477 34.4477 14 35 14C35.5523 14 36 14.4477 36 15L36 18C36 18.5523 35.5523 19 35 19Z" fill="currentColor"/>
<path fill-rule="evenodd" clip-rule="evenodd" d="M9 23C8.44772 23 8 22.5523 8 22L8 19C8 18.4477 8.44772 18 9 18C9.55228 18 10 18.4477 10 19L10 22C10 22.5523 9.55228 23 9 23Z" fill="currentColor"/>
<path fill-rule="evenodd" clip-rule="evenodd" d="M5 23C4.44772 23 4 22.5523 4 22L4 19C4 18.4477 4.44772 18 5 18C5.55228 18 6 18.4477 6 19L6 22C6 22.5523 5.55228 23 5 23Z" fill="currentColor"/>
<path fill-rule="evenodd" clip-rule="evenodd" d="M13 23C12.4477 23 12 22.5523 12 22L12 19C12 18.4477 12.4477 18 13 18C13.5523 18 14 18.4477 14 19L14 22C14 22.5523 13.5523 23 13 23Z" fill="currentColor"/>
<path fill-rule="evenodd" clip-rule="evenodd" d="M17 23C16.4477 23 16 22.5523 16 22L16 19C16 18.4477 16.4477 18 17 18C17.5523 18 18 18.4477 18 19L18 22C18 22.5523 17.5523 23 17 23Z" fill="currentColor"/>
<path fill-rule="evenodd" clip-rule="evenodd" d="M21 23C20.4477 23 20 22.5523 20 22L20 19C20 18.4477 20.4477 18 21 18C21.5523 18 22 18.4477 22 19L22 22C22 22.5523 21.5523 23 21 23Z" fill="currentColor"/>
<path fill-rule="evenodd" clip-rule="evenodd" d="M25 23C24.4477 23 24 22.5523 24 22L24 19C24 18.4477 24.4477 18 25 18C25.5523 18 26 18.4477 26 19L26 22C26 22.5523 25.5523 23 25 23Z" fill="currentColor"/>
<path fill-rule="evenodd" clip-rule="evenodd" d="M29 23C28.4477 23 28 22.5523 28 22L28 19C28 18.4477 28.4477 18 29 18C29.5523 18 30 18.4477 30 19L30 22C30 22.5523 29.5523 23 29 23Z" fill="currentColor"/>
<path fill-rule="evenodd" clip-rule="evenodd" d="M33 23C32.4477 23 32 22.5523 32 22L32 19C32 18.4477 32.4477 18 33 18C33.5523 18 34 18.4477 34 19L34 22C34 22.5523 33.5523 23 33 23Z" fill="currentColor"/>
<path fill-rule="evenodd" clip-rule="evenodd" d="M11 27C10.4477 27 10 26.5523 10 26L10 23C10 22.4477 10.4477 22 11 22C11.5523 22 12 22.4477 12 23L12 26C12 26.5523 11.5523 27 11 27Z" fill="currentColor"/>
<path fill-rule="evenodd" clip-rule="evenodd" d="M7 27C6.44772 27 6 26.5523 6 26L6 23C6 22.4477 6.44772 22 7 22C7.55228 22 8 22.4477 8 23L8 26C8 26.5523 7.55228 27 7 27Z" fill="currentColor"/>
<path fill-rule="evenodd" clip-rule="evenodd" d="M28 27C27.4477 27 27 26.5523 27 26L27 23C27 22.4477 27.4477 22 28 22C28.5523 22 29 22.4477 29 23L29 26C29 26.5523 28.5523 27 28 27Z" fill="currentColor"/>
<path fill-rule="evenodd" clip-rule="evenodd" d="M32 27C31.4477 27 31 26.5523 31 26L31 23C31 22.4477 31.4477 22 32 22C32.5523 22 33 22.4477 33 23L33 26C33 26.5523 32.5523 27 32 27Z" fill="currentColor"/>
<path fill-rule="evenodd" clip-rule="evenodd" d="M37 10H3C2.44772 10 2 10.4477 2 11V28C2 28.5523 2.44772 29 3 29H37C37.5523 29 38 28.5523 38 28V11C38 10.4477 37.5523 10 37 10ZM3 8C1.34315 8 0 9.34315 0 11V28C0 29.6569 1.34315 31 3 31H37C38.6569 31 40 29.6569 40 28V11C40 9.34315 38.6569 8 37 8H3Z" fill="currentColor"/>
<path fill-rule="evenodd" clip-rule="evenodd" d="M0 15C0 14.4477 0.447715 14 1 14H39C39.5523 14 40 14.4477 40 15C40 15.5523 39.5523 16 39 16H1C0.447715 16 0 15.5523 0 15Z" fill="currentColor"/>
<path fill-rule="evenodd" clip-rule="evenodd" d="M0 19C0 18.4477 0.447715 18 1 18H39C39.5523 18 40 18.4477 40 19C40 19.5523 39.5523 20 39 20H1C0.447715 20 0 19.5523 0 19Z" fill="currentColor"/>
<path fill-rule="evenodd" clip-rule="evenodd" d="M0 23C0 22.4477 0.447715 22 1 22H39C39.5523 22 40 22.4477 40 23C40 23.5523 39.5523 24 39 24H1C0.447715 24 0 23.5523 0 23Z" fill="currentColor"/>
<path fill-rule="evenodd" clip-rule="evenodd" d="M0 23C0 22.4477 0.447715 22 1 22H39C39.5523 22 40 22.4477 40 23C40 23.5523 39.5523 24 39 24H1C0.447715 24 0 23.5523 0 23Z" fill="currentColor"/>
<path fill-rule="evenodd" clip-rule="evenodd" d="M0 27C0 26.4477 0.447715 26 1 26H39C39.5523 26 40 26.4477 40 27C40 27.5523 39.5523 28 39 28H1C0.447715 28 0 27.5523 0 27Z" fill="currentColor"/>
<path fill-rule="evenodd" clip-rule="evenodd" d="M11 19C10.4477 19 10 18.5523 10 18L10 15C10 14.4477 10.4477 14 11 14C11.5523 14 12 14.4477 12 15L12 18C12 18.5523 11.5523 19 11 19Z" fill="currentColor"/>
<path fill-rule="evenodd" clip-rule="evenodd" d="M7 19C6.44772 19 6 18.5523 6 18L6 15C6 14.4477 6.44772 14 7 14C7.55228 14 8 14.4477 8 15L8 18C8 18.5523 7.55228 19 7 19Z" fill="currentColor"/>
<path fill-rule="evenodd" clip-rule="evenodd" d="M15 19C14.4477 19 14 18.5523 14 18L14 15C14 14.4477 14.4477 14 15 14C15.5523 14 16 14.4477 16 15L16 18C16 18.5523 15.5523 19 15 19Z" fill="currentColor"/>
<path fill-rule="evenodd" clip-rule="evenodd" d="M19 19C18.4477 19 18 18.5523 18 18L18 15C18 14.4477 18.4477 14 19 14C19.5523 14 20 14.4477 20 15L20 18C20 18.5523 19.5523 19 19 19Z" fill="currentColor"/>
<path fill-rule="evenodd" clip-rule="evenodd" d="M23 19C22.4477 19 22 18.5523 22 18L22 15C22 14.4477 22.4477 14 23 14C23.5523 14 24 14.4477 24 15L24 18C24 18.5523 23.5523 19 23 19Z" fill="currentColor"/>
<path fill-rule="evenodd" clip-rule="evenodd" d="M27 19C26.4477 19 26 18.5523 26 18L26 15C26 14.4477 26.4477 14 27 14C27.5523 14 28 14.4477 28 15L28 18C28 18.5523 27.5523 19 27 19Z" fill="currentColor"/>
<path fill-rule="evenodd" clip-rule="evenodd" d="M31 19C30.4477 19 30 18.5523 30 18L30 15C30 14.4477 30.4477 14 31 14C31.5523 14 32 14.4477 32 15L32 18C32 18.5523 31.5523 19 31 19Z" fill="currentColor"/>
<path fill-rule="evenodd" clip-rule="evenodd" d="M35 19C34.4477 19 34 18.5523 34 18L34 15C34 14.4477 34.4477 14 35 14C35.5523 14 36 14.4477 36 15L36 18C36 18.5523 35.5523 19 35 19Z" fill="currentColor"/>
<path fill-rule="evenodd" clip-rule="evenodd" d="M9 23C8.44772 23 8 22.5523 8 22L8 19C8 18.4477 8.44772 18 9 18C9.55228 18 10 18.4477 10 19L10 22C10 22.5523 9.55228 23 9 23Z" fill="currentColor"/>
<path fill-rule="evenodd" clip-rule="evenodd" d="M5 23C4.44772 23 4 22.5523 4 22L4 19C4 18.4477 4.44772 18 5 18C5.55228 18 6 18.4477 6 19L6 22C6 22.5523 5.55228 23 5 23Z" fill="currentColor"/>
<path fill-rule="evenodd" clip-rule="evenodd" d="M13 23C12.4477 23 12 22.5523 12 22L12 19C12 18.4477 12.4477 18 13 18C13.5523 18 14 18.4477 14 19L14 22C14 22.5523 13.5523 23 13 23Z" fill="currentColor"/>
<path fill-rule="evenodd" clip-rule="evenodd" d="M17 23C16.4477 23 16 22.5523 16 22L16 19C16 18.4477 16.4477 18 17 18C17.5523 18 18 18.4477 18 19L18 22C18 22.5523 17.5523 23 17 23Z" fill="currentColor"/>
<path fill-rule="evenodd" clip-rule="evenodd" d="M21 23C20.4477 23 20 22.5523 20 22L20 19C20 18.4477 20.4477 18 21 18C21.5523 18 22 18.4477 22 19L22 22C22 22.5523 21.5523 23 21 23Z" fill="currentColor"/>
<path fill-rule="evenodd" clip-rule="evenodd" d="M25 23C24.4477 23 24 22.5523 24 22L24 19C24 18.4477 24.4477 18 25 18C25.5523 18 26 18.4477 26 19L26 22C26 22.5523 25.5523 23 25 23Z" fill="currentColor"/>
<path fill-rule="evenodd" clip-rule="evenodd" d="M29 23C28.4477 23 28 22.5523 28 22L28 19C28 18.4477 28.4477 18 29 18C29.5523 18 30 18.4477 30 19L30 22C30 22.5523 29.5523 23 29 23Z" fill="currentColor"/>
<path fill-rule="evenodd" clip-rule="evenodd" d="M33 23C32.4477 23 32 22.5523 32 22L32 19C32 18.4477 32.4477 18 33 18C33.5523 18 34 18.4477 34 19L34 22C34 22.5523 33.5523 23 33 23Z" fill="currentColor"/>
<path fill-rule="evenodd" clip-rule="evenodd" d="M11 27C10.4477 27 10 26.5523 10 26L10 23C10 22.4477 10.4477 22 11 22C11.5523 22 12 22.4477 12 23L12 26C12 26.5523 11.5523 27 11 27Z" fill="currentColor"/>
<path fill-rule="evenodd" clip-rule="evenodd" d="M7 27C6.44772 27 6 26.5523 6 26L6 23C6 22.4477 6.44772 22 7 22C7.55228 22 8 22.4477 8 23L8 26C8 26.5523 7.55228 27 7 27Z" fill="currentColor"/>
<path fill-rule="evenodd" clip-rule="evenodd" d="M28 27C27.4477 27 27 26.5523 27 26L27 23C27 22.4477 27.4477 22 28 22C28.5523 22 29 22.4477 29 23L29 26C29 26.5523 28.5523 27 28 27Z" fill="currentColor"/>
<path fill-rule="evenodd" clip-rule="evenodd" d="M32 27C31.4477 27 31 26.5523 31 26L31 23C31 22.4477 31.4477 22 32 22C32.5523 22 33 22.4477 33 23L33 26C33 26.5523 32.5523 27 32 27Z" fill="currentColor"/>
</svg>
