<svg width="40" height="40" viewBox="0 0 40 40" fill="none" xmlns="http://www.w3.org/2000/svg">
<g clip-path="url(#clip0_1273_3)">
<path d="M39.0017 20.3101C39.0017 21.4901 37.2317 22.5701 33.5117 23.3101L39.0017 20.3101Z" fill="white"/>
<path d="M39.0017 20.3101C39.0017 21.4901 37.2317 22.5701 33.5117 23.3101" stroke="currentColor" stroke-width="2" stroke-miterlimit="10" stroke-linecap="round"/>
<path d="M20 24.4201C9.75 24.3601 1 22.5401 1 20.3101L20 24.4201Z" fill="white"/>
<path d="M20 24.4201C9.75 24.3601 1 22.5401 1 20.3101" stroke="currentColor" stroke-width="2" stroke-miterlimit="10" stroke-linecap="round"/>
<path d="M39 34.9399C39 37.2099 30.49 39.0499 20 39.0499C9.51 39.0499 1 37.2099 1 34.9399" stroke="currentColor" stroke-width="2" stroke-miterlimit="10" stroke-linecap="round"/>
<path d="M1 20.3101V35.2101" stroke="currentColor" stroke-width="2" stroke-miterlimit="10"/>
<path d="M39 20.3101V35.2101" stroke="currentColor" stroke-width="2" stroke-miterlimit="10"/>
<path d="M6.48828 23.46V29.68" stroke="currentColor" stroke-width="2" stroke-miterlimit="10" stroke-linecap="round"/>
<path d="M6.48828 32.97V37.83" stroke="currentColor" stroke-width="2" stroke-miterlimit="10" stroke-linecap="round"/>
<path d="M12.7188 24.5V39.05" stroke="currentColor" stroke-width="2" stroke-miterlimit="10"/>
<path d="M20 24.5V39.05" stroke="currentColor" stroke-width="2" stroke-miterlimit="10"/>
<path d="M33.5117 23.46V36.98" stroke="currentColor" stroke-width="2" stroke-miterlimit="10" stroke-linecap="round"/>
<path d="M19 21.3899C19.4275 20.9869 19.9385 20.6829 20.4968 20.4997C21.055 20.3165 21.6468 20.2585 22.23 20.3299C22.4963 20.3837 22.7353 20.5293 22.9053 20.7413C23.0752 20.9533 23.1654 21.2183 23.16 21.4899V35.9399" stroke="currentColor" stroke-width="2" stroke-miterlimit="10" stroke-linecap="round"/>
<path d="M26.2383 20.3499C26.6505 19.9323 27.1542 19.6164 27.7096 19.4272C28.2651 19.238 28.8569 19.1807 29.4383 19.2599C29.71 19.3098 29.955 19.4551 30.1292 19.6696C30.3033 19.8841 30.3952 20.1537 30.3883 20.4299V34.8999" stroke="currentColor" stroke-width="2" stroke-miterlimit="10" stroke-linecap="round"/>
<path d="M23.1211 24.5L30.3911 23.46" stroke="currentColor" stroke-width="2" stroke-miterlimit="10"/>
<path d="M23.1211 28.6601L30.3911 27.6201" stroke="currentColor" stroke-width="2" stroke-miterlimit="10"/>
<path d="M23.1211 32.82L30.3911 31.78" stroke="currentColor" stroke-width="2" stroke-miterlimit="10"/>
<path d="M39 20.3099C38.9202 19.5084 38.5608 18.7605 37.9849 18.1973C37.4089 17.6342 36.6531 17.2917 35.85 17.2299H35.8C35.649 16.4786 35.2367 15.8052 34.6362 15.3292C34.0357 14.8532 33.2859 14.6054 32.52 14.6299C31.9223 14.6319 31.3345 14.7832 30.81 15.0699C30.4892 14.4597 30.0162 13.9428 29.4367 13.5693C28.8573 13.1957 28.1912 12.9783 27.503 12.9381C26.8148 12.8978 26.1278 13.0361 25.5088 13.3396C24.8898 13.643 24.3597 14.1013 23.97 14.6699C23.7411 14.3921 23.4549 14.167 23.1311 14.0101C22.8072 13.8531 22.4532 13.7678 22.0934 13.7602C21.7335 13.7527 21.3763 13.8228 21.046 13.966C20.7158 14.1092 20.4204 14.322 20.18 14.5899C19.4832 14.0537 18.6292 13.762 17.75 13.7599C17.2927 13.7605 16.8391 13.8418 16.41 13.9999C16.0739 13.3908 15.5797 12.8836 14.9796 12.5316C14.3795 12.1797 13.6957 11.996 13 11.9999C12.1784 11.9777 11.3723 12.2259 10.7056 12.7065C10.0389 13.1871 9.54859 13.8734 9.31 14.6599C9.11592 14.6197 8.91821 14.5996 8.72 14.5999C7.91533 14.5656 7.12702 14.8341 6.51058 15.3524C5.89414 15.8708 5.49432 16.6013 5.39 17.3999C5.06935 17.2845 4.73077 17.227 4.39 17.2299C2.83 17.2299 1 18.8699 1 20.3099" stroke="currentColor" stroke-width="2" stroke-linecap="round" stroke-linejoin="round"/>
<path d="M9.17969 20.0001C9.41268 19.5834 9.74428 19.2302 10.1455 18.9714C10.5466 18.7126 11.0052 18.5561 11.4809 18.5156C11.9565 18.4752 12.4349 18.552 12.874 18.7393C13.3132 18.9266 13.6997 19.2187 13.9997 19.5901" stroke="currentColor" stroke-width="2" stroke-miterlimit="10" stroke-linecap="round"/>
<path d="M14.2983 1.59009C14.5514 2.1535 14.6875 2.76249 14.6983 3.38009C14.6929 3.97905 14.5564 4.56956 14.2983 5.11009C14.0818 5.64293 13.9796 6.21527 13.9983 6.79009C13.9963 7.43132 14.0941 8.06895 14.2883 8.68009" stroke="currentColor" stroke-width="2" stroke-miterlimit="10" stroke-linecap="round"/>
<path d="M9.12109 2.88989C9.37428 3.45331 9.51037 4.06229 9.52109 4.67989C9.51573 5.27885 9.37919 5.86937 9.12109 6.40989C8.90806 6.94347 8.80927 7.51578 8.83109 8.08989C8.82703 8.73782 8.92489 9.38236 9.12109 9.99989" stroke="currentColor" stroke-width="2" stroke-miterlimit="10" stroke-linecap="round"/>
<path d="M19.9302 1.05005C20.2247 1.60177 20.3856 2.21485 20.4002 2.84005C20.3906 3.44694 20.2291 4.04175 19.9302 4.57005C19.6918 5.097 19.5788 5.67207 19.6002 6.25005C19.5997 6.89768 19.7114 7.54051 19.9302 8.15005" stroke="currentColor" stroke-width="2" stroke-miterlimit="10" stroke-linecap="round"/>
<path d="M25.119 2C25.3855 2.55972 25.5287 3.17015 25.539 3.79C25.5307 4.3909 25.3872 4.9822 25.119 5.52C24.9007 6.04881 24.7984 6.61829 24.819 7.19C24.8162 7.83535 24.9175 8.47692 25.119 9.09" stroke="currentColor" stroke-width="2" stroke-miterlimit="10" stroke-linecap="round"/>
<path d="M30.3309 2.88989C30.5957 3.45022 30.7389 4.06027 30.7509 4.67989C30.7427 5.28079 30.5991 5.8721 30.3309 6.40989C30.101 6.93951 29.9884 7.51264 30.0009 8.08989C29.9992 8.73189 30.1005 9.37 30.3009 9.97989" stroke="currentColor" stroke-width="2" stroke-miterlimit="10" stroke-linecap="round"/>
</g>
<defs>
<clipPath id="clip0_1273_3">
<rect width="40" height="40" fill="white"/>
</clipPath>
</defs>
</svg>
