<svg width="40" height="40" viewBox="0 0 40 40" fill="none" xmlns="http://www.w3.org/2000/svg">
<path d="M25.3892 39.0001H12.6092C12.1686 38.9992 11.7392 38.8609 11.3807 38.6046C11.0223 38.3484 10.7526 37.9868 10.6092 37.5701L9.51922 35.4001C9.30838 34.7337 9.20047 34.0391 9.19922 33.3401V11.3401L10.9992 5.61011H27.9992L29.2192 11.3601V33.0001C29.2198 33.9173 29.0362 34.8252 28.6792 35.6701L27.3192 37.7301C27.1548 38.1058 26.885 38.4257 26.5424 38.6511C26.1999 38.8765 25.7993 38.9978 25.3892 39.0001V39.0001Z" stroke="currentColor" stroke-width="2" stroke-miterlimit="10"/>
<path d="M28.0392 34.3899H13.1992" stroke="currentColor" stroke-width="2" stroke-miterlimit="10" stroke-linecap="round"/>
<path d="M28.0402 11.3601H16.6602" stroke="currentColor" stroke-width="2" stroke-miterlimit="10" stroke-linecap="round"/>
<path d="M13.5211 12.51C14.1562 12.51 14.6711 11.9951 14.6711 11.36C14.6711 10.7248 14.1562 10.21 13.5211 10.21C12.886 10.21 12.3711 10.7248 12.3711 11.36C12.3711 11.9951 12.886 12.51 13.5211 12.51Z" fill="currentColor"/>
<path d="M9.75 5.61011H29.32" stroke="currentColor" stroke-width="2" stroke-miterlimit="10" stroke-linecap="round"/>
<path d="M17.8092 5.61L13.1992 1" stroke="currentColor" stroke-width="2" stroke-miterlimit="10" stroke-linecap="round"/>
<path d="M16.0806 22.88C17.1521 22.88 18.0206 22.0114 18.0206 20.94C18.0206 19.8686 17.1521 19 16.0806 19C15.0092 19 14.1406 19.8686 14.1406 20.94C14.1406 22.0114 15.0092 22.88 16.0806 22.88Z" stroke="currentColor" stroke-width="2" stroke-miterlimit="10" stroke-linecap="round"/>
<path d="M17.9587 27.48C18.3674 27.48 18.6988 27.1487 18.6988 26.74C18.6988 26.3313 18.3674 26 17.9587 26C17.5501 26 17.2188 26.3313 17.2188 26.74C17.2188 27.1487 17.5501 27.48 17.9587 27.48Z" stroke="currentColor" stroke-width="2" stroke-miterlimit="10" stroke-linecap="round"/>
<path d="M20.1109 32.09C20.7461 32.09 21.2609 31.5752 21.2609 30.94C21.2609 30.3049 20.7461 29.79 20.1109 29.79C19.4758 29.79 18.9609 30.3049 18.9609 30.94C18.9609 31.5752 19.4758 32.09 20.1109 32.09Z" fill="currentColor"/>
<path d="M22.5719 25.03C23.207 25.03 23.7219 24.5151 23.7219 23.88C23.7219 23.2449 23.207 22.73 22.5719 22.73C21.9367 22.73 21.4219 23.2449 21.4219 23.88C21.4219 24.5151 21.9367 25.03 22.5719 25.03Z" fill="currentColor"/>
<path d="M21.5719 18.27C22.207 18.27 22.7219 17.7551 22.7219 17.12C22.7219 16.4848 22.207 15.97 21.5719 15.97C20.9367 15.97 20.4219 16.4848 20.4219 17.12C20.4219 17.7551 20.9367 18.27 21.5719 18.27Z" fill="currentColor"/>
</svg>
