<svg width="40" height="40" viewBox="0 0 40 40" fill="none" xmlns="http://www.w3.org/2000/svg">
<g clip-path="url(#clip0_1147_88)">
<path d="M13.6709 21.6699L4.46094 37.3599H21.0109" stroke="currentColor" stroke-width="2" stroke-linecap="round" stroke-linejoin="round"/>
<path d="M20.5781 33.1999C25.489 33.9468 30.4916 33.8454 35.3681 32.8999" stroke="currentColor" stroke-width="2" stroke-linecap="round" stroke-linejoin="round"/>
<path d="M26.3281 37.3601H35.7881" stroke="currentColor" stroke-width="2" stroke-linecap="round" stroke-linejoin="round"/>
<path d="M13 20C13 20 13.13 20.94 13.76 21.1C18.4605 22.0722 23.3136 22.0381 28 21C28.2444 20.9453 28.4682 20.8223 28.6452 20.6452C28.8223 20.4682 28.9453 20.2444 29 20" stroke="currentColor" stroke-width="2" stroke-linecap="round" stroke-linejoin="round"/>
<path d="M36.7006 35.1199L28.6406 21.6699" stroke="currentColor" stroke-width="2" stroke-linecap="round" stroke-linejoin="round"/>
<path d="M21.7319 35.1199L13.6719 21.6699" stroke="currentColor" stroke-width="2" stroke-linecap="round" stroke-linejoin="round"/>
<path d="M22.8789 38.48L24.0289 36.24" stroke="currentColor" stroke-width="2" stroke-linecap="round" stroke-linejoin="round"/>
<path d="M2.48031 38.48L1.32031 36.24" stroke="currentColor" stroke-width="2" stroke-linecap="round" stroke-linejoin="round"/>
<path d="M37.8516 38.48L39.0016 36.24" stroke="currentColor" stroke-width="2" stroke-linecap="round" stroke-linejoin="round"/>
<path d="M13.5 31C14.163 31 14.7989 31.2634 15.2678 31.7322C15.7366 32.2011 16 32.837 16 33.5V37H11V33.5C11 32.837 11.2634 32.2011 11.7322 31.7322C12.2011 31.2634 12.837 31 13.5 31V31Z" stroke="currentColor" stroke-width="2" stroke-linecap="round" stroke-linejoin="round"/>
<path d="M29.13 1.99988C29.9238 1.96299 30.7034 2.22003 31.3196 2.72185C31.9358 3.22366 32.3454 3.93503 32.47 4.71988C32.8252 4.81351 33.141 5.01837 33.3714 5.30448C33.6017 5.59059 33.7344 5.94292 33.75 6.30988C33.7216 6.78393 33.507 7.22755 33.153 7.5441C32.799 7.86065 32.3343 8.02448 31.86 7.99988H25.14C24.6657 8.02448 24.201 7.86065 23.847 7.5441C23.493 7.22755 23.2784 6.78393 23.25 6.30988C23.2784 5.83583 23.493 5.39221 23.847 5.07566C24.201 4.75911 24.6657 4.59529 25.14 4.61988H25.8C25.9519 3.85804 26.3708 3.17546 26.9813 2.69511C27.5918 2.21476 28.3538 1.96821 29.13 1.99988ZM29.13 -0.000116759C28.1699 -0.0120881 27.2239 0.23169 26.3891 0.706186C25.5543 1.18068 24.8609 1.8688 24.38 2.69988C23.5199 2.84382 22.7369 3.283 22.1656 3.94186C21.5944 4.60073 21.2706 5.43809 21.25 6.30988C21.2788 7.31429 21.7042 8.2664 22.4332 8.95793C23.1622 9.64946 24.1355 10.0241 25.14 9.99988H31.86C32.8645 10.0241 33.8378 9.64946 34.5668 8.95793C35.2958 8.2664 35.7212 7.31429 35.75 6.30988C35.7469 5.73135 35.6044 5.16208 35.3346 4.65031C35.0648 4.13853 34.6756 3.69932 34.2 3.36988C33.8012 2.3569 33.1013 1.49063 32.1947 0.887999C31.2881 0.285367 30.2184 -0.0246178 29.13 -0.000116759Z" fill="currentColor"/>
<path d="M19.78 1.81008C19.172 1.29072 18.3996 1.00372 17.6 1.00008C16.8596 0.967397 16.1322 1.20189 15.5503 1.66081C14.9684 2.11972 14.5708 2.77248 14.43 3.50008H13.8C13.5733 3.48934 13.3466 3.52359 13.1332 3.60086C12.9198 3.67812 12.7237 3.79686 12.5564 3.95025C12.3891 4.10363 12.2538 4.28862 12.1583 4.49455C12.0628 4.70047 12.009 4.92326 12 5.15008C12.0284 5.60109 12.2331 6.02283 12.5699 6.3241C12.9068 6.62538 13.3486 6.78199 13.8 6.76008H22" stroke="currentColor" stroke-width="2" stroke-miterlimit="10" stroke-linecap="round"/>
<path d="M13.5697 10.71L12.1797 13.12" stroke="currentColor" stroke-width="2" stroke-miterlimit="10" stroke-linecap="round"/>
<path d="M30.5697 11.71L29.1797 14.12" stroke="currentColor" stroke-width="2" stroke-miterlimit="10" stroke-linecap="round"/>
<path d="M36.5697 20.71L35.1797 23.12" stroke="currentColor" stroke-width="2" stroke-miterlimit="10" stroke-linecap="round"/>
<path d="M25.5697 24.71L24.1797 27.12" stroke="currentColor" stroke-width="2" stroke-miterlimit="10" stroke-linecap="round"/>
<path d="M20.5697 15.71L19.1797 18.12" stroke="currentColor" stroke-width="2" stroke-miterlimit="10" stroke-linecap="round"/>
<path d="M8.56969 19.71L7.17969 22.12" stroke="currentColor" stroke-width="2" stroke-miterlimit="10" stroke-linecap="round"/>
</g>
<defs>
<clipPath id="clip0_1147_88">
<rect width="40" height="40" fill="white"/>
</clipPath>
</defs>
</svg>
