<svg xmlns="http://www.w3.org/2000/svg" width="40" height="40" fill="currentColor" viewBox="0 0 40 40">
  <path fill-rule="evenodd" d="M11.854 12H7a5 5 0 0 0 0 10h11.482l.417-1.995c.116-.555.642-.847 1.174-.652.532.195.87.803.754 1.358L20.557 22H33a5 5 0 0 0 1.336-9.82l-.651-.18H26a1 1 0 1 1 0-2h6.79c-.963-4.512-5.155-8-10.29-8-5.264 0-9.54 3.667-10.357 8.344L11.853 12ZM7 24h11.064l-.856 4.096a1.224 1.224 0 0 0 .754 1.358.906.906 0 0 0 .606.016l.073-.007 2.089-.273-1.62 5.9c-.152.555.146 1.208.665 1.458s1.063.002 1.216-.554l2.218-8.086c.153-.555-.145-1.208-.664-1.458a.895.895 0 0 0-.613-.072 1.342 1.342 0 0 0-.137.011l-2.215.29.56-2.679H33a7 7 0 0 0 1.868-13.748C33.987 4.453 28.785 0 22.5 0c-6.194 0-11.335 4.325-12.327 10H7a7 7 0 1 0 0 14Zm3.778 4.259a1 1 0 0 0-1.224.707L8.518 32.83a1 1 0 0 0 1.932.517l1.036-3.863a1 1 0 0 0-.708-1.225Zm18.408.707a1 1 0 0 1 1.932.518l-1.035 3.863a1 1 0 0 1-1.932-.517l1.035-3.864Z" clip-rule="evenodd"/>
</svg>
