<svg width="40" height="40" viewBox="0 0 40 40" fill="none" xmlns="http://www.w3.org/2000/svg">
<g clip-path="url(#clip0_1106_4)">
<path d="M10 14H1C0.734784 14 0.48043 13.8946 0.292893 13.7071C0.105357 13.5196 0 13.2652 0 13C0 12.7348 0.105357 12.4804 0.292893 12.2929C0.48043 12.1054 0.734784 12 1 12H10C10.2652 12 10.5196 12.1054 10.7071 12.2929C10.8946 12.4804 11 12.7348 11 13C11 13.2652 10.8946 13.5196 10.7071 13.7071C10.5196 13.8946 10.2652 14 10 14Z" fill="currentColor"/>
<path d="M24 14H15C14.7348 14 14.4804 13.8946 14.2929 13.7071C14.1054 13.5196 14 13.2652 14 13C14 12.7348 14.1054 12.4804 14.2929 12.2929C14.4804 12.1054 14.7348 12 15 12H24C24.2652 12 24.5196 12.1054 24.7071 12.2929C24.8946 12.4804 25 12.7348 25 13C25 13.2652 24.8946 13.5196 24.7071 13.7071C24.5196 13.8946 24.2652 14 24 14Z" fill="currentColor"/>
<path d="M27 26H25C24.7348 26 24.4804 25.8946 24.2929 25.7071C24.1054 25.5196 24 25.2652 24 25C24 24.7348 24.1054 24.4804 24.2929 24.2929C24.4804 24.1054 24.7348 24 25 24H27C27.2652 24 27.5196 24.1054 27.7071 24.2929C27.8946 24.4804 28 24.7348 28 25C28 25.2652 27.8946 25.5196 27.7071 25.7071C27.5196 25.8946 27.2652 26 27 26Z" fill="currentColor"/>
<path d="M21 24H1C0.734784 24 0.48043 24.1054 0.292893 24.2929C0.105357 24.4804 0 24.7348 0 25C0 25.2652 0.105357 25.5196 0.292893 25.7071C0.48043 25.8946 0.734784 26 1 26H21C21.2652 26 21.5196 25.8946 21.7071 25.7071C21.8946 25.5196 22 25.2652 22 25C22 24.7348 21.8946 24.4804 21.7071 24.2929C21.5196 24.1054 21.2652 24 21 24Z" fill="currentColor"/>
<path d="M10.3086 16.76H29.5686" stroke="currentColor" stroke-width="2" stroke-miterlimit="10" stroke-linecap="round"/>
<path d="M29.5694 16.7599C31.9694 16.8299 34.7794 15.1399 34.8394 12.7599C34.8636 11.8385 34.5213 10.9452 33.8876 10.2759C33.254 9.60665 32.3807 9.21607 31.4594 9.1899C31.0948 9.17925 30.7316 9.24073 30.3908 9.37079C30.05 9.50086 29.7383 9.69696 29.4735 9.94783C29.2087 10.1987 28.996 10.4994 28.8477 10.8327C28.6994 11.166 28.6184 11.5252 28.6094 11.8899" stroke="currentColor" stroke-width="2" stroke-miterlimit="10" stroke-linecap="round"/>
<path d="M19.9414 21.05H32.7814" stroke="currentColor" stroke-width="2" stroke-miterlimit="10" stroke-linecap="round"/>
<path d="M9 21L15.73 21.05" stroke="currentColor" stroke-width="2" stroke-miterlimit="10" stroke-linecap="round"/>
<path d="M32.7803 21.05C34.3551 21.0508 35.8714 21.647 37.025 22.719C38.1786 23.791 38.8842 25.2595 39.0003 26.83C39.0163 27.4316 38.9136 28.0303 38.698 28.5921C38.4825 29.1539 38.1584 29.6677 37.7442 30.1042C37.33 30.5407 36.8339 30.8913 36.2841 31.1359C35.7344 31.3806 35.1418 31.5145 34.5403 31.5301C33.5807 31.549 32.6522 31.1891 31.9559 30.5284C31.2597 29.8677 30.8517 28.9594 30.8203 28" stroke="currentColor" stroke-width="2" stroke-miterlimit="10" stroke-linecap="round"/>
<path d="M4.37859 22.12C4.96954 22.12 5.44859 21.6409 5.44859 21.05C5.44859 20.459 4.96954 19.98 4.37859 19.98C3.78765 19.98 3.30859 20.459 3.30859 21.05C3.30859 21.6409 3.78765 22.12 4.37859 22.12Z" fill="currentColor"/>
<path d="M6.10125 17.8299C6.69219 17.8299 7.17125 17.3509 7.17125 16.7599C7.17125 16.169 6.69219 15.6899 6.10125 15.6899C5.5103 15.6899 5.03125 16.169 5.03125 16.7599C5.03125 17.3509 5.5103 17.8299 6.10125 17.8299Z" fill="currentColor"/>
</g>
<defs>
<clipPath id="clip0_1106_4">
<rect width="40" height="40" fill="white"/>
</clipPath>
</defs>
</svg>
