<svg width="40" height="40" viewBox="0 0 40 40" fill="none" xmlns="http://www.w3.org/2000/svg">
<g clip-path="url(#clip0_751_153)">
<path fill-rule="evenodd" clip-rule="evenodd" d="M16.3429 27.1521C14.9947 23.7827 13.6348 20.3839 13.8805 15.4705L15.7828 15.57C15.5597 20.0305 16.7725 23.0818 18.1204 26.4507L18.1291 26.4725C18.7856 28.1132 19.4689 29.8209 19.9986 31.769C20.5284 29.8209 21.2117 28.1132 21.8682 26.4725L21.8769 26.4507C23.2249 23.0818 24.4376 20.0305 24.2145 15.57L26.1168 15.4705C26.3625 20.3839 25.0026 23.7827 23.6544 27.1521L23.6397 27.1889C22.2951 30.5495 20.951 33.9205 20.951 38.9999H19.0462C19.0462 33.9205 17.7022 30.5495 16.3576 27.1889L16.3429 27.1521Z" fill="currentColor"/>
<path fill-rule="evenodd" clip-rule="evenodd" d="M23.0699 14.9595C20.9419 15.0617 19.0622 15.0617 16.9341 14.9595C16.313 14.9297 15.8462 15.4229 15.8462 15.9702V27.3811C15.8462 29.7293 17.7068 31.6329 20.002 31.6329C22.2972 31.6329 24.1579 29.7293 24.1579 27.3811V15.9703C24.1579 15.4229 23.6911 14.9297 23.0699 14.9595ZM17.0234 13.0129C15.36 12.9331 13.9414 14.2666 13.9414 15.9702V27.3811C13.9414 30.8056 16.6548 33.5816 20.002 33.5816C23.3492 33.5816 26.0626 30.8056 26.0626 27.3811V15.9703C26.0626 14.2666 24.644 12.9331 22.9806 13.0129C20.9121 13.1122 19.092 13.1122 17.0234 13.0129Z" fill="currentColor"/>
<path fill-rule="evenodd" clip-rule="evenodd" d="M15.8037 7.8304C16.6258 7.29143 17.686 7.04353 18.6832 7.21872C19.5532 7.37156 20.4457 7.37156 21.3157 7.21872C22.3129 7.04353 23.3731 7.29143 24.1952 7.8304C25.023 8.37309 25.7137 9.29117 25.7137 10.4874V14.641H23.809V10.4874C23.809 10.1272 23.6071 9.75935 23.1675 9.47113C22.7222 9.17917 22.1402 9.05111 21.638 9.13933C20.5547 9.32964 19.4442 9.32964 18.3609 9.13933C17.8587 9.05111 17.2767 9.17917 16.8314 9.47113C16.3917 9.75935 16.1899 10.1272 16.1899 10.4874V14.641H14.2852V10.4874C14.2852 9.29117 14.9759 8.37309 15.8037 7.8304Z" fill="currentColor"/>
<path fill-rule="evenodd" clip-rule="evenodd" d="M17.6411 6.05806C17.2447 6.78398 17.143 7.78261 17.143 8.79487H15.2383C15.2383 7.73743 15.3271 6.30017 15.9783 5.10763C16.3151 4.49084 16.8038 3.93586 17.4952 3.54199C18.1822 3.15055 19.0156 2.94873 20.0002 2.94873C20.9848 2.94873 21.8181 3.15055 22.5052 3.54199C23.1965 3.93586 23.6853 4.49084 24.0221 5.10763C24.6733 6.30017 24.7621 7.73743 24.7621 8.79487H22.8573C22.8573 7.78261 22.7556 6.78398 22.3592 6.05806C22.1722 5.71561 21.9229 5.44071 21.5785 5.24452C21.2299 5.04589 20.7299 4.89744 20.0002 4.89744C19.2705 4.89744 18.7705 5.04589 18.4219 5.24452C18.0775 5.44071 17.8281 5.71561 17.6411 6.05806Z" fill="currentColor"/>
<path fill-rule="evenodd" clip-rule="evenodd" d="M23.8182 13.5294C23.8923 12.9967 24.3745 12.6262 24.8952 12.702L30.4153 13.5052L36.1567 16.5897H39.0468C39.5728 16.5897 39.9992 17.0259 39.9992 17.564C39.9992 18.1022 39.5728 18.5384 39.0468 18.5384H35.687L29.8212 15.387L24.627 14.6313C24.1062 14.5555 23.7441 14.0622 23.8182 13.5294Z" fill="currentColor"/>
<path fill-rule="evenodd" clip-rule="evenodd" d="M16.1818 13.5294C16.1077 12.9967 15.6255 12.6262 15.1048 12.702L9.5847 13.5052L3.84334 16.5897H0.953191C0.427205 16.5897 0.000810623 17.0259 0.000810623 17.564C0.000810623 18.1022 0.427205 18.5384 0.953191 18.5384H4.31304L10.1788 15.387L15.373 14.6313C15.8938 14.5555 16.2559 14.0622 16.1818 13.5294Z" fill="currentColor"/>
<path fill-rule="evenodd" clip-rule="evenodd" d="M15.7307 13.3196C15.2803 13.0417 14.6949 13.19 14.4233 13.6508L15.2389 14.1539L16.0545 14.6571C16.3261 14.1963 16.1811 13.5974 15.7307 13.3196ZM11.3991 35.7982C11.392 35.7907 11.3846 35.7828 11.3767 35.7745C11.2076 35.597 10.9502 35.364 10.6093 35.0672C10.4798 34.9545 10.3403 34.8343 10.1932 34.7077C9.59288 34.1908 8.86746 33.5662 8.19323 32.9024C7.36279 32.0849 6.51821 31.1221 6.04388 30.1088C5.55161 29.0573 5.40238 27.7964 6.26105 26.6632C7.35094 25.225 9.38003 21.9949 11.1628 19.0767C12.0481 17.6276 12.8635 16.2708 13.4576 15.276C13.7546 14.7787 13.9962 14.3721 14.1635 14.09C14.2471 13.9489 14.3122 13.8389 14.3563 13.7643L14.4233 13.6508C14.4233 13.6507 14.4233 13.6508 15.2389 14.1539C16.0545 14.6571 16.0545 14.657 16.0545 14.6571L15.9862 14.7727C15.9417 14.848 15.8762 14.9587 15.7921 15.1006C15.6239 15.3843 15.3812 15.7928 15.0829 16.2921C14.4866 17.2906 13.6677 18.6533 12.7781 20.1095C11.011 23.0019 8.92757 26.3249 7.76641 27.8572C7.49956 28.2094 7.45858 28.6194 7.76177 29.2671C8.08291 29.953 8.72102 30.7176 9.51396 31.4983C10.1375 32.1121 10.7999 32.6827 11.3973 33.1972C11.5509 33.3296 11.7003 33.4582 11.8436 33.583C12.1817 33.8773 12.5021 34.1638 12.7408 34.4144C12.8591 34.5386 12.9834 34.6807 13.0838 34.8314C13.1619 34.9487 13.3341 35.2258 13.3341 35.5898C13.3341 35.9697 13.2382 36.3509 13.1353 36.6629C13.0283 36.9875 12.8904 37.305 12.7604 37.5758C12.6294 37.8489 12.4994 38.0888 12.4024 38.2602C12.3537 38.3463 12.3127 38.4162 12.2833 38.4655C12.2686 38.4901 12.2568 38.5097 12.2482 38.5237L12.238 38.5404L12.2349 38.5455L12.2338 38.5472L12.2332 38.5482C12.2332 38.5483 12.2331 38.5484 11.4294 38.0257L12.2332 38.5482C11.9511 39.0023 11.3623 39.1367 10.9185 38.848C10.4746 38.5593 10.3435 37.9573 10.6255 37.5032" fill="currentColor"/>
<path fill-rule="evenodd" clip-rule="evenodd" d="M16.0059 24.0444C15.694 23.6111 15.0978 23.5185 14.6743 23.8375L6.88207 29.7074C6.45851 30.0265 6.36797 30.6364 6.67984 31.0698C6.99171 31.5031 7.58789 31.5957 8.01145 31.2766L15.8037 25.4067C16.2272 25.0877 16.3177 24.4777 16.0059 24.0444Z" fill="currentColor"/>
<path fill-rule="evenodd" clip-rule="evenodd" d="M25.1857 14.3177C25.6232 14.0191 26.2145 14.1399 26.5065 14.5875L25.7142 15.1283L24.9219 15.669C24.63 15.2214 24.7481 14.6164 25.1857 14.3177ZM29.554 35.7982C29.561 35.7906 29.5685 35.7827 29.5764 35.7745C29.7455 35.5969 30.0028 35.3639 30.3438 35.0671C30.4733 34.9544 30.6128 34.8343 30.7599 34.7077C31.3602 34.1908 32.0856 33.5662 32.7599 32.9024C33.5903 32.0849 34.4349 31.122 34.9092 30.1088C35.4015 29.0573 35.5507 27.7964 34.692 26.6632C33.5878 25.2059 31.5486 22.1993 29.7694 19.5311C28.8834 18.2026 28.0675 16.9664 27.4731 16.0623C27.1759 15.6103 26.9341 15.2414 26.7667 14.9856L26.5065 14.5875C26.5064 14.5875 26.5065 14.5875 25.7142 15.1283C24.9219 15.669 24.9219 15.6689 24.9219 15.669L25.1839 16.0698C25.352 16.3266 25.5946 16.6967 25.8926 17.15C26.4886 18.0565 27.307 19.2963 28.1959 20.6294C29.9665 23.2845 32.0399 26.3439 33.1867 27.8572C33.4535 28.2093 33.4945 28.6194 33.1913 29.267C32.8702 29.953 32.2321 30.7176 31.4391 31.4982C30.8156 32.1121 30.1532 32.6826 29.5558 33.1972C29.4022 33.3295 29.2528 33.4582 29.1095 33.5829C28.7713 33.8773 28.451 34.1638 28.2123 34.4143C28.0939 34.5386 27.9697 34.6807 27.8693 34.8314C27.7912 34.9487 27.619 35.2258 27.619 35.5898C27.619 35.9696 27.7148 36.3508 27.8178 36.6629C27.9248 36.9874 28.0627 37.305 28.1926 37.5758C28.3237 37.8489 28.4537 38.0888 28.5507 38.2602C28.5994 38.3463 28.6403 38.4161 28.6697 38.4654C28.6845 38.4901 28.6963 38.5097 28.7048 38.5237L28.7151 38.5404L28.7182 38.5455L28.7193 38.5472L28.7198 38.5481C28.7199 38.5482 28.72 38.5484 29.5237 38.0257L28.7198 38.5481C29.002 39.0023 29.5907 39.1366 30.0346 38.8479C30.4785 38.5593 30.6096 37.9573 30.3276 37.5032" fill="currentColor"/>
<path fill-rule="evenodd" clip-rule="evenodd" d="M24.9472 24.0444C25.2591 23.6111 25.8553 23.5185 26.2789 23.8375L34.0711 29.7074C34.4946 30.0265 34.5852 30.6364 34.2733 31.0698C33.9614 31.5031 33.3652 31.5957 32.9417 31.2766L25.1495 25.4067C24.7259 25.0877 24.6354 24.4777 24.9472 24.0444Z" fill="currentColor"/>
<path fill-rule="evenodd" clip-rule="evenodd" d="M30.1438 1.23499C30.543 1.58546 30.5888 2.2006 30.2463 2.60895L29.5065 3.49074L30.4335 6.55839C30.541 6.91417 30.4409 7.30153 30.1755 7.55645L25.8465 11.7153C25.4631 12.0837 24.8604 12.0643 24.5003 11.672C24.1402 11.2797 24.1592 10.6631 24.5426 10.2947L28.438 6.55248L27.5314 3.55223C27.4348 3.2323 27.5054 2.884 27.7186 2.62989L28.8009 1.3398C29.1434 0.931449 29.7447 0.884526 30.1438 1.23499Z" fill="currentColor"/>
<path fill-rule="evenodd" clip-rule="evenodd" d="M9.85616 1.23499C9.45702 1.58546 9.41116 2.2006 9.75372 2.60895L10.4935 3.49074L9.56653 6.55839C9.45902 6.91417 9.55914 7.30153 9.82449 7.55645L14.1535 11.7153C14.5369 12.0837 15.1396 12.0643 15.4997 11.672C15.8598 11.2797 15.8408 10.6631 15.4574 10.2947L11.562 6.55248L12.4686 3.55223C12.5652 3.2323 12.4946 2.884 12.2814 2.62989L11.1991 1.3398C10.8566 0.931449 10.2553 0.884526 9.85616 1.23499Z" fill="currentColor"/>
</g>
<defs>
<clipPath id="clip0_751_153">
<rect width="40" height="40" fill="white"/>
</clipPath>
</defs>
</svg>
