<svg width="40" height="40" viewBox="0 0 40 40" fill="none" xmlns="http://www.w3.org/2000/svg">
<path d="M2.00113 29.4399C2.00113 29.4399 2.70113 32.9199 5.45113 32.2799C7.0171 31.736 8.30882 30.6022 9.05113 29.1199C9.66961 28.1112 10.365 27.1517 11.1311 26.2499C12.2792 24.8106 13.2092 23.2101 13.8911 21.4999C14.2574 20.5983 14.4409 19.633 14.4311 18.6599C14.3611 15.7299 13.6211 13.4499 11.7811 12.1799C10.3992 11.177 8.70248 10.7049 7.00113 10.8499C5.81705 10.9786 4.69595 11.4489 3.77444 12.2035C2.85293 12.9581 2.17079 13.9645 1.81113 15.0999C1.57469 15.9647 1.52373 16.8696 1.6616 17.7555C1.79947 18.6413 2.12306 19.4879 2.61113 20.2399" stroke="currentColor" stroke-width="2" stroke-miterlimit="10" stroke-linecap="round"/>
<path d="M3.61123 24.4001C3.55147 24.8146 3.55147 25.2355 3.61123 25.6501C3.62481 25.8471 3.69647 26.0358 3.81716 26.1922C3.93786 26.3486 4.10218 26.4658 4.28939 26.5289C4.4766 26.592 4.67831 26.5983 4.86907 26.5469C5.05983 26.4955 5.23108 26.3887 5.36123 26.2401C5.73284 25.9027 6.06801 25.5274 6.36123 25.1201C6.52948 24.8748 6.74551 24.666 6.99638 24.5062C7.24726 24.3464 7.52781 24.2388 7.82123 24.1901C8.26508 24.1412 8.69435 24.0026 9.08289 23.7825C9.47142 23.5625 9.8111 23.2656 10.0812 22.9101C10.383 22.4472 10.5511 21.91 10.567 21.3577C10.5829 20.8054 10.4459 20.2595 10.1712 19.7801C9.41123 18.3901 8.17123 18.2301 6.54123 19.0301C6.38877 19.103 6.22273 19.1432 6.0538 19.148C5.88488 19.1529 5.7168 19.1223 5.56042 19.0582C5.40403 18.9941 5.2628 18.898 5.14582 18.7761C5.02884 18.6541 4.93871 18.509 4.88123 18.3501C4.26123 16.6101 4.82123 15.2701 6.68123 14.3501C7.09492 14.1274 7.55061 13.9937 8.01903 13.9575C8.48745 13.9213 8.95825 13.9835 9.40123 14.1401C10.1248 14.4465 10.6993 15.0245 11.0012 15.7501" stroke="currentColor" stroke-width="2" stroke-miterlimit="10" stroke-linecap="round"/>
<path d="M34.4995 1C32.7593 3.80061 31.8893 7.05461 31.9995 10.35C30.4195 12.35 25.7695 15.35 25.7695 15.97C25.7695 16.59 28.7695 18.37 28.4495 20.03C28.1411 21.1479 27.495 22.1432 26.5995 22.88L28.7095 25.05L25.7695 26.26L27.3995 28.6V33.18L34.4995 33.61L38.9095 39" stroke="currentColor" stroke-width="2" stroke-linecap="round" stroke-linejoin="round"/>
<path d="M22.1902 28.56C21.0902 25.38 21.5902 21.1 23.4602 19" stroke="currentColor" stroke-width="2" stroke-miterlimit="10" stroke-linecap="round"/>
<path d="M18.3819 30.4999C16.7819 26.0999 17.7019 19.3699 20.3819 15.4199" stroke="currentColor" stroke-width="2" stroke-miterlimit="10" stroke-linecap="round"/>
</svg>
