<svg width="40" height="40" viewBox="0 0 40 40" fill="none" xmlns="http://www.w3.org/2000/svg">
<path d="M30.7594 8.50996C31.2564 8.50996 31.6594 8.10702 31.6594 7.60996C31.6594 7.1129 31.2564 6.70996 30.7594 6.70996C30.2623 6.70996 29.8594 7.1129 29.8594 7.60996C29.8594 8.10702 30.2623 8.50996 30.7594 8.50996Z" fill="currentColor"/>
<path d="M30.7011 34.8701L25.2911 32.4101C26.9561 31.4573 28.3848 30.1413 29.4711 28.5601C31.3811 25.3501 31.1411 22.0801 30.0111 18.7901C29.7922 18.1346 29.5039 17.5044 29.1511 16.9101C28.6059 15.9208 28.2783 14.8264 28.1904 13.7002C28.1024 12.5741 28.2561 11.4421 28.6411 10.3801C28.6613 10.3178 28.6668 10.2516 28.6569 10.1869C28.6471 10.1221 28.6222 10.0605 28.5843 10.0071C28.5464 9.95363 28.4965 9.90979 28.4387 9.87906C28.3808 9.84834 28.3166 9.83157 28.2511 9.83012C27.0711 9.83012 25.3511 11.5101 24.251 12.1201C24.1639 12.1659 24.0662 12.1879 23.9678 12.1839C23.8694 12.1799 23.7738 12.1501 23.6906 12.0973C23.6075 12.0446 23.5397 11.9709 23.4941 11.8836C23.4485 11.7963 23.4268 11.6985 23.4311 11.6001C23.5411 6.76012 20.761 4.18012 17.301 2.12012C17.351 4.53168 17.0134 6.93562 16.301 9.24012C14.001 16.5201 9.30105 17.9201 9.18105 22.4601C9.08105 27.3801 14.511 31.6001 16.571 32.4601L11.321 34.8501C10.9399 35.0225 10.6312 35.323 10.4486 35.6993C10.2659 36.0756 10.2208 36.504 10.321 36.9101C10.388 37.1334 10.5005 37.3404 10.6513 37.5182C10.8022 37.6959 10.9882 37.8405 11.1976 37.9429C11.4071 38.0452 11.6354 38.1032 11.8684 38.113C12.1013 38.1229 12.3337 38.0844 12.5511 38.0001L18.241 35.4101C18.3544 35.3578 18.4792 35.335 18.6037 35.3439C18.7283 35.3528 18.8485 35.393 18.9533 35.4609C19.0581 35.5288 19.1441 35.6221 19.2031 35.7321C19.2622 35.8421 19.2924 35.9653 19.2911 36.0901V37.1801C19.3239 37.6072 19.5167 38.0061 19.831 38.2971C20.1452 38.5882 20.5577 38.7498 20.9861 38.7498C21.4144 38.7498 21.8269 38.5882 22.1412 38.2971C22.4554 38.0061 22.6482 37.6072 22.6811 37.1801V35.6701C22.6803 35.5906 22.6997 35.5121 22.7375 35.4421C22.7753 35.3721 22.8302 35.3129 22.8972 35.2699C22.9641 35.2269 23.0409 35.2016 23.1203 35.1964C23.1997 35.1912 23.2791 35.2063 23.3511 35.2401L29.4211 38.0001C29.643 38.1016 29.8842 38.1539 30.1283 38.1532C30.3723 38.1526 30.6133 38.0992 30.8347 37.9965C31.0561 37.8939 31.2526 37.7446 31.4108 37.5587C31.569 37.3729 31.6851 37.1551 31.7511 36.9201C31.8432 36.5096 31.7887 36.0797 31.5969 35.7052C31.405 35.3307 31.0881 35.0352 30.7011 34.8701V34.8701ZM22.2911 31.0001L21.7911 30.7601C21.5392 30.6416 21.2644 30.5801 20.9861 30.5801C20.7077 30.5801 20.4329 30.6416 20.1811 30.7601L19.6811 31.0001L17.1711 32.1501C16.6311 31.2301 14.731 29.0901 15.231 26.4801C15.811 23.5401 19.041 22.2801 19.301 18.3501C19.301 17.8801 19.131 17.4201 19.301 17.3501C19.761 17.1301 22.3511 19.6801 22.3511 22.4401C22.3511 25.2001 19.7811 26.8601 20.3511 27.5201C20.7411 28.0001 22.481 27.6001 23.401 26.5201C24.481 25.2401 23.941 23.5901 24.401 23.4701C24.861 23.3501 26.4011 25.2901 26.4011 27.5401C26.2926 29.2139 25.6434 30.8072 24.551 32.0801L22.2911 31.0001Z" stroke="currentColor" stroke-width="2" stroke-miterlimit="10" stroke-linecap="round"/>
</svg>
