<svg xmlns="http://www.w3.org/2000/svg" width="40" height="40" fill="currentColor" viewBox="0 0 40 40">
  <g clip-path="url(#a)">
    <path fill-rule="evenodd" d="M11.854 12H7a5 5 0 0 0 0 10h26a5 5 0 0 0 1.336-9.82l-.651-.18H26a1 1 0 1 1 0-2h6.79c-.963-4.512-5.155-8-10.29-8-5.264 0-9.54 3.667-10.357 8.344L11.853 12Zm23.014-1.748C33.987 4.453 28.785 0 22.5 0c-6.194 0-11.335 4.325-12.327 10H7a7 7 0 1 0 0 14h26a7 7 0 0 0 1.868-13.748ZM9.55 27.966a1 1 0 0 1 1.932.518l-1.036 3.863a1 1 0 0 1-1.931-.517l1.035-3.864Zm10.861 5.293a1 1 0 0 0-1.225.707l-1.035 3.864a1 1 0 0 0 1.932.517l1.035-3.863a1 1 0 0 0-.707-1.225Zm8.775-5.293a1 1 0 0 1 1.932.518l-1.035 3.863a1 1 0 0 1-1.932-.517l1.035-3.864Z" clip-rule="evenodd"/>
  </g>
  <defs>
    <clipPath id="a">
      <path d="M0 0h40v40H0z"/>
    </clipPath>
  </defs>
</svg>
