<svg width="40" height="40" viewBox="0 0 40 40" fill="none" xmlns="http://www.w3.org/2000/svg">
<path d="M7.58975 0.376882C7.40232 0.141151 7.11898 0.00271295 6.81844 1.67363e-05C6.49859 -0.00285268 6.03953 0.364203 6.03953 0.364203L6.02671 0.379967L5.99983 0.413741C5.97773 0.441816 5.94743 0.480985 5.90999 0.530971C5.83515 0.630915 5.73167 0.774283 5.60817 0.958852C5.36135 1.32772 5.03344 1.86287 4.69417 2.54644C4.01644 3.91199 3.28669 5.88358 3.07807 8.31216C2.8733 10.696 3.10301 12.4577 3.40121 13.6491C3.55009 14.244 3.71533 14.6939 3.84996 15.0055C3.91724 15.1612 3.97677 15.2822 4.02264 15.3693C4.04557 15.4129 4.06508 15.448 4.08043 15.4746C4.0881 15.488 4.09474 15.4993 4.10023 15.5084L4.10762 15.5206L4.11065 15.5256L4.11199 15.5277C4.18918 15.652 4.96459 16.1765 5.48877 15.8473C5.95317 15.5557 6.09601 14.9436 5.81065 14.4759L5.80961 14.4741C5.80643 14.4685 5.79886 14.4551 5.78762 14.4338C5.76514 14.3911 5.7279 14.3165 5.68149 14.2091C5.58875 13.9944 5.45897 13.6476 5.33727 13.1614C5.09432 12.1907 4.88062 10.6522 5.06686 8.48413C5.24925 6.36084 5.88802 4.63403 6.48106 3.43915C6.62233 3.15452 6.76061 2.90085 6.88891 2.68007C7.22216 3.08186 7.6295 3.56562 8.06748 4.06939C8.6248 4.71043 9.2384 5.39157 9.81581 5.97981C10.3757 6.55015 10.9597 7.09404 11.4479 7.40805C11.9119 7.70654 12.5293 7.5711 12.8268 7.10553C13.1243 6.63996 12.9893 6.02056 12.5252 5.72206C12.2422 5.54 11.7935 5.14038 11.2381 4.57452C10.7002 4.02655 10.1159 3.37877 9.57177 2.7529C9.02891 2.12849 8.53261 1.53355 8.17169 1.09423C7.9914 0.874787 7.8453 0.694677 7.74454 0.569761C7.69416 0.507314 7.65515 0.458693 7.62888 0.425882L7.59923 0.388783L7.58975 0.376882Z" fill="currentColor"/>
<path d="M32.3951 0.376882C32.5825 0.141151 32.8659 0.00271295 33.1664 1.67363e-05C33.4863 -0.00285268 33.9453 0.364203 33.9453 0.364203L33.9582 0.379967L33.985 0.413741C34.0071 0.441816 34.0374 0.480985 34.0749 0.530971C34.1497 0.630915 34.2532 0.774283 34.3767 0.958852C34.6235 1.32772 34.9514 1.86287 35.2907 2.54644C35.9684 3.91199 36.6982 5.88358 36.9068 8.31216C37.1116 10.696 36.8819 12.4577 36.5836 13.6491C36.4348 14.244 36.2695 14.6939 36.1349 15.0055C36.0676 15.1612 36.0081 15.2822 35.9622 15.3693C35.9393 15.4129 35.9198 15.448 35.9044 15.4746C35.8968 15.488 35.8901 15.4993 35.8846 15.5084L35.8772 15.5206L35.8742 15.5256L35.8729 15.5277C35.7957 15.652 35.0203 16.1765 34.4961 15.8473C34.0317 15.5557 33.8889 14.9436 34.1742 14.4759L34.1753 14.4741C34.1784 14.4685 34.186 14.4551 34.1972 14.4338C34.2197 14.3911 34.257 14.3165 34.3034 14.2091C34.3961 13.9944 34.5259 13.6476 34.6476 13.1614C34.8905 12.1907 35.1042 10.6522 34.918 8.48413C34.7356 6.36084 34.0968 4.63403 33.5038 3.43915C33.3625 3.15452 33.2242 2.90085 33.096 2.68007C32.7627 3.08186 32.3554 3.56562 31.9174 4.06939C31.3601 4.71043 30.7465 5.39157 30.1691 5.97981C29.6092 6.55015 29.0252 7.09404 28.537 7.40805C28.073 7.70654 27.4556 7.5711 27.1581 7.10553C26.8606 6.63996 26.9956 6.02056 27.4596 5.72206C27.7427 5.54 28.1914 5.14038 28.7468 4.57452C29.2847 4.02655 29.869 3.37877 30.4131 2.7529C30.956 2.12849 31.4522 1.53355 31.8132 1.09423C31.9935 0.874787 32.1396 0.694677 32.2403 0.569761C32.2907 0.507314 32.3297 0.458693 32.356 0.425882L32.3856 0.388783L32.3951 0.376882Z" fill="currentColor"/>
<path fill-rule="evenodd" clip-rule="evenodd" d="M36.4171 28.4667C36.8931 28.4162 37.4165 28.3607 38 28.2932V25.1414C38 13.4538 29.9413 3.97919 20 3.97919C10.0587 3.97919 2 13.4538 2 25.1414V28.2932C2.5833 28.3606 3.1071 28.4162 3.58296 28.4667L3.59254 28.4678C6.28794 28.7538 7.47256 28.8795 9.53477 30.0942C10.7098 30.7863 11.3376 32.2314 12.0231 33.8091L12.0238 33.8109C13.2728 36.6857 14.7127 40 20 40C25.2873 40 26.7275 36.6851 27.9764 33.8102L27.9769 33.8091C28.6624 32.2314 29.2902 30.7863 30.4652 30.0942C32.5274 28.8795 33.7121 28.7538 36.4075 28.4678L36.4171 28.4667ZM29.4502 28.371C31.8489 26.958 33.3904 26.7768 36 26.4998V25.1414C36 14.2426 28.5454 5.97919 20 5.97919C11.4546 5.97919 4 14.2426 4 25.1414V26.4998C6.6096 26.7768 8.15112 26.958 10.5499 28.371C11.5328 28.95 12.1941 29.7901 12.6745 30.5857C13.1339 31.3463 13.5076 32.2066 13.8312 32.9517L13.8586 33.0149C14.5086 34.5109 15.0489 35.6983 15.9183 36.5758C16.684 37.3486 17.837 38 20 38C22.1629 38 23.316 37.3485 24.0818 36.5755C24.9515 35.6977 25.492 34.5097 26.1421 33.0133L26.1426 33.0121L26.1435 33.01L26.144 33.0089L26.1688 32.9518C26.4924 32.2067 26.8661 31.3463 27.3255 30.5857C27.8059 29.7901 28.4673 28.9499 29.4502 28.371Z" fill="currentColor"/>
<path d="M19 35H21V38H19V35Z" fill="currentColor"/>
<path fill-rule="evenodd" clip-rule="evenodd" d="M17.2228 33.5823L19.4339 34.8587C19.7601 35.0471 20.2399 35.0471 20.5661 34.8587L22.7772 33.5823C22.8857 33.5196 22.942 33.4656 22.9683 33.4356C22.9936 33.4067 22.9995 33.3903 22.9995 33.3903C22.9995 33.3903 23 33.389 23 33.3867C23 33.3831 22.9993 33.3704 22.9915 33.349C22.976 33.3064 22.9306 33.2274 22.8193 33.153C22.7144 33.0829 22.5234 33 22.211 33H17.789C17.4766 33 17.2856 33.0829 17.1807 33.153C17.0694 33.2274 17.024 33.3064 17.0085 33.349C17.0007 33.3704 17 33.3831 17 33.3867L17.0001 33.3889L17.0005 33.3903C17.0005 33.3903 17.006 33.4063 17.0317 33.4356C17.058 33.4656 17.1143 33.5196 17.2228 33.5823ZM15.7814 22.8298L12.0045 19.64C12.059 20.7248 12.5237 21.7379 13.2726 22.3704C14.0501 23.0271 14.9721 23.1517 15.7814 22.8298ZM24.2186 22.8298C25.0279 23.1517 25.9499 23.0271 26.7274 22.3704C27.4763 21.7379 27.941 20.7248 27.9955 19.64L24.2186 22.8298ZM17.2771 21.4752C18.1217 22.1885 18.305 23.6084 17.4021 24.2202C15.7609 25.3324 13.6187 25.2806 11.9822 23.8984C10.3373 22.5093 9.67542 20.1751 10.1501 18.0575C10.4081 16.9067 11.6269 16.7033 12.4604 17.4072L17.2771 21.4752ZM21.5661 36.5908C20.621 37.1364 19.379 37.1364 18.4339 36.5908L16.2229 35.3144C13.957 34.0063 15.0483 31 17.789 31H22.211C24.9517 31 26.043 34.0063 23.7771 35.3144L21.5661 36.5908ZM22.5979 24.2202C21.695 23.6084 21.8783 22.1885 22.7229 21.4752L27.5396 17.4072C28.3731 16.7033 29.5919 16.9067 29.8499 18.0575C30.3246 20.1751 29.6627 22.5093 28.0178 23.8984C26.3813 25.2806 24.2391 25.3324 22.5979 24.2202Z" fill="currentColor"/>
</svg>
