<svg width="40" height="40" viewBox="0 0 40 40" fill="none" xmlns="http://www.w3.org/2000/svg">
<path fill-rule="evenodd" clip-rule="evenodd" d="M3 8H37C37.5523 8 38 8.44771 38 9V25C38 25.5523 37.5523 26 37 26H36V24V21C36 20.4477 35.5523 20 35 20H5C4.44772 20 4 20.4477 4 21V24V26H3C2.44772 26 2 25.5523 2 25V9C2 8.44772 2.44772 8 3 8ZM34 22V23H6V22H34ZM34 25H6V26H34V25ZM5 28H3C1.34315 28 0 26.6569 0 25V9C0 7.34315 1.34315 6 3 6H37C38.6569 6 40 7.34315 40 9V25C40 26.6569 38.6569 28 37 28H35H5ZM3 34C3 33.4496 3.44465 33.0031 3.99431 33L3.99747 32.9999C4.00327 32.9998 4.01523 32.9994 4.03244 32.9985C4.06716 32.9966 4.12148 32.9927 4.18847 32.9843C4.32763 32.9669 4.49539 32.9337 4.64888 32.8762C4.80652 32.8171 4.89633 32.7521 4.94009 32.7028C4.9655 32.6742 5 32.6291 5 32.5L5 30C5 29.4477 5.44771 29 6 29C6.55228 29 7 29.4484 7 30.0007L7 32.5C7 33.1209 6.7845 33.6383 6.43491 34.0316C6.10367 34.4042 5.69348 34.6204 5.35112 34.7488C5.00461 34.8788 4.67237 34.9394 4.43653 34.9688C4.31602 34.9839 4.21409 34.9916 4.13943 34.9956C4.10196 34.9976 4.07095 34.9987 4.04745 34.9993L4.01783 34.9999L4.0074 35L4.00332 35L4.00156 35L4 35V34C4 35 3.99962 35 4 35C3.44772 35 3 34.5523 3 34ZM36.0057 33C36.5554 33.0031 37 33.4496 37 34C37 34.5523 36.5523 35 36 35V34C36 35 36.0004 35 36 35L35.9984 35L35.9967 35L35.9926 35L35.9822 34.9999L35.9525 34.9993C35.94 34.999 35.9253 34.9986 35.9087 34.9979L35.8942 34.9973L35.8606 34.9956C35.7859 34.9916 35.684 34.9839 35.5635 34.9688C35.3276 34.9394 34.9954 34.8788 34.6489 34.7488C34.3065 34.6204 33.8963 34.4042 33.5651 34.0316C33.2155 33.6383 33 33.1209 33 32.5V30.0007C33 29.4484 33.4477 29 34 29C34.5523 29 35 29.4477 35 30V32.5C35 32.6291 35.0345 32.6742 35.0599 32.7028C35.1037 32.7521 35.1935 32.8171 35.3511 32.8762C35.5046 32.9337 35.6724 32.9669 35.8115 32.9843C35.8785 32.9927 35.9328 32.9966 35.9676 32.9985C35.9848 32.9994 35.9967 32.9998 36.0025 32.9999L36.0057 33ZM9 33C9 33.5523 9.44771 34 10 34C10.5523 34 11 33.5523 11 33V30C11 29.4477 10.5523 29 10 29C9.44771 29 9 29.4477 9 30V33ZM14 34C13.4477 34 13 33.5523 13 33V30C13 29.4477 13.4477 29 14 29C14.5523 29 15 29.4477 15 30V33C15 33.5523 14.5523 34 14 34ZM17 33C17 33.5523 17.4477 34 18 34C18.5523 34 19 33.5523 19 33V30C19 29.4477 18.5523 29 18 29C17.4477 29 17 29.4477 17 30V33ZM22 34C21.4477 34 21 33.5523 21 33V30C21 29.4477 21.4477 29 22 29C22.5523 29 23 29.4477 23 30V33C23 33.5523 22.5523 34 22 34ZM25 33C25 33.5523 25.4477 34 26 34C26.5523 34 27 33.5523 27 33V30C27 29.4477 26.5523 29 26 29C25.4477 29 25 29.4477 25 30V33ZM30 34C29.4477 34 29 33.5523 29 33V30C29 29.4477 29.4477 29 30 29C30.5523 29 31 29.4477 31 30V33C31 33.5523 30.5523 34 30 34ZM5 10.5C4.44772 10.5 4 10.9477 4 11.5C4 12.0523 4.44772 12.5 5 12.5H16C16.5523 12.5 17 12.0523 17 11.5C17 10.9477 16.5523 10.5 16 10.5H5ZM30.5 13C31.3284 13 32 12.3284 32 11.5C32 10.6716 31.3284 10 30.5 10C29.6716 10 29 10.6716 29 11.5C29 12.3284 29.6716 13 30.5 13ZM36 11.5C36 12.3284 35.3284 13 34.5 13C33.6716 13 33 12.3284 33 11.5C33 10.6716 33.6716 10 34.5 10C35.3284 10 36 10.6716 36 11.5Z" fill="currentColor"/>
</svg>
