<svg width="40" height="40" viewBox="0 0 40 40" fill="none" xmlns="http://www.w3.org/2000/svg">
<path fill-rule="evenodd" clip-rule="evenodd" d="M6.23459 28.9992L26.507 28.9038C30.92 28.8136 34.6554 24.8858 34.8011 20.1791L34.9953 13.9086C35.2357 6.14404 26.0527 2.10452 20.5814 7.43062L3.92676 23.6432C3.33684 24.2174 2.99995 25.0134 3 25.8494C3.00011 27.5467 4.52616 29.0312 6.22061 28.9995L6.23459 28.9992ZM26.5312 30.9037C32.134 30.7989 36.6251 25.8955 36.8002 20.241L36.9944 13.9705C37.2891 4.45119 25.9773 -0.613293 19.1863 5.99752L2.53169 22.2101C1.55283 23.163 0.999911 24.4767 1 25.8495C1.00018 28.678 3.45672 31.0515 6.25799 30.9991L26.5312 30.9037Z" fill="currentColor"/>
<path d="M39.002 10.4968C39.5532 10.494 40 10.9385 40 11.4897C40 12.0424 39.5507 12.4922 38.998 12.4928L32.9821 12.4998C32.4391 12.5004 32.0001 12.0618 32.0001 11.5189C32.0002 10.9744 32.4416 10.5307 32.9861 10.5279L39.002 10.4968Z" fill="currentColor"/>
<path d="M31 35.0052C31.5523 35.0023 32 35.4477 32 36C32 36.5523 31.5523 37.0023 31 37.0052L19 37.0671C18.4477 37.0699 18 36.6245 18 36.0722C18 35.5199 18.4477 35.0699 19 35.0671L31 35.0052Z" fill="currentColor"/>
<path d="M18.6926 30.8527C18.5086 30.1747 18.9092 29.4766 19.5876 29.2935C20.2659 29.1103 20.9649 29.5116 21.149 30.1896L22.4081 34.8287C22.5921 35.5067 22.1914 36.2048 21.5131 36.3879C20.8348 36.571 20.1357 36.1698 19.9517 35.4918L18.6926 30.8527Z" fill="currentColor"/>
<path d="M22.9738 31.1747C22.7898 30.4967 23.1905 29.7986 23.8688 29.6155C24.5471 29.4324 25.2462 29.8336 25.4302 30.5116L26.7237 35.2773C26.9077 35.9553 26.507 36.6534 25.8287 36.8365C25.1504 37.0196 24.4513 36.6184 24.2673 35.9403L22.9738 31.1747Z" fill="currentColor"/>
<path d="M30 11.5C30 12.3284 29.3284 13 28.5 13C27.6716 13 27 12.3284 27 11.5C27 10.6716 27.6716 10 28.5 10C29.3284 10 30 10.6716 30 11.5Z" fill="currentColor"/>
<path fill-rule="evenodd" clip-rule="evenodd" d="M22.5662 15.1929C21.808 12.4629 19.9765 9.80016 18.0715 7.8809L19.4805 6.46143C21.5451 8.54151 23.6076 11.4927 24.485 14.652C25.375 17.8565 25.0502 21.3434 22.2051 24.2098C16.9189 29.5354 10.5206 31.0037 6.50061 31.0037L6.50061 28.9963C10.1043 28.9963 15.9561 27.6665 20.7961 22.7903C23.0142 20.5557 23.3119 17.8778 22.5662 15.1929Z" fill="currentColor"/>
</svg>
