<svg width="40" height="40" viewBox="0 0 40 40" fill="none" xmlns="http://www.w3.org/2000/svg">
<path d="M9.38062 26.4399C9.29062 26.0399 9.21063 25.6299 9.14062 25.1999V17.2599C9.14062 17.0345 9.23018 16.8183 9.38958 16.6589C9.54899 16.4995 9.76519 16.4099 9.99062 16.4099H23.1006" stroke="currentColor" stroke-width="2" stroke-miterlimit="10" stroke-linecap="round"/>
<path d="M26.7402 16.4099H30.0002C30.2256 16.4099 30.4418 16.4995 30.6012 16.6589C30.7606 16.8183 30.8502 17.0345 30.8502 17.2599V25.1999C30.5502 28.8499 28.3702 31.7299 24.6402 33.9899H14.3102C13.8138 33.6702 13.3454 33.3089 12.9102 32.9099" stroke="currentColor" stroke-width="2" stroke-miterlimit="10" stroke-linecap="round"/>
<path d="M29.6211 27.3501C30.4448 27.9079 31.4162 28.2074 32.4111 28.2101C33.7155 28.1521 34.9472 27.5931 35.8497 26.6496C36.7523 25.7061 37.256 24.4508 37.256 23.1451C37.256 21.8394 36.7523 20.5841 35.8497 19.6405C34.9472 18.697 33.7155 18.1381 32.4111 18.0801C31.7224 18.0791 31.0412 18.2222 30.4111 18.5001" stroke="currentColor" stroke-width="2" stroke-miterlimit="10"/>
<path d="M30.5781 24.8901C31.0323 25.1986 31.5691 25.3624 32.1181 25.3601C32.7384 25.3956 33.3474 25.1842 33.8122 24.7719C34.2769 24.3596 34.5595 23.7801 34.5981 23.1601C34.547 22.5481 34.2594 21.9803 33.7963 21.577C33.3333 21.1737 32.7313 20.9667 32.1181 21.0001C31.5756 20.9993 31.0455 21.1632 30.5981 21.4701" stroke="currentColor" stroke-width="2" stroke-miterlimit="10"/>
<path d="M32.13 34.0001H37.39C37.4688 33.9988 37.5471 34.013 37.6204 34.0419C37.6937 34.0708 37.7606 34.1139 37.8172 34.1687C37.8739 34.2235 37.9192 34.2889 37.9505 34.3612C37.9819 34.4335 37.9987 34.5113 38 34.5901V35.4701C37.9983 35.6176 37.9423 35.7593 37.8426 35.8682C37.743 35.977 37.6068 36.0453 37.46 36.0601L28.74 37.0001L28 39.0001H12L11.26 37.0001L2.54 36.0601C2.3932 36.0453 2.25697 35.977 2.15736 35.8682C2.05774 35.7593 2.00172 35.6176 2 35.4701V34.5901C2.0013 34.5113 2.01811 34.4335 2.04948 34.3612C2.08084 34.2889 2.12614 34.2235 2.18278 34.1687C2.23943 34.1139 2.30631 34.0708 2.37962 34.0419C2.45292 34.013 2.5312 33.9988 2.61 34.0001H29.12" stroke="currentColor" stroke-width="2" stroke-linecap="round" stroke-linejoin="round"/>
<path d="M8.60938 19.9299H30.4394" stroke="currentColor" stroke-width="2" stroke-miterlimit="10"/>
<path d="M21.4886 12.6899C21.1238 12.2915 20.8412 11.8251 20.6569 11.3174C20.4726 10.8097 20.3901 10.2706 20.4143 9.73099C20.4384 9.19139 20.5687 8.66185 20.7976 8.17263C21.0266 7.68342 21.3497 7.24413 21.7486 6.87988" stroke="currentColor" stroke-width="2" stroke-miterlimit="10" stroke-linecap="round"/>
<path d="M15.5582 12.6899C15.1941 12.2908 14.9123 11.8239 14.7288 11.3158C14.5453 10.8078 14.4637 10.2685 14.4888 9.72891C14.5139 9.1893 14.6451 8.65993 14.8749 8.17107C15.1047 7.68221 15.4287 7.24345 15.8282 6.87988" stroke="currentColor" stroke-width="2" stroke-miterlimit="10" stroke-linecap="round"/>
<path d="M26.5387 12.6899C26.1746 12.2908 25.8927 11.8239 25.7092 11.3158C25.5257 10.8078 25.4442 10.2685 25.4693 9.72891C25.4944 9.1893 25.6256 8.65993 25.8554 8.17107C26.0852 7.68221 26.4092 7.24345 26.8087 6.87988" stroke="currentColor" stroke-width="2" stroke-miterlimit="10" stroke-linecap="round"/>
<path d="M21.4886 6.88007C21.1238 6.48165 20.8412 6.01526 20.6569 5.50755C20.4726 4.99984 20.3901 4.46077 20.4143 3.92118C20.4384 3.38158 20.5687 2.85203 20.7976 2.36282C21.0266 1.8736 21.3497 1.43431 21.7486 1.07007" stroke="currentColor" stroke-width="2" stroke-miterlimit="10" stroke-linecap="round"/>
<path d="M8.14842 28.2901C8.34112 28.0013 8.55505 27.7272 8.78842 27.4701C10.4684 25.6401 12.7884 25.0701 14.0484 26.1901C15.3084 27.3101 14.8884 29.7001 13.2084 31.5301C11.5284 33.3601 9.20842 33.9301 7.94842 32.8101C7.72032 32.5839 7.53995 32.3143 7.41799 32.0171C7.29603 31.7199 7.23497 31.4013 7.23842 31.0801" stroke="currentColor" stroke-width="2" stroke-miterlimit="10" stroke-linecap="round"/>
<path d="M13.3698 26.9199L11.3398 29.1299" stroke="currentColor" stroke-width="2" stroke-miterlimit="10" stroke-linecap="round"/>
</svg>
