<svg width="40" height="40" viewBox="0 0 40 40" fill="none" xmlns="http://www.w3.org/2000/svg">
<path d="M20 33C28.8366 33 36 25.8366 36 17C36 8.16344 28.8366 1 20 1C11.1634 1 4 8.16344 4 17C4 25.8366 11.1634 33 20 33Z" stroke="currentColor" stroke-width="2" stroke-miterlimit="10" stroke-linecap="round"/>
<path d="M8.75 14.0001C9.20311 12.4854 9.93946 11.0703 10.92 9.83008" stroke="currentColor" stroke-width="2" stroke-miterlimit="10" stroke-linecap="round"/>
<path d="M11.75 14.9999C11.969 14.2803 12.2501 13.581 12.59 12.9099" stroke="currentColor" stroke-width="2" stroke-miterlimit="10" stroke-linecap="round"/>
<path d="M22.2408 29.6101C21.1025 29.7883 19.9454 29.8118 18.8008 29.6801" stroke="currentColor" stroke-width="2" stroke-miterlimit="10" stroke-linecap="round"/>
<path d="M22.13 25.8501C21.4406 26.0614 20.7122 26.1127 20 26.0001" stroke="currentColor" stroke-width="2" stroke-miterlimit="10" stroke-linecap="round"/>
<path d="M29.0703 9.07007C29.8909 10.1517 30.5417 11.3522 31.0003 12.6301" stroke="currentColor" stroke-width="2" stroke-miterlimit="10" stroke-linecap="round"/>
<path d="M26.0703 11.0701C26.3776 11.4769 26.6614 11.9009 26.9203 12.3401" stroke="currentColor" stroke-width="2" stroke-miterlimit="10" stroke-linecap="round"/>
<path d="M20 33V38" stroke="currentColor" stroke-width="2" stroke-miterlimit="10" stroke-linecap="round"/>
<path d="M20 13C20.7911 13 21.5645 13.2346 22.2223 13.6741C22.8801 14.1136 23.3928 14.7384 23.6955 15.4693C23.9983 16.2002 24.0775 17.0044 23.9231 17.7804C23.7688 18.5563 23.3878 19.269 22.8284 19.8284C22.269 20.3878 21.5563 20.7688 20.7804 20.9231C20.0044 21.0775 19.2002 20.9983 18.4693 20.6955C17.7384 20.3928 17.1136 19.8801 16.6741 19.2223C16.2346 18.5645 16 17.7911 16 17C16 15.9391 16.4214 14.9217 17.1716 14.1716C17.9217 13.4214 18.9391 13 20 13ZM20 11C18.8133 11 17.6533 11.3519 16.6666 12.0112C15.6799 12.6705 14.9109 13.6075 14.4567 14.7039C14.0026 15.8003 13.8838 17.0067 14.1153 18.1705C14.3468 19.3344 14.9182 20.4035 15.7574 21.2426C16.5965 22.0818 17.6656 22.6532 18.8295 22.8847C19.9933 23.1162 21.1997 22.9974 22.2961 22.5433C23.3925 22.0892 24.3295 21.3201 24.9888 20.3334C25.6481 19.3467 26 18.1867 26 17C26 15.4087 25.3679 13.8826 24.2426 12.7574C23.1174 11.6321 21.5913 11 20 11Z" fill="currentColor"/>
<path d="M17.0015 11.9999C17.0015 11.9999 12.0015 7.99989 15.0015 4.99989C18.0015 1.99989 29.0015 4.99989 27.0015 6.99989C25.1515 7.54989 19.1915 11.9999 21.0015 11.9999" stroke="currentColor" stroke-width="2" stroke-miterlimit="10" stroke-linecap="round"/>
<path d="M25.0016 17C25.0016 17 31.5716 14.12 32.8416 18.17C34.1116 22.22 26.3416 30.58 25.5016 27.88C25.8716 25.98 24.7216 18.65 23.8516 20.24" stroke="currentColor" stroke-width="2" stroke-miterlimit="10" stroke-linecap="round"/>
<path d="M17.5898 22.2201C17.5898 22.2201 17.9898 28.7101 13.7898 28.1201C9.5898 27.5301 5.3598 16.9401 8.1698 17.3301C9.7198 18.4701 16.0598 20.4601 14.9998 19.0001" stroke="currentColor" stroke-width="2" stroke-miterlimit="10" stroke-linecap="round"/>
<path d="M13 39H27" stroke="currentColor" stroke-width="2" stroke-miterlimit="10" stroke-linecap="round"/>
</svg>
