<svg width="40" height="40" viewBox="0 0 40 40" fill="none" xmlns="http://www.w3.org/2000/svg">
<path d="M10.6719 31.1499H11.2019" stroke="currentColor" stroke-width="2" stroke-miterlimit="10" stroke-linecap="round"/>
<path d="M12.3503 31.1499H11.8203" stroke="currentColor" stroke-width="2" stroke-miterlimit="10" stroke-linecap="round"/>
<path d="M15.0001 31.12H1.56007C1.53117 31.1196 1.50293 31.1114 1.47834 31.0962C1.45375 31.081 1.43372 31.0595 1.42039 31.0338C1.40706 31.0082 1.40092 30.9794 1.40262 30.9506C1.40433 30.9217 1.41381 30.8939 1.43007 30.87L7.43007 22.45L3.85007 22.54C3.82361 22.5413 3.79727 22.5356 3.77373 22.5234C3.7502 22.5113 3.73031 22.4931 3.71609 22.4707C3.70186 22.4484 3.69381 22.4227 3.69275 22.3962C3.6917 22.3697 3.69767 22.3434 3.71007 22.32L8.82007 12.85H6.51007C6.49333 12.851 6.47666 12.8473 6.46192 12.8393C6.44719 12.8313 6.43497 12.8194 6.42666 12.8048C6.41834 12.7903 6.41425 12.7737 6.41486 12.7569C6.41546 12.7402 6.42073 12.7239 6.43007 12.71L11.2401 5.00001C11.4201 4.68001 11.6001 4.68001 11.7701 5.00001L16.5901 12.72C16.5994 12.7339 16.6047 12.7502 16.6053 12.7669C16.6059 12.7837 16.6018 12.8003 16.5935 12.8148C16.5852 12.8294 16.5729 12.8413 16.5582 12.8493C16.5435 12.8573 16.5268 12.861 16.5101 12.86H14.2201L18.6401 21M14.3101 31.13H8.01007H14.3101ZM16.7701 22.45H15.6201L16.1001 23.12L16.7701 22.45Z" stroke="currentColor" stroke-width="2" stroke-miterlimit="10" stroke-linecap="round"/>
<path d="M11.0781 31.8501V34.9901" stroke="currentColor" stroke-width="2" stroke-miterlimit="10" stroke-linecap="round"/>
<path d="M30.7117 10.89L28.3717 6.56005H29.5217C29.5525 6.56111 29.5831 6.55376 29.61 6.5388C29.637 6.52383 29.6594 6.50181 29.6748 6.4751C29.6902 6.44839 29.6981 6.41798 29.6975 6.38714C29.697 6.35631 29.6881 6.3262 29.6717 6.30005L26.6717 1.52005C26.617 1.43754 26.5427 1.36985 26.4554 1.32303C26.3682 1.27621 26.2707 1.25171 26.1717 1.25171C26.0727 1.25171 25.9752 1.27621 25.888 1.32303C25.8007 1.36985 25.7264 1.43754 25.6717 1.52005L22.6717 6.30005C22.6554 6.3262 22.6464 6.35631 22.6459 6.38714C22.6454 6.41798 22.6532 6.44839 22.6686 6.4751C22.684 6.50181 22.7064 6.52383 22.7334 6.5388C22.7604 6.55376 22.7909 6.56111 22.8217 6.56005H24.0017L21.0017 12.2C20.9949 12.2137 20.9917 12.2289 20.9924 12.2441C20.9931 12.2594 20.9977 12.2742 21.0057 12.2872C21.0137 12.3002 21.0249 12.311 21.0382 12.3185C21.0515 12.326 21.0665 12.3299 21.0817 12.33L23.2117 12.27L18.5117 19.58" stroke="currentColor" stroke-width="2" stroke-miterlimit="10" stroke-linecap="square"/>
<path d="M24.6094 22.4401V17.8201C24.6146 16.1641 25.2748 14.5774 26.4458 13.4065C27.6167 12.2355 29.2034 11.5753 30.8594 11.5701H32.3594C34.0136 11.578 35.5977 12.2393 36.7665 13.41C37.9353 14.5807 38.5941 16.1658 38.5994 17.8201V25.7501C38.5967 27.4051 37.9388 28.9918 36.7694 30.163C35.6 31.3343 34.0144 31.9948 32.3594 32.0001H30.8594C30.04 32.0005 29.2286 31.8391 28.4718 31.5251C27.715 31.211 27.0277 30.7505 26.4494 30.1701" stroke="currentColor" stroke-width="2" stroke-miterlimit="10"/>
<path d="M31.6094 23.8201V35.3401" stroke="currentColor" stroke-width="2" stroke-miterlimit="10" stroke-linecap="round"/>
<path d="M20.8305 21.03H20.7105C17.822 21.03 15.4805 23.3716 15.4805 26.26V30.78C15.4805 33.6685 17.822 36.01 20.7105 36.01H20.8305C23.7189 36.01 26.0605 33.6685 26.0605 30.78V26.26C26.0605 23.3716 23.7189 21.03 20.8305 21.03Z" stroke="currentColor" stroke-width="2" stroke-miterlimit="10" stroke-linecap="round"/>
<path d="M20.7695 29.95V38.9399" stroke="currentColor" stroke-width="2" stroke-miterlimit="10" stroke-linecap="round"/>
</svg>
