<svg width="40" height="40" viewBox="0 0 40 40" fill="none" xmlns="http://www.w3.org/2000/svg">
<path fill-rule="evenodd" clip-rule="evenodd" d="M27.8619 11.0095C28.4089 10.9332 28.9142 11.3147 28.9905 11.8617L31.9905 33.3617C32.0669 33.9087 31.6853 34.414 31.1383 34.4903C30.5913 34.5666 30.086 34.1851 30.0097 33.6381L27.0097 12.1381C26.9334 11.5911 27.3149 11.0858 27.8619 11.0095Z" fill="currentColor"/>
<path fill-rule="evenodd" clip-rule="evenodd" d="M13.6154 11.0065C13.0668 10.9428 12.5704 11.3358 12.5066 11.8843L10.0066 33.3843C9.94281 33.9329 10.3358 34.4294 10.8844 34.4932C11.433 34.5569 11.9294 34.1639 11.9932 33.6154L14.4932 12.1154C14.557 11.5668 14.164 11.0703 13.6154 11.0065Z" fill="currentColor"/>
<path fill-rule="evenodd" clip-rule="evenodd" d="M24.0536 3.40889C23.7068 3.16364 23.2003 3.01696 22.666 3.06386C22.1158 3.11214 21.6306 2.70527 21.5824 2.1551C21.5341 1.60493 21.9409 1.11979 22.4911 1.07151C23.4679 0.985794 24.4515 1.2407 25.2084 1.77593C25.9756 2.3185 26.551 3.18982 26.5241 4.27861C26.5104 4.83072 26.0518 5.26722 25.4997 5.25355C24.9475 5.23989 24.511 4.78123 24.5247 4.22911C24.532 3.93488 24.3901 3.64681 24.0536 3.40889Z" fill="currentColor"/>
<path fill-rule="evenodd" clip-rule="evenodd" d="M28.4094 5.84179C27.6586 4.95581 26.7194 4.78402 26.1198 5.15026C25.6485 5.43815 25.033 5.28946 24.7451 4.81815C24.4572 4.34684 24.6059 3.73138 25.0772 3.44349C26.8389 2.36742 28.8254 3.23917 29.9352 4.54876C30.2922 4.9701 30.2401 5.60112 29.8188 5.95818C29.3975 6.31524 28.7664 6.26313 28.4094 5.84179Z" fill="currentColor"/>
<path fill-rule="evenodd" clip-rule="evenodd" d="M14.0003 14L13.7383 13.0349C13.2053 13.1796 12.8905 13.729 13.0352 14.262C13.1798 14.7949 13.7291 15.1097 14.262 14.9651L14.269 14.9633L14.2966 14.956C14.3217 14.9494 14.3603 14.9393 14.4113 14.9264C14.5134 14.9005 14.6654 14.863 14.8601 14.8177C15.2497 14.7271 15.809 14.6056 16.4809 14.484C17.8309 14.2397 19.6086 14 21.3687 14C23.124 14 24.7111 14.2387 25.8617 14.4789C26.4355 14.5987 26.8969 14.7181 27.2118 14.8065C27.3692 14.8507 27.4897 14.8871 27.569 14.9118C27.6087 14.9241 27.638 14.9336 27.6565 14.9396L27.6761 14.946L27.679 14.947C27.6788 14.9469 27.6791 14.947 27.679 14.947C28.2017 15.1239 28.7699 14.844 28.9472 14.3213C29.1247 13.7983 28.8445 13.2305 28.3215 13.053L28.0253 13.9262C28.3215 13.053 28.3217 13.0531 28.3215 13.053L28.3196 13.0524L28.3166 13.0513L28.3073 13.0482L28.276 13.0379C28.2495 13.0293 28.2119 13.0173 28.1638 13.0023C28.0676 12.9723 27.929 12.9305 27.7525 12.881C27.3996 12.7819 26.894 12.6513 26.2704 12.5211C25.0263 12.2613 23.2976 12 21.3687 12C19.4445 12 17.5381 12.2603 16.1248 12.516C15.4152 12.6444 14.8232 12.7729 14.4069 12.8698C14.1986 12.9182 14.0339 12.9588 13.9202 12.9877C13.8633 13.0021 13.8191 13.0135 13.7885 13.0216L13.7529 13.031L13.7429 13.0337L13.7383 13.0349C13.7382 13.035 13.7383 13.0349 14.0003 14Z" fill="currentColor"/>
<path fill-rule="evenodd" clip-rule="evenodd" d="M0 39C0 38.4477 0.426395 38 0.952381 38H39.0476C39.5736 38 40 38.4477 40 39C40 39.5523 39.5736 40 39.0476 40H0.952381C0.426395 40 0 39.5523 0 39Z" fill="currentColor"/>
<path fill-rule="evenodd" clip-rule="evenodd" d="M39.0002 12C34.5273 12 32.3373 12.0571 28.2179 12.976C27.6789 13.0963 27.1445 12.7568 27.0242 12.2177C26.904 11.6787 27.2435 11.1442 27.7825 11.024C32.1131 10.0579 34.4731 10 39.0002 10C39.5525 10 40.0002 10.4477 40.0002 11C40.0002 11.5523 39.5525 12 39.0002 12Z" fill="currentColor"/>
<path fill-rule="evenodd" clip-rule="evenodd" d="M1.99979 12C6.97765 12 9.1654 12.0577 13.2821 12.976C13.8211 13.0963 14.3555 12.7568 14.4758 12.2177C14.596 11.6787 14.2565 11.1442 13.7175 11.024C9.38422 10.0573 7.02192 10 1.99979 10C1.4475 10 0.999785 10.4477 0.999785 11C0.999785 11.5523 1.4475 12 1.99979 12Z" fill="currentColor"/>
<path fill-rule="evenodd" clip-rule="evenodd" d="M14.4967 35.9259L12.9644 35.0678C12.2729 34.6805 11.4577 34.4533 10.5748 34.4533C9.10365 34.4533 7.84597 35.0697 7.01649 36.0016C6.50836 36.5724 6.16092 37.2616 6.02352 38H4C4.08485 37.2906 4.2951 36.6172 4.6093 36C4.89165 35.4454 5.25793 34.9362 5.69257 34.4871C6.90239 33.2372 8.6418 32.4533 10.5748 32.4533C11.8042 32.4533 12.9553 32.7704 13.9417 33.3228C15.4387 31.313 17.9115 30 20.7086 30C23.4322 30 25.8484 31.245 27.3556 33.166C28.273 32.7108 29.3174 32.4533 30.4253 32.4533C32.3576 32.4533 34.0965 33.2366 35.3062 34.4858C35.7414 34.9352 36.1081 35.4448 36.3908 36C36.705 36.6172 36.9152 37.2906 37.0001 38H34.9766C34.6149 36.0563 32.7976 34.4533 30.4253 34.4533C29.6293 34.4533 28.8889 34.6379 28.2444 34.9576L26.7865 35.6809L25.782 34.4005C24.6537 32.9623 22.8175 32 20.7086 32C18.5425 32 16.6647 33.0151 15.5457 34.5175L14.4967 35.9259Z" fill="currentColor"/>
<path d="M37 29C37 29.5523 36.5523 30 36 30C35.4477 30 35 29.5523 35 29C35 28.4477 35.4477 28 36 28C36.5523 28 37 28.4477 37 29Z" fill="currentColor"/>
<path d="M40 35C40 35.5523 39.5523 36 39 36C38.4477 36 38 35.5523 38 35C38 34.4477 38.4477 34 39 34C39.5523 34 40 34.4477 40 35Z" fill="currentColor"/>
<path d="M4 32C4 32.5523 3.55228 33 3 33C2.44772 33 2 32.5523 2 32C2 31.4477 2.44772 31 3 31C3.55228 31 4 31.4477 4 32Z" fill="currentColor"/>
<path fill-rule="evenodd" clip-rule="evenodd" d="M17.0713 13.0026C17.6222 13.0419 18.0369 13.5204 17.9975 14.0713L17.4975 21.0713C17.4582 21.6222 16.9797 22.0368 16.4288 21.9975C15.8779 21.9582 15.4632 21.4797 15.5026 20.9288L16.0026 13.9288C16.0419 13.3779 16.5204 12.9632 17.0713 13.0026Z" fill="currentColor"/>
<path fill-rule="evenodd" clip-rule="evenodd" d="M25.4286 19.5022C25.9788 19.4563 26.4568 19.8659 26.4962 20.4169L26.9965 27.4169C27.0359 27.968 26.6218 28.4519 26.0716 28.4977C25.5214 28.5436 25.0434 28.1341 25.004 27.583L24.5037 20.5831C24.4643 20.032 24.8784 19.5481 25.4286 19.5022Z" fill="currentColor"/>
</svg>
