<svg width="40" height="40" viewBox="0 0 40 40" fill="none" xmlns="http://www.w3.org/2000/svg">
<g clip-path="url(#clip0_752_168)">
<path d="M1 8C1 4.13401 4.13401 1 8 1H12.5H18.75H25H32C35.866 1 39 4.13401 39 8V32C39 35.866 35.866 39 32 39H8C4.13401 39 1 35.866 1 32V8Z" stroke="currentColor" stroke-width="2"/>
<path d="M10.8984 18H13.2578V6.72656H10.9062L7.99219 8.75V10.875L10.7578 8.95312H10.8984V18Z" fill="currentColor"/>
<path d="M26 15V34" stroke="currentColor" stroke-width="2" stroke-linecap="round"/>
<path d="M22 23L22 34" stroke="currentColor" stroke-width="2" stroke-linecap="round"/>
<path d="M10 25L10 34" stroke="currentColor" stroke-width="2" stroke-linecap="round"/>
<path d="M14 31L14 34" stroke="currentColor" stroke-width="2" stroke-linecap="round"/>
<path d="M6 31L6 34" stroke="currentColor" stroke-width="2" stroke-linecap="round"/>
<path d="M30 23L30 34" stroke="currentColor" stroke-width="2" stroke-linecap="round"/>
<path d="M34 20L34 34" stroke="currentColor" stroke-width="2" stroke-linecap="round"/>
<path d="M18 28L18 34" stroke="currentColor" stroke-width="2" stroke-linecap="round"/>
</g>
<defs>
<clipPath id="clip0_752_168">
<rect width="40" height="40" fill="white"/>
</clipPath>
</defs>
</svg>
