<svg width="40" height="40" viewBox="0 0 40 40" fill="none" xmlns="http://www.w3.org/2000/svg">
<g clip-path="url(#clip0_657_549)">
<path d="M1.87885 30.0229C1.61536 29.5375 1.00829 29.3577 0.522908 29.6211C0.0375308 29.8846 -0.142344 30.4917 0.121147 30.9771L1.87885 30.0229ZM39.8789 30.9771C40.1423 30.4917 39.9625 29.8846 39.4771 29.6211C38.9917 29.3577 38.3846 29.5375 38.1211 30.0229L39.8789 30.9771ZM0.121147 30.9771C0.875895 32.3674 2.34649 33 3.71429 33C5.08208 33 6.55268 32.3674 7.30743 30.9771L5.54972 30.0229C5.21875 30.6326 4.51792 31 3.71429 31C2.91065 31 2.20982 30.6326 1.87885 30.0229L0.121147 30.9771ZM7.30743 30.9771C7.63839 30.3674 8.33922 30 9.14286 30C9.94649 30 10.6473 30.3674 10.9783 30.9771L12.736 30.0229C11.9812 28.6326 10.5106 28 9.14286 28C7.77507 28 6.30447 28.6326 5.54972 30.0229L7.30743 30.9771ZM10.9783 30.9771C11.733 32.3674 13.2036 33 14.5714 33C15.9392 33 17.4098 32.3674 18.1646 30.9771L16.4069 30.0229C16.0759 30.6326 15.3751 31 14.5714 31C13.7678 31 13.067 30.6326 12.736 30.0229L10.9783 30.9771ZM18.1646 30.9771C18.4955 30.3674 19.1964 30 20 30C20.8036 30 21.5045 30.3674 21.8354 30.9771L23.5931 30.0229C22.8384 28.6326 21.3678 28 20 28C18.6322 28 17.1616 28.6326 16.4069 30.0229L18.1646 30.9771ZM21.8354 30.9771C22.5902 32.3674 24.0608 33 25.4286 33C26.7964 33 28.267 32.3674 29.0217 30.9771L27.264 30.0229C26.933 30.6326 26.2322 31 25.4286 31C24.6249 31 23.9241 30.6326 23.5931 30.0229L21.8354 30.9771ZM29.0217 30.9771C29.3527 30.3674 30.0535 30 30.8571 30C31.6608 30 32.3616 30.3674 32.6926 30.9771L34.4503 30.0229C33.6955 28.6326 32.2249 28 30.8571 28C29.4894 28 28.0188 28.6326 27.264 30.0229L29.0217 30.9771ZM32.6926 30.9771C33.4473 32.3674 34.9179 33 36.2857 33C37.6535 33 39.1241 32.3674 39.8789 30.9771L38.1211 30.0229C37.7902 30.6326 37.0894 31 36.2857 31C35.4821 31 34.7812 30.6326 34.4503 30.0229L32.6926 30.9771Z" fill="currentColor"/>
<path d="M1.87885 23.0229C1.61536 22.5375 1.00829 22.3577 0.522908 22.6211C0.0375308 22.8846 -0.142344 23.4917 0.121147 23.9771L1.87885 23.0229ZM39.8789 23.9771C40.1423 23.4917 39.9625 22.8846 39.4771 22.6211C38.9917 22.3577 38.3846 22.5375 38.1211 23.0229L39.8789 23.9771ZM0.121147 23.9771C0.875895 25.3674 2.34649 26 3.71429 26C5.08208 26 6.55268 25.3674 7.30743 23.9771L5.54972 23.0229C5.21875 23.6326 4.51792 24 3.71429 24C2.91065 24 2.20982 23.6326 1.87885 23.0229L0.121147 23.9771ZM7.30743 23.9771C7.63839 23.3674 8.33922 23 9.14286 23C9.94649 23 10.6473 23.3674 10.9783 23.9771L12.736 23.0229C11.9812 21.6326 10.5106 21 9.14286 21C7.77507 21 6.30447 21.6326 5.54972 23.0229L7.30743 23.9771ZM10.9783 23.9771C11.733 25.3674 13.2036 26 14.5714 26C15.9392 26 17.4098 25.3674 18.1646 23.9771L16.4069 23.0229C16.0759 23.6326 15.3751 24 14.5714 24C13.7678 24 13.067 23.6326 12.736 23.0229L10.9783 23.9771ZM18.1646 23.9771C18.4955 23.3674 19.1964 23 20 23C20.8036 23 21.5045 23.3674 21.8354 23.9771L23.5931 23.0229C22.8384 21.6326 21.3678 21 20 21C18.6322 21 17.1616 21.6326 16.4069 23.0229L18.1646 23.9771ZM21.8354 23.9771C22.5902 25.3674 24.0608 26 25.4286 26C26.7964 26 28.267 25.3674 29.0217 23.9771L27.264 23.0229C26.933 23.6326 26.2322 24 25.4286 24C24.6249 24 23.9241 23.6326 23.5931 23.0229L21.8354 23.9771ZM29.0217 23.9771C29.3527 23.3674 30.0535 23 30.8571 23C31.6608 23 32.3616 23.3674 32.6926 23.9771L34.4503 23.0229C33.6955 21.6326 32.2249 21 30.8571 21C29.4894 21 28.0188 21.6326 27.264 23.0229L29.0217 23.9771ZM32.6926 23.9771C33.4473 25.3674 34.9179 26 36.2857 26C37.6535 26 39.1241 25.3674 39.8789 23.9771L38.1211 23.0229C37.7902 23.6326 37.0894 24 36.2857 24C35.4821 24 34.7812 23.6326 34.4503 23.0229L32.6926 23.9771Z" fill="currentColor"/>
<path d="M1.87885 37.0229C1.61536 36.5375 1.00829 36.3577 0.522908 36.6211C0.0375308 36.8846 -0.142344 37.4917 0.121147 37.9771L1.87885 37.0229ZM39.8789 37.9771C40.1423 37.4917 39.9625 36.8846 39.4771 36.6211C38.9917 36.3577 38.3846 36.5375 38.1211 37.0229L39.8789 37.9771ZM0.121147 37.9771C0.875895 39.3674 2.34649 40 3.71429 40C5.08208 40 6.55268 39.3674 7.30743 37.9771L5.54972 37.0229C5.21875 37.6326 4.51792 38 3.71429 38C2.91065 38 2.20982 37.6326 1.87885 37.0229L0.121147 37.9771ZM7.30743 37.9771C7.63839 37.3674 8.33922 37 9.14286 37C9.94649 37 10.6473 37.3674 10.9783 37.9771L12.736 37.0229C11.9812 35.6326 10.5106 35 9.14286 35C7.77507 35 6.30447 35.6326 5.54972 37.0229L7.30743 37.9771ZM10.9783 37.9771C11.733 39.3674 13.2036 40 14.5714 40C15.9392 40 17.4098 39.3674 18.1646 37.9771L16.4069 37.0229C16.0759 37.6326 15.3751 38 14.5714 38C13.7678 38 13.067 37.6326 12.736 37.0229L10.9783 37.9771ZM18.1646 37.9771C18.4955 37.3674 19.1964 37 20 37C20.8036 37 21.5045 37.3674 21.8354 37.9771L23.5931 37.0229C22.8384 35.6326 21.3678 35 20 35C18.6322 35 17.1616 35.6326 16.4069 37.0229L18.1646 37.9771ZM21.8354 37.9771C22.5902 39.3674 24.0608 40 25.4286 40C26.7964 40 28.267 39.3674 29.0217 37.9771L27.264 37.0229C26.933 37.6326 26.2322 38 25.4286 38C24.6249 38 23.9241 37.6326 23.5931 37.0229L21.8354 37.9771ZM29.0217 37.9771C29.3527 37.3674 30.0535 37 30.8571 37C31.6608 37 32.3616 37.3674 32.6926 37.9771L34.4503 37.0229C33.6955 35.6326 32.2249 35 30.8571 35C29.4894 35 28.0188 35.6326 27.264 37.0229L29.0217 37.9771ZM32.6926 37.9771C33.4473 39.3674 34.9179 40 36.2857 40C37.6535 40 39.1241 39.3674 39.8789 37.9771L38.1211 37.0229C37.7902 37.6326 37.0894 38 36.2857 38C35.4821 38 34.7812 37.6326 34.4503 37.0229L32.6926 37.9771Z" fill="currentColor"/>
<circle cx="20" cy="9" r="3" stroke="currentColor" stroke-width="2"/>
<rect x="29" y="8" width="2" height="4" rx="1" transform="rotate(90 29 8)" fill="currentColor"/>
<rect x="15" y="8" width="2" height="4" rx="1" transform="rotate(90 15 8)" fill="currentColor"/>
<rect x="27.2422" y="14.8284" width="2" height="4" rx="1" transform="rotate(135 27.2422 14.8284)" fill="currentColor"/>
<rect x="17.2422" y="4.82837" width="2" height="4" rx="1" transform="rotate(135 17.2422 4.82837)" fill="currentColor"/>
<rect x="25.8281" y="2" width="2" height="4" rx="1" transform="rotate(45 25.8281 2)" fill="currentColor"/>
<rect x="15.8281" y="12" width="2" height="4" rx="1" transform="rotate(45 15.8281 12)" fill="currentColor"/>
<rect x="19" width="2" height="4" rx="1" fill="currentColor"/>
<rect x="19" y="14" width="2" height="4" rx="1" fill="currentColor"/>
</g>
<defs>
<clipPath id="clip0_657_549">
<rect width="40" height="40" fill="white"/>
</clipPath>
</defs>
</svg>
