<svg width="40" height="40" viewBox="0 0 40 40" fill="none" xmlns="http://www.w3.org/2000/svg">
<g clip-path="url(#clip0_657_302)">
<path fill-rule="evenodd" clip-rule="evenodd" d="M39 1.02339C39.0023 0.923408 38.9895 0.82138 38.96 0.72026C38.8054 0.190067 38.2502 -0.11438 37.72 0.0402601L13.72 7.04026C13.2757 7.16986 12.9899 7.58075 13 8.0225V14.9771C12.9997 14.9922 12.9997 15.0073 13 15.0225V29.8011C11.7295 28.6898 9.95869 28.0003 8 28.0003C4.13401 28.0003 1 30.6866 1 34.0003C1 37.314 4.13401 40.0003 8 40.0003C11.866 40.0003 15 37.314 15 34.0003V15.7503L37 9.33359V25.8011C35.7295 24.6898 33.9587 24.0003 32 24.0003C28.134 24.0003 25 26.6866 25 30.0003C25 33.314 28.134 36.0003 32 36.0003C35.866 36.0003 39 33.314 39 30.0003V8.02339C39.0003 8.00832 39.0003 7.99319 39 7.97803V1.02339ZM37 30.0003C37 28.0693 35.0618 26.0003 32 26.0003C28.9382 26.0003 27 28.0693 27 30.0003C27 31.9313 28.9382 34.0003 32 34.0003C35.0618 34.0003 37 31.9313 37 30.0003ZM8 30.0003C11.0618 30.0003 13 32.0693 13 34.0003C13 35.9313 11.0618 38.0003 8 38.0003C4.93823 38.0003 3 35.9313 3 34.0003C3 32.0693 4.93823 30.0003 8 30.0003ZM37 2.33359L15 8.75026V13.6669L37 7.25026V2.33359Z" fill="currentColor"/>
</g>
<defs>
<clipPath id="clip0_657_302">
<rect width="40" height="40" fill="white"/>
</clipPath>
</defs>
</svg>
