<?xml version="1.0" encoding="UTF-8"?>
<svg width="24px" height="24px" viewBox="0 0 24 24" version="1.1" xmlns="http://www.w3.org/2000/svg" xmlns:xlink="http://www.w3.org/1999/xlink">
    <g id="7.-Icons/Pause" stroke="none" stroke-width="1" fill="none" fill-rule="evenodd">
        <path d="M7,6 L9,6 C9.55228475,6 10,6.44771525 10,7 L10,18 C10,18.5522847 9.55228475,19 9,19 L7,19 C6.44771525,19 6,18.5522847 6,18 L6,7 C6,6.44771525 6.44771525,6 7,6 Z M15,6 L17,6 C17.5522847,6 18,6.44771525 18,7 L18,18 C18,18.5522847 17.5522847,19 17,19 L15,19 C14.4477153,19 14,18.5522847 14,18 L14,7 C14,6.44771525 14.4477153,6 15,6 Z" id="Combined-Shape" fill="currentColor" fill-rule="nonzero"></path>
    </g>
</svg>
